<svg width="36" height="37" viewBox="0 0 36 37" fill="none" xmlns="http://www.w3.org/2000/svg">
<rect x="0.266724" y="0.266602" width="34.8525" height="35.8525" rx="5.37787" fill="#E9E7FD"/>
<g clip-path="url(#clip0_672_2831)">
<path d="M23.1499 28.6197H8.33017C7.72391 28.6197 7.23242 28.1276 7.23242 27.5204V8.77213C7.23242 8.16501 7.72391 7.67285 8.33017 7.67285H23.1499C23.7561 7.67285 24.2476 8.16501 24.2476 8.77213V27.5205C24.2476 28.1276 23.7561 28.6197 23.1499 28.6197Z" fill="white"/>
<path d="M9.42437 11.6982V7.69824H8.33017C7.72391 7.69824 7.23242 8.16573 7.23242 8.77281V27.5211C7.23242 28.1282 7.72391 28.6297 8.33017 28.6297H23.1499C23.7561 28.6297 24.2745 28.1282 24.2745 27.5211V26.5475C16.073 26.5475 9.42437 19.8993 9.42437 11.6982Z" fill="#E6E7E8"/>
<path d="M19.6838 29.4422H8.33002C7.27146 29.4422 6.41028 28.5804 6.41028 27.5211V8.77274C6.41028 7.71341 7.27146 6.85156 8.33002 6.85156H10.1895V8.49541H8.33002C8.17792 8.49541 8.05423 8.61982 8.05423 8.77274V27.5211C8.05423 27.674 8.17797 27.7984 8.33002 27.7984H19.6838V29.4422Z" fill="#3E4D6C"/>
<path d="M25.0694 19.9542H23.4254V8.77274C23.4254 8.61982 23.3017 8.49541 23.1497 8.49541H21.4253V6.85156H23.1497C24.2082 6.85156 25.0694 7.71341 25.0694 8.77274V19.9542Z" fill="#3E4D6C"/>
<path d="M18.9334 9.2978H12.5464C12.0366 9.2978 11.6233 8.88451 11.6233 8.37472V6.92308C11.6233 6.41328 12.0366 6 12.5464 6H18.9334C19.4432 6 19.8565 6.41328 19.8565 6.92308V8.37472C19.8565 8.88451 19.4432 9.2978 18.9334 9.2978Z" fill="#0795FE"/>
<path d="M16.0162 18.5693H21.9505V20.2132H16.0162V18.5693Z" fill="#3E4D6C"/>
<path d="M16.0159 13.623H21.9501V15.2669H16.0159V13.623Z" fill="#3E4D6C"/>
<path d="M16.0162 23.5156H18.8271V25.1595H16.0162V23.5156Z" fill="#3E4D6C"/>
<path d="M20.8742 24.8241C20.4613 27.2138 22.063 29.4994 24.4518 29.929C26.8405 30.3587 29.1118 28.7698 29.5247 26.3801C29.9376 23.9904 28.3359 21.7048 25.9471 21.2752C23.5583 20.8456 21.2871 22.4344 20.8742 24.8241Z" fill="#0795FE"/>
<path d="M24.15 27.2837L22.6627 25.7697L23.8344 24.6153L24.7335 25.5284L26.5377 23.6807L27.7137 24.829L25.3238 27.2815C25.17 27.4391 24.6395 27.7538 24.15 27.2837Z" fill="white"/>
<path d="M10.8024 25.9569L9.20618 24.2184L10.4177 23.1083L11.4083 24.189L13.7632 21.623L14.9743 22.7346L12.0137 25.9571C11.8581 26.1267 11.2867 26.4112 10.8024 25.9569Z" fill="#3E4D6C"/>
<path d="M10.8024 21.0253L9.20618 19.2868L10.4177 18.1767L11.4083 19.2574L13.7632 16.6914L14.9743 17.8029L12.0137 21.0255C11.8581 21.195 11.2867 21.4795 10.8024 21.0253Z" fill="#3E4D6C"/>
<path d="M10.8024 16.039L9.20618 14.3005L10.4177 13.1904L11.4083 14.271L13.7632 11.7051L14.9743 12.8166L12.0137 16.0391C11.8581 16.2087 11.2867 16.4932 10.8024 16.039Z" fill="#3E4D6C"/>
</g>
<defs>
<clipPath id="clip0_672_2831">
<rect width="24" height="24" fill="white" transform="translate(6.00012 6)"/>
</clipPath>
</defs>
</svg>
