<svg width="36" height="37" viewBox="0 0 36 37" fill="none" xmlns="http://www.w3.org/2000/svg">
<rect x="0.266724" y="0.266602" width="34.8525" height="35.8525" rx="5.37787" fill="#E9E7FD"/>
<g clip-path="url(#clip0_721_3026)">
<path d="M22.1251 30V27.375C22.1251 26.1337 21.1164 25.125 19.8751 25.125H19.1251V22.5H16.8751V25.125H16.1251C14.8839 25.125 13.8751 26.1337 13.8751 27.375V30H22.1251Z" fill="#4D9AFF"/>
<path d="M15.0001 19.6836C15.0001 21.8623 16.3426 23.6248 18.0001 23.6248C19.6576 23.6248 21.0001 21.8586 21.0001 19.6836C21.0001 17.5086 19.6576 16.4248 18.0001 16.4248C16.3426 16.4248 15.0001 17.5048 15.0001 19.6836Z" fill="#FFD199"/>
<path d="M27.3751 21.375C28.6178 21.375 29.6251 20.3676 29.6251 19.125C29.6251 17.8824 28.6178 16.875 27.3751 16.875C26.1325 16.875 25.1251 17.8824 25.1251 19.125C25.1251 20.3676 26.1325 21.375 27.3751 21.375Z" fill="#FF7375"/>
<path d="M8.62512 21.375C9.86776 21.375 10.8751 20.3676 10.8751 19.125C10.8751 17.8824 9.86776 16.875 8.62512 16.875C7.38248 16.875 6.37512 17.8824 6.37512 19.125C6.37512 20.3676 7.38248 21.375 8.62512 21.375Z" fill="#FF7375"/>
<path d="M18.0001 10.875C19.2428 10.875 20.2501 9.86764 20.2501 8.625C20.2501 7.38236 19.2428 6.375 18.0001 6.375C16.7575 6.375 15.7501 7.38236 15.7501 8.625C15.7501 9.86764 16.7575 10.875 18.0001 10.875Z" fill="#FF7375"/>
<path d="M26.2538 13.4961C27.4964 13.4961 28.5038 12.4887 28.5038 11.2461C28.5038 10.0035 27.4964 8.99609 26.2538 8.99609C25.0111 8.99609 24.0038 10.0035 24.0038 11.2461C24.0038 12.4887 25.0111 13.4961 26.2538 13.4961Z" fill="#FF7375"/>
<path d="M9.74646 13.4961C10.9891 13.4961 11.9965 12.4887 11.9965 11.2461C11.9965 10.0035 10.9891 8.99609 9.74646 8.99609C8.50382 8.99609 7.49646 10.0035 7.49646 11.2461C7.49646 12.4887 8.50382 13.4961 9.74646 13.4961Z" fill="#FF7375"/>
<path d="M15.3751 27H16.1251V30H15.3751V27Z" fill="black"/>
<path d="M22.5001 29.9998V27.3748C22.5001 25.9273 21.3226 24.7498 19.8751 24.7498H19.5001V23.5461C20.6101 22.8373 21.3751 21.3748 21.3751 19.6836C21.3751 17.4786 20.0514 16.0498 18.0001 16.0498C15.9489 16.0498 14.6251 17.4748 14.6251 19.6836C14.6251 21.3748 15.3901 22.8373 16.5001 23.5461V24.7498H16.1251C14.6776 24.7498 13.5001 25.9273 13.5001 27.3748V29.9998H14.2501V27.3748C14.2501 26.3398 15.0901 25.4998 16.1251 25.4998H16.8751C17.0814 25.4998 17.2501 25.3311 17.2501 25.1248V23.8873C17.4901 23.9586 17.7414 23.9998 18.0001 23.9998C18.2589 23.9998 18.5101 23.9586 18.7501 23.8873V25.1248C18.7501 25.3311 18.9189 25.4998 19.1251 25.4998H19.8751C20.9101 25.4998 21.7501 26.3398 21.7501 27.3748V29.9998H22.5001ZM18.0001 23.2498C16.5526 23.2498 15.3751 21.6486 15.3751 19.6836C15.3751 17.9061 16.3801 16.7998 18.0001 16.7998C19.6201 16.7998 20.6251 17.9061 20.6251 19.6836C20.6251 21.6523 19.4476 23.2498 18.0001 23.2498Z" fill="black"/>
<path d="M19.8751 27H20.6251V30H19.8751V27Z" fill="black"/>
<path d="M27.3751 16.5C26.0551 16.5 24.9639 17.4787 24.7801 18.75H22.5001V19.5H24.7801C24.9639 20.7713 26.0551 21.75 27.3751 21.75C28.8226 21.75 30.0001 20.5725 30.0001 19.125C30.0001 17.6775 28.8226 16.5 27.3751 16.5ZM27.3751 21C26.3401 21 25.5001 20.16 25.5001 19.125C25.5001 18.09 26.3401 17.25 27.3751 17.25C28.4101 17.25 29.2501 18.09 29.2501 19.125C29.2501 20.16 28.4101 21 27.3751 21Z" fill="black"/>
<path d="M27.9038 18.0645L27.3751 18.597L26.8463 18.0645L26.3138 18.597L26.8463 19.1257L26.3138 19.6545L26.8463 20.187L27.3751 19.6545L27.9038 20.187L28.4363 19.6545L27.9038 19.1257L28.4363 18.597L27.9038 18.0645Z" fill="black"/>
<path d="M11.2201 19.5H13.5001V18.75H11.2201C11.0364 17.4787 9.94512 16.5 8.62512 16.5C7.17762 16.5 6.00012 17.6775 6.00012 19.125C6.00012 20.5725 7.17762 21.75 8.62512 21.75C9.94512 21.75 11.0364 20.7713 11.2201 19.5ZM6.75012 19.125C6.75012 18.09 7.59012 17.25 8.62512 17.25C9.66012 17.25 10.5001 18.09 10.5001 19.125C10.5001 20.16 9.66012 21 8.62512 21C7.59012 21 6.75012 20.16 6.75012 19.125Z" fill="black"/>
<path d="M9.15384 20.187L9.68634 19.6545L9.15384 19.1257L9.68634 18.597L9.15384 18.0645L8.62509 18.597L8.09634 18.0645L7.56384 18.597L8.09634 19.1257L7.56384 19.6545L8.09634 20.187L8.62509 19.6545L9.15384 20.187Z" fill="black"/>
<path d="M15.3751 8.625C15.3751 9.945 16.3539 11.0363 17.6251 11.22V15H18.3751V11.22C19.6464 11.0363 20.6251 9.945 20.6251 8.625C20.6251 7.1775 19.4476 6 18.0001 6C16.5526 6 15.3751 7.1775 15.3751 8.625ZM18.0001 6.75C19.0351 6.75 19.8751 7.59 19.8751 8.625C19.8751 9.66 19.0351 10.5 18.0001 10.5C16.9651 10.5 16.1251 9.66 16.1251 8.625C16.1251 7.59 16.9651 6.75 18.0001 6.75Z" fill="black"/>
<path d="M17.4713 9.68695L18.0001 9.15445L18.5288 9.68695L19.0613 9.15445L18.5288 8.6257L19.0613 8.09695L18.5288 7.56445L18.0001 8.09695L17.4713 7.56445L16.9388 8.09695L17.4713 8.6257L16.9388 9.15445L17.4713 9.68695Z" fill="black"/>
<path d="M26.2539 13.8711C26.9251 13.8711 27.5964 13.6161 28.1101 13.1024C28.6051 12.6074 28.8789 11.9474 28.8789 11.2461C28.8789 10.5449 28.6051 9.88488 28.1101 9.38988C27.0864 8.36613 25.4214 8.36613 24.3976 9.38988C23.4639 10.3236 23.3851 11.7899 24.1539 12.8174L21.1089 15.8624L21.6376 16.3911L24.6826 13.3461C25.1476 13.6949 25.6989 13.8711 26.2539 13.8711ZM24.9264 9.92238C25.2901 9.55863 25.7739 9.37488 26.2539 9.37488C26.7339 9.37488 27.2139 9.55863 27.5814 9.92238C27.9489 10.2861 28.1289 10.7474 28.1289 11.2499C28.1289 11.7524 27.9339 12.2211 27.5814 12.5774C26.8501 13.3086 25.6614 13.3086 24.9301 12.5774C24.1989 11.8461 24.1989 10.6574 24.9301 9.92613L24.9264 9.92238Z" fill="black"/>
<path d="M25.7252 12.308L26.254 11.7755L26.7827 12.308L27.3152 11.7755L26.7827 11.2468L27.3152 10.718L26.7827 10.1855L26.254 10.718L25.7252 10.1855L25.1927 10.718L25.7252 11.2468L25.1927 11.7755L25.7252 12.308Z" fill="black"/>
<path d="M11.6027 9.38988C10.579 8.36613 8.91396 8.36613 7.89021 9.38988C7.39521 9.88488 7.12146 10.5449 7.12146 11.2461C7.12146 11.9474 7.39521 12.6074 7.89021 13.1024C8.40021 13.6161 9.07521 13.8711 9.74646 13.8711C10.3015 13.8711 10.8527 13.6949 11.3177 13.3461L14.3627 16.3911L14.8915 15.8624L11.8465 12.8174C12.184 12.3674 12.3715 11.8236 12.3715 11.2461C12.3715 10.5449 12.0977 9.88488 11.6027 9.38988ZM11.074 12.5736C10.3427 13.3049 9.15396 13.3049 8.42271 12.5736C8.07021 12.2211 7.87521 11.7486 7.87521 11.2461C7.87521 10.7436 8.07021 10.2749 8.42271 9.91863C8.77521 9.56238 9.26646 9.37113 9.75021 9.37113C10.234 9.37113 10.7102 9.55488 11.0777 9.91863C11.4452 10.2824 11.6252 10.7436 11.6252 11.2461C11.6252 11.7486 11.4302 12.2174 11.0777 12.5736H11.074Z" fill="black"/>
<path d="M10.2751 10.1855L9.74631 10.718L9.21756 10.1855L8.68506 10.718L9.21756 11.2468L8.68506 11.7755L9.21756 12.308L9.74631 11.7755L10.2751 12.308L10.8076 11.7755L10.2751 11.2468L10.8076 10.718L10.2751 10.1855Z" fill="black"/>
<path d="M18.0001 20.25C17.1714 20.25 16.5001 20.9212 16.5001 21.75H17.2501C17.2501 21.3375 17.5876 21 18.0001 21C18.4126 21 18.7501 21.3375 18.7501 21.75H19.5001C19.5001 20.9212 18.8289 20.25 18.0001 20.25Z" fill="black"/>
<path d="M16.6876 18.75H17.4376V19.5H16.6876V18.75Z" fill="black"/>
<path d="M18.5626 18.75H19.3126V19.5H18.5626V18.75Z" fill="black"/>
</g>
<defs>
<clipPath id="clip0_721_3026">
<rect width="24" height="24" fill="white" transform="translate(6.00012 6)"/>
</clipPath>
</defs>
</svg>
