<svg width="36" height="37" viewBox="0 0 36 37" fill="none" xmlns="http://www.w3.org/2000/svg">
<rect x="0.266724" y="0.266602" width="34.8525" height="35.8525" rx="5.37787" fill="#E9E7FD"/>
<path d="M24.4155 27.222C19.8042 27.222 16.6375 29.6107 14.4155 29.6107C12.1935 29.6107 7.52686 28.3333 7.52686 18.1113C7.52686 7.88934 13.8049 6.38867 16.2489 6.38867C27.6935 6.38867 32.5822 27.222 24.4155 27.222Z" fill="#EFEFEF"/>
<path d="M25.0773 9.66602L26.0201 8.72321L26.4915 9.19461L25.5487 10.1374L25.0773 9.66602Z" fill="#A4AFC1"/>
<path d="M25.3143 11.791L25.7857 11.3196L26.7285 12.2624L26.2571 12.7338L25.3143 11.791Z" fill="#A4AFC1"/>
<path d="M22.604 9.0791L23.0754 8.6077L24.0182 9.55051L23.5468 10.0219L22.604 9.0791Z" fill="#A4AFC1"/>
<path d="M10.5001 20.5H20.3335V23.5H10.5001V20.5Z" fill="#F3F3F1"/>
<path d="M13.6667 10.5H17.0001V20.5H13.6667V10.5Z" fill="#F3F3F1"/>
<path d="M21.6668 25.5007C23.7839 25.5007 25.5002 23.7844 25.5002 21.6673C25.5002 19.5502 23.7839 17.834 21.6668 17.834C19.5497 17.834 17.8335 19.5502 17.8335 21.6673C17.8335 23.7844 19.5497 25.5007 21.6668 25.5007Z" fill="#2FDF84"/>
<path d="M11.8335 12.334H13.6668V20.5007H11.8335V12.334Z" fill="#2FDF84"/>
<path d="M10.5001 20.5H12.0001V23.5H10.5001V20.5Z" fill="#D5DBE1"/>
<path d="M13.6667 10.5H15.1667V20.5H13.6667V10.5Z" fill="#D5DBE1"/>
<path d="M19.3335 21.6673C19.3335 19.8073 20.6588 18.2573 22.4168 17.9087C22.1742 17.8607 21.9235 17.834 21.6668 17.834C19.5495 17.834 17.8335 19.55 17.8335 21.6673C17.8335 23.7847 19.5495 25.5007 21.6668 25.5007C21.9235 25.5007 22.1742 25.4747 22.4168 25.426C20.6588 25.0773 19.3335 23.5273 19.3335 21.6673Z" fill="#00B871"/>
<path d="M11.8335 12.334H13.3335V20.5007H11.8335V12.334Z" fill="#00B871"/>
<path d="M21.6668 26.0007C19.2775 26.0007 17.3335 24.0567 17.3335 21.6673C17.3335 19.278 19.2775 17.334 21.6668 17.334C24.0562 17.334 26.0002 19.278 26.0002 21.6673C26.0002 24.0567 24.0562 26.0007 21.6668 26.0007ZM21.6668 18.334C19.8288 18.334 18.3335 19.8293 18.3335 21.6673C18.3335 23.5053 19.8288 25.0007 21.6668 25.0007C23.5048 25.0007 25.0002 23.5053 25.0002 21.6673C25.0002 19.8293 23.5048 18.334 21.6668 18.334Z" fill="black"/>
<path d="M22.4801 23.5207L21.3134 22.354C21.2194 22.26 21.1667 22.1333 21.1667 22.0007V19.834H22.1667V21.7933L23.1867 22.8133L22.4801 23.5207Z" fill="black"/>
<path d="M16.3055 24H10.5001C10.2241 24 10.0001 23.776 10.0001 23.5V20.5C10.0001 20.224 10.2241 20 10.5001 20H15.5001V21H11.0001V23H16.3055V24Z" fill="black"/>
<path d="M14.1667 21H13.1667V10.5C13.1667 10.224 13.3907 10 13.6667 10H17.0001C17.2761 10 17.5001 10.224 17.5001 10.5V19.1667H16.5001V11H14.1667V21Z" fill="black"/>
<path d="M12.3335 20.5007H11.3335V12.334C11.3335 12.058 11.5575 11.834 11.8335 11.834H13.6668V12.834H12.3335V20.5007Z" fill="black"/>
<path d="M11.8335 13.834H13.6668V14.834H11.8335V13.834Z" fill="black"/>
<path d="M11.8335 15.834H13.6668V16.834H11.8335V15.834Z" fill="black"/>
<path d="M11.8335 17.834H13.6668V18.834H11.8335V17.834Z" fill="black"/>
<path d="M15.3335 17.834H17.5002V18.834H15.3335V17.834Z" fill="black"/>
<path d="M15.3335 15.834H17.5002V16.834H15.3335V15.834Z" fill="black"/>
<path d="M15.3335 13.834H17.5002V14.834H15.3335V13.834Z" fill="black"/>
<path d="M15.3335 11.834H17.5002V12.834H15.3335V11.834Z" fill="black"/>
</svg>
