<svg width="36" height="37" viewBox="0 0 36 37" fill="none" xmlns="http://www.w3.org/2000/svg">
<rect x="0.266724" y="0.933594" width="34.8525" height="35.8525" rx="5.37787" fill="#E9E7FD"/>
<path d="M23.6251 8.875H8.62512C8.21091 8.875 7.87512 9.21079 7.87512 9.625V27.625C7.87512 28.0392 8.21091 28.375 8.62512 28.375H23.6251C24.0393 28.375 24.3751 28.0392 24.3751 27.625V9.625C24.3751 9.21079 24.0393 8.875 23.6251 8.875Z" fill="#64B5F6"/>
<path d="M7.87512 25.375V27.625C7.87512 28.0392 8.21092 28.375 8.62512 28.375H23.6251C24.0393 28.375 24.3751 28.0392 24.3751 27.625V25.375H7.87512Z" fill="#1E88E5"/>
<path d="M9.37512 10.375H22.8751V26.875H9.37512V10.375Z" fill="#E8EAF6"/>
<path d="M9.37512 25.375H22.8751V26.875H9.37512V25.375Z" fill="#C5CAE9"/>
<path d="M23.2501 29.125C25.9425 29.125 28.1251 26.9424 28.1251 24.25C28.1251 21.5576 25.9425 19.375 23.2501 19.375C20.5577 19.375 18.3751 21.5576 18.3751 24.25C18.3751 26.9424 20.5577 29.125 23.2501 29.125Z" fill="#EF3F39"/>
<path d="M23.2501 27.625C20.8135 27.625 18.8003 25.8354 18.4387 23.5C18.4007 23.7451 18.3751 23.9943 18.3751 24.25C18.3751 26.9424 20.5577 29.125 23.2501 29.125C25.9425 29.125 28.1251 26.9424 28.1251 24.25C28.1251 23.9943 28.0995 23.7451 28.0616 23.5C27.7 25.8354 25.6868 27.625 23.2501 27.625Z" fill="#C92424"/>
<path d="M18.3751 11.5H13.8751C13.4609 11.5 13.1251 11.1642 13.1251 10.75V8.875H19.1251V10.75C19.1251 11.1642 18.7893 11.5 18.3751 11.5Z" fill="#FFD13E"/>
<path d="M23.7142 24.25L25.3572 22.607C25.485 22.4788 25.485 22.2712 25.3572 22.143C25.229 22.0148 25.021 22.0148 24.8929 22.143L23.25 23.7858L21.6072 22.143C21.479 22.0148 21.271 22.0148 21.1429 22.143C21.015 22.2712 21.015 22.4788 21.1429 22.607L22.7859 24.25L21.1429 25.893C21.015 26.0212 21.015 26.2288 21.1429 26.357C21.2069 26.4211 21.2912 26.4531 21.375 26.4531C21.4589 26.4531 21.5431 26.4211 21.6072 26.357L23.25 24.7142L24.8929 26.357C24.9569 26.4211 25.0412 26.4531 25.125 26.4531C25.2089 26.4531 25.2931 26.4211 25.3572 26.357C25.485 26.2288 25.485 26.0212 25.3572 25.893L23.7142 24.25Z" fill="white"/>
<path d="M15.9906 9.85938H14.4906C14.3093 9.85938 14.1625 10.0062 14.1625 10.1875C14.1625 10.3688 14.3093 10.5156 14.4906 10.5156H15.9906C16.1719 10.5156 16.3187 10.3688 16.3187 10.1875C16.3187 10.0062 16.1719 9.85938 15.9906 9.85938Z" fill="white"/>
<path d="M21.7032 15.625C21.7032 15.4437 21.5564 15.2969 21.3751 15.2969H19.1251C18.9438 15.2969 18.797 15.4437 18.797 15.625C18.797 15.8063 18.9438 15.9531 19.1251 15.9531H21.3751C21.5564 15.9531 21.7032 15.8063 21.7032 15.625Z" fill="white"/>
<path d="M24.375 19.8344C24.1937 19.8344 24.0469 19.6876 24.0469 19.5063V9.625C24.0469 9.39245 23.8575 9.20312 23.625 9.20312H11.6027C11.4214 9.20312 11.2745 9.05627 11.2745 8.875C11.2745 8.69372 11.4214 8.54688 11.6027 8.54688H23.625C24.2194 8.54688 24.7031 9.03046 24.7031 9.625V19.5063C24.7031 19.6876 24.5563 19.8344 24.375 19.8344Z" fill="#1A237E"/>
<path d="M15.2407 28.7031H8.62512C8.03076 28.7031 7.547 28.2195 7.547 27.625V9.625C7.547 9.03046 8.03076 8.54688 8.62512 8.54688H9.69629C9.87757 8.54688 10.0244 8.69373 10.0244 8.875C10.0244 9.05628 9.87757 9.20312 9.69629 9.20312H8.62512C8.39258 9.20312 8.20325 9.39245 8.20325 9.625V27.625C8.20325 27.8575 8.39258 28.0469 8.62512 28.0469H15.2407C15.422 28.0469 15.5688 28.1937 15.5688 28.375C15.5688 28.5563 15.422 28.7031 15.2407 28.7031Z" fill="#1A237E"/>
<path d="M20.6551 28.7031H17.1772C16.996 28.7031 16.8491 28.5563 16.8491 28.375C16.8491 28.1937 16.996 28.0469 17.1772 28.0469H20.6551C20.8364 28.0469 20.9833 28.1937 20.9833 28.375C20.9833 28.5563 20.8364 28.7031 20.6551 28.7031Z" fill="#1A237E"/>
<path d="M23.2501 29.4531C20.3812 29.4531 18.047 27.1191 18.047 24.25C18.047 21.3809 20.3812 19.0469 23.2501 19.0469C26.119 19.0469 28.4532 21.3809 28.4532 24.25C28.4532 27.1191 26.119 29.4531 23.2501 29.4531ZM23.2501 19.7031C20.743 19.7031 18.7032 21.7429 18.7032 24.25C18.7032 26.7571 20.743 28.7969 23.2501 28.7969C25.7572 28.7969 27.797 26.7571 27.797 24.25C27.797 21.7429 25.7572 19.7031 23.2501 19.7031Z" fill="#1A237E"/>
<path d="M19.1438 27.2031H9.37512C9.19385 27.2031 9.047 27.0563 9.047 26.875V10.375C9.047 10.1937 9.19385 10.0469 9.37512 10.0469H13.1251C13.3064 10.0469 13.4532 10.1937 13.4532 10.375C13.4532 10.5563 13.3064 10.7031 13.1251 10.7031H9.70325V26.5469H19.1438C19.3251 26.5469 19.4719 26.6937 19.4719 26.875C19.4719 27.0563 19.3251 27.2031 19.1438 27.2031Z" fill="#1A237E"/>
<path d="M22.8751 18.1013C22.6938 18.1013 22.547 17.9545 22.547 17.7732V10.7031H19.1251C18.9438 10.7031 18.797 10.5563 18.797 10.375C18.797 10.1937 18.9438 10.0469 19.1251 10.0469H22.8751C23.0564 10.0469 23.2032 10.1937 23.2032 10.375V17.7732C23.2032 17.9545 23.0564 18.1013 22.8751 18.1013Z" fill="#1A237E"/>
<path d="M18.3751 11.8281H13.8751C13.2808 11.8281 12.797 11.2883 12.797 10.6249V8.875C12.797 8.69373 12.9438 8.54688 13.1251 8.54688C13.3064 8.54688 13.4532 8.69373 13.4532 8.875V10.6249C13.4532 10.9214 13.6466 11.1719 13.8751 11.1719H18.3751C18.6036 11.1719 18.797 10.9214 18.797 10.6249V8.875C18.797 8.69373 18.9438 8.54688 19.1251 8.54688C19.3064 8.54688 19.4532 8.69373 19.4532 8.875V10.6249C19.4532 11.2883 18.9695 11.8281 18.3751 11.8281Z" fill="#1A237E"/>
<path d="M12.7501 15.3906H10.8751C10.6938 15.3906 10.547 15.2438 10.547 15.0625V13.1875C10.547 13.0062 10.6938 12.8594 10.8751 12.8594H12.7501C12.9314 12.8594 13.0782 13.0062 13.0782 13.1875V15.0625C13.0782 15.2438 12.9314 15.3906 12.7501 15.3906ZM11.2032 14.7344H12.422V13.5156H11.2032V14.7344Z" fill="#1A237E"/>
<path d="M21.3751 14.4531H14.2501C14.0688 14.4531 13.922 14.3063 13.922 14.125C13.922 13.9437 14.0688 13.7969 14.2501 13.7969H21.3751C21.5564 13.7969 21.7032 13.9437 21.7032 14.125C21.7032 14.3063 21.5564 14.4531 21.3751 14.4531Z" fill="#1A237E"/>
<path d="M12.7501 18.5781H10.8751C10.6938 18.5781 10.547 18.4313 10.547 18.25V16.375C10.547 16.1937 10.6938 16.0469 10.8751 16.0469H12.7501C12.9314 16.0469 13.0782 16.1937 13.0782 16.375V18.25C13.0782 18.4313 12.9314 18.5781 12.7501 18.5781ZM11.2032 17.9219H12.422V16.7031H11.2032V17.9219Z" fill="#1A237E"/>
<path d="M21.3751 17.6406H14.2501C14.0688 17.6406 13.922 17.4938 13.922 17.3125C13.922 17.1312 14.0688 16.9844 14.2501 16.9844H21.3751C21.5564 16.9844 21.7032 17.1312 21.7032 17.3125C21.7032 17.4938 21.5564 17.6406 21.3751 17.6406Z" fill="#1A237E"/>
<path d="M12.7501 21.7656H10.8751C10.6938 21.7656 10.547 21.6188 10.547 21.4375V19.5625C10.547 19.3812 10.6938 19.2344 10.8751 19.2344H12.7501C12.9314 19.2344 13.0782 19.3812 13.0782 19.5625V21.4375C13.0782 21.6188 12.9314 21.7656 12.7501 21.7656ZM11.2032 21.1094H12.422V19.8906H11.2032V21.1094Z" fill="#1A237E"/>
<path d="M18.3751 20.8281H14.2501C14.0688 20.8281 13.922 20.6813 13.922 20.5C13.922 20.3187 14.0688 20.1719 14.2501 20.1719H18.3751C18.5564 20.1719 18.7032 20.3187 18.7032 20.5C18.7032 20.6813 18.5564 20.8281 18.3751 20.8281Z" fill="#1A237E"/>
<path d="M12.7501 24.9531H10.8751C10.6938 24.9531 10.547 24.8063 10.547 24.625V22.75C10.547 22.5687 10.6938 22.4219 10.8751 22.4219H12.7501C12.9314 22.4219 13.0782 22.5687 13.0782 22.75V24.625C13.0782 24.8063 12.9314 24.9531 12.7501 24.9531ZM11.2032 24.2969H12.422V23.0781H11.2032V24.2969Z" fill="#1A237E"/>
<path d="M16.8751 24.0156H14.2501C14.0688 24.0156 13.922 23.8688 13.922 23.6875C13.922 23.5062 14.0688 23.3594 14.2501 23.3594H16.8751C17.0564 23.3594 17.2032 23.5062 17.2032 23.6875C17.2032 23.8688 17.0564 24.0156 16.8751 24.0156Z" fill="#1A237E"/>
</svg>
