<svg width="36" height="37" viewBox="0 0 36 37" fill="none" xmlns="http://www.w3.org/2000/svg">
<rect x="0.266724" y="0.266602" width="34.8525" height="35.8525" rx="5.37787" fill="#E9E7FD"/>
<g clip-path="url(#clip0_672_2823)">
<mask id="mask0_672_2823" style="mask-type:luminance" maskUnits="userSpaceOnUse" x="6" y="6" width="25" height="24">
<path d="M6.00012 6H30.0001V30H6.00012V6Z" fill="white"/>
</mask>
<g mask="url(#mask0_672_2823)">
<path d="M25.9147 7.23422V26.2734C25.9147 26.2734 9.36224 29.6236 8.44396 29.648C8.42896 29.6484 8.41396 29.6484 8.39896 29.6484H8.39807C7.93209 29.648 7.51021 29.4595 7.20505 29.1544C6.89943 28.8487 6.71057 28.4269 6.71057 27.9609V7.23422C6.71057 6.74672 7.10568 6.35156 7.59323 6.35156H25.0321C25.5196 6.35156 25.9147 6.74672 25.9147 7.23422Z" fill="#FAF7F7"/>
<path d="M25.9147 24.7481V26.2734C25.9147 26.2734 9.36224 29.6236 8.44396 29.648C8.42896 29.6484 8.41396 29.6484 8.39896 29.6484H8.39807C7.93209 29.648 7.51021 29.4595 7.20505 29.1544C6.89943 28.8488 6.71057 28.4269 6.71057 27.9609V24.7481H25.9147Z" fill="#DEDBEE"/>
<path d="M25.9152 19.3408V17.4916" stroke="black" stroke-width="0.703125" stroke-miterlimit="10" stroke-linecap="round" stroke-linejoin="round"/>
<path d="M6.71069 10.0527V7.23406C6.71069 6.74656 7.10585 6.35141 7.59335 6.35141H25.0327C25.5202 6.35141 25.9153 6.74656 25.9153 7.23406V15.8516" stroke="black" stroke-width="0.703125" stroke-miterlimit="10" stroke-linecap="round" stroke-linejoin="round"/>
<path d="M6.71045 11.6925V26.2734V27.9609" stroke="black" stroke-width="0.703125" stroke-miterlimit="10" stroke-linecap="round" stroke-linejoin="round"/>
<path d="M25.9149 26.2734V24.7697" stroke="black" stroke-width="0.703125" stroke-miterlimit="10" stroke-linecap="round" stroke-linejoin="round"/>
<path d="M23.3336 23.5283C22.5203 23.5283 21.8608 22.8688 21.8608 22.055C21.8608 21.2413 22.5203 20.5822 23.3336 20.5822C24.1473 20.5822 24.8069 21.2413 24.8069 22.055C24.8069 22.8688 24.1473 23.5283 23.3336 23.5283ZM27.3404 23.1444L26.7409 22.798C26.793 22.5585 26.8211 22.31 26.8211 22.055C26.8211 21.8 26.793 21.5516 26.7409 21.3121L27.3404 20.9657C27.6437 20.7904 27.7478 20.4027 27.5725 20.0989L27.1473 19.3621C26.972 19.0583 26.5839 18.9547 26.2806 19.1296L25.6806 19.476C25.3145 19.1422 24.8767 18.8863 24.3934 18.7321V18.0402C24.3934 17.69 24.1094 17.406 23.7592 17.406H22.908C22.5578 17.406 22.2738 17.69 22.2738 18.0402V18.7321C21.7905 18.8863 21.3526 19.1422 20.9866 19.476L20.387 19.1296C20.0833 18.9547 19.6956 19.0583 19.5203 19.3621L19.0947 20.0989C18.9194 20.4027 19.0235 20.7904 19.3267 20.9657L19.9267 21.3121C19.8747 21.5516 19.8465 21.8 19.8465 22.055C19.8465 22.31 19.8747 22.5585 19.9267 22.798L19.3267 23.1444C19.0235 23.3197 18.9194 23.7079 19.0947 24.0111L19.5203 24.748C19.6956 25.0518 20.0833 25.1554 20.387 24.9805L20.9866 24.6341C21.3526 24.9679 21.7905 25.2238 22.2738 25.378V26.0699C22.2738 26.42 22.5578 26.7041 22.908 26.7041H23.7592C24.1094 26.7041 24.3934 26.42 24.3934 26.0699V25.378C24.8767 25.2238 25.3145 24.9679 25.6806 24.6341L26.2806 24.9805C26.5839 25.1554 26.972 25.0518 27.1473 24.748L27.5725 24.0111C27.7478 23.7079 27.6437 23.3197 27.3404 23.1444Z" fill="#7A6D79"/>
<path d="M24.3601 26.2734C24.3817 26.2097 24.3934 26.1413 24.3934 26.07V25.3781C24.8767 25.2239 25.3145 24.968 25.6806 24.6342L25.915 24.7697L26.2806 24.9806C26.5839 25.1555 26.972 25.0519 27.1473 24.7481L27.5725 24.0113C27.7478 23.708 27.6437 23.3198 27.3404 23.1445L26.7409 22.7981C26.7929 22.5586 26.8211 22.3102 26.8211 22.0552C26.8211 21.8002 26.7929 21.5517 26.7409 21.3122L27.3404 20.9658C27.6437 20.7905 27.7478 20.4028 27.5725 20.0991L27.1473 19.3622C26.972 19.0584 26.5839 18.9548 26.2806 19.1297L25.915 19.3406L25.6806 19.4761C25.3145 19.1423 24.8767 18.8864 24.3934 18.7322V18.0403C24.3934 17.6902 24.1094 17.4061 23.7592 17.4061H22.908C22.5578 17.4061 22.2737 17.6902 22.2737 18.0403V18.7322C21.7905 18.8864 21.3526 19.1423 20.9865 19.4761L20.387 19.1297C20.0833 18.9548 19.6956 19.0584 19.5203 19.3622L19.0947 20.0991C18.9194 20.4028 19.0234 20.7905 19.3267 20.9658L19.9267 21.3122C19.8747 21.5517 19.8465 21.8002 19.8465 22.0552C19.8465 22.3102 19.8747 22.5586 19.9267 22.7981L19.3267 23.1445C19.0234 23.3198 18.9194 23.708 19.0947 24.0113L19.5203 24.7481C19.6956 25.0519 20.0833 25.1555 20.387 24.9806L20.9865 24.6342C21.3526 24.968 21.7905 25.2239 22.2737 25.3781V26.07C22.2737 26.1413 22.2855 26.2097 22.3075 26.2734M23.3336 23.5286C22.5203 23.5286 21.8608 22.869 21.8608 22.0553C21.8608 21.2415 22.5203 20.5825 23.3336 20.5825C24.1473 20.5825 24.8069 21.2415 24.8069 22.0553C24.8069 22.869 24.1473 23.5286 23.3336 23.5286Z" stroke="black" stroke-width="0.703125" stroke-miterlimit="10" stroke-linecap="round" stroke-linejoin="round"/>
<path d="M28.4071 26.2734C28.8946 26.2734 29.2899 26.6687 29.2899 27.1562V27.9609C29.2899 28.4269 29.101 28.8487 28.7958 29.1544C28.4902 29.4595 28.0683 29.6484 27.6024 29.6484H8.39819C9.33002 29.6484 10.0852 28.8928 10.0852 27.9609V27.1562C10.0852 26.6687 10.4804 26.2734 10.968 26.2734H28.4071Z" fill="#FAF7F7"/>
<path d="M8.39795 29.6484H8.39889H16.3794" stroke="black" stroke-width="0.703125" stroke-miterlimit="10" stroke-linecap="round" stroke-linejoin="round"/>
<path d="M18.02 29.6484H27.6022C28.0681 29.6484 28.49 29.4595 28.7956 29.1544C29.1008 28.8488 29.2897 28.4269 29.2897 27.9609V27.1561C29.2897 26.6686 28.8945 26.2734 28.407 26.2734H25.9147H10.9682C10.4806 26.2734 10.085 26.6686 10.085 27.1561L10.0854 27.9337C10.0854 28.8525 9.36217 29.6236 8.44389 29.648C8.42889 29.6484 8.41389 29.6484 8.39889 29.6484H8.39795C7.93248 29.648 7.51061 29.4595 7.20498 29.1544C6.89936 28.8488 6.71045 28.4269 6.71045 27.9609V26.2734" stroke="black" stroke-width="0.703125" stroke-miterlimit="10" stroke-linecap="round" stroke-linejoin="round"/>
<path d="M16.3347 10.8567C16.3347 10.8567 16.6412 11.1651 16.975 10.9798C17.1397 10.8884 17.2391 10.7121 17.2391 10.5237V8.47192" stroke="black" stroke-width="0.703125" stroke-miterlimit="10" stroke-linecap="round" stroke-linejoin="round"/>
<path d="M19.5402 8.49539H18.4684V11.0391H19.5402" stroke="black" stroke-width="0.703125" stroke-miterlimit="10" stroke-linecap="round" stroke-linejoin="round"/>
<path d="M19.4611 9.76855H18.4684" stroke="black" stroke-width="0.703125" stroke-miterlimit="10" stroke-linecap="round" stroke-linejoin="round"/>
<path d="M22.4043 8.69114C22.1994 8.55277 21.9524 8.47191 21.6866 8.47191C20.9777 8.47191 20.4031 9.04659 20.4031 9.75548C20.4031 10.4644 20.9777 11.0391 21.6866 11.0391C21.9745 11.0391 22.2113 10.9443 22.3911 10.7842C22.4283 10.7511 22.463 10.7152 22.4952 10.6767" stroke="black" stroke-width="0.703125" stroke-miterlimit="10" stroke-linecap="round" stroke-linejoin="round"/>
<path d="M23.3997 8.47266H24.8173" stroke="black" stroke-width="0.703125" stroke-miterlimit="10" stroke-linecap="round" stroke-linejoin="round"/>
<path d="M24.1057 8.55389V11.0391" stroke="black" stroke-width="0.703125" stroke-miterlimit="10" stroke-linecap="round" stroke-linejoin="round"/>
<path d="M11.0085 9.81384L12.0869 11.0391" stroke="black" stroke-width="0.703125" stroke-miterlimit="10" stroke-linecap="round" stroke-linejoin="round"/>
<path d="M10.6989 9.13912V11.0391" stroke="black" stroke-width="0.703125" stroke-miterlimit="10" stroke-linecap="round" stroke-linejoin="round"/>
<path d="M12.0869 9.14042C12.0869 9.50891 11.7638 9.80759 11.382 9.80759C11.1926 9.80759 10.7046 9.81055 10.7046 9.81055C10.7046 9.81055 10.7015 9.32614 10.7015 9.14042C10.7015 8.98789 10.6998 8.47325 10.6998 8.47325H11.382C11.7638 8.47325 12.0869 8.77194 12.0869 9.14042Z" stroke="black" stroke-width="0.703125" stroke-miterlimit="10" stroke-linecap="round" stroke-linejoin="round"/>
<path d="M8.18323 9.19636V11.0391" stroke="black" stroke-width="0.703125" stroke-miterlimit="10" stroke-linecap="round" stroke-linejoin="round"/>
<path d="M9.63663 9.19814C9.63663 9.59822 9.2981 9.92259 8.89802 9.92259C8.6996 9.92259 8.1882 9.92578 8.1882 9.92578C8.1882 9.92578 8.18496 9.3998 8.18496 9.19814C8.18496 9.03248 8.18323 8.47369 8.18323 8.47369H8.89802C9.2981 8.47369 9.63663 8.79806 9.63663 9.19814Z" stroke="black" stroke-width="0.703125" stroke-miterlimit="10" stroke-linecap="round" stroke-linejoin="round"/>
<path d="M15.5726 9.75548C15.5726 10.4644 14.998 11.0391 14.2891 11.0391C13.5802 11.0391 13.0055 10.4644 13.0055 9.75548C13.0055 9.04659 13.5802 8.47191 14.2891 8.47191C14.998 8.47191 15.5726 9.04659 15.5726 9.75548Z" stroke="black" stroke-width="0.703125" stroke-miterlimit="10" stroke-linecap="round" stroke-linejoin="round"/>
<path d="M8.97083 12.4473H23.6546" stroke="black" stroke-width="0.703125" stroke-miterlimit="10" stroke-linecap="round" stroke-linejoin="round"/>
<path d="M15.1826 19.1807H9.30375C8.75775 19.1807 8.31506 18.738 8.31506 18.1919V15.0254C8.31506 14.4793 8.75775 14.0366 9.30375 14.0366H15.1826C15.7287 14.0366 16.1714 14.4793 16.1714 15.0254V18.1919C16.1714 18.738 15.7287 19.1807 15.1826 19.1807Z" fill="#FFD15B"/>
<path d="M15.1826 19.1807H9.30375C8.75775 19.1807 8.31506 18.738 8.31506 18.1919V15.0254C8.31506 14.4793 8.75775 14.0366 9.30375 14.0366H15.1826C15.7287 14.0366 16.1714 14.4793 16.1714 15.0254V18.1919C16.1714 18.738 15.7287 19.1807 15.1826 19.1807Z" stroke="black" stroke-width="0.703125" stroke-miterlimit="10" stroke-linecap="round" stroke-linejoin="round"/>
<path d="M17.7612 15.3936H24.3081" stroke="black" stroke-width="0.703125" stroke-miterlimit="10" stroke-linecap="round" stroke-linejoin="round"/>
<path d="M17.7612 16.749H21.7829" stroke="black" stroke-width="0.703125" stroke-miterlimit="10" stroke-linecap="round" stroke-linejoin="round"/>
<path d="M8.31506 20.7705H17.7613" stroke="black" stroke-width="0.703125" stroke-miterlimit="10" stroke-linecap="round" stroke-linejoin="round"/>
<path d="M8.31506 23.4824H17.7613" stroke="black" stroke-width="0.703125" stroke-miterlimit="10" stroke-linecap="round" stroke-linejoin="round"/>
<path d="M8.31506 24.8789H12.8512" stroke="black" stroke-width="0.703125" stroke-miterlimit="10" stroke-linecap="round" stroke-linejoin="round"/>
<path d="M11.7116 16.6557H9.5188V18.0586H11.7116V16.6557Z" fill="#FE646F"/>
<path d="M14.9677 15.3619H12.7749V18.0586H14.9677V15.3619Z" fill="#BBEC6C"/>
<path d="M8.31506 22.1279H18.3692" stroke="black" stroke-width="0.703125" stroke-miterlimit="10" stroke-linecap="round" stroke-linejoin="round"/>
<path d="M11.7116 16.6557H9.5188V18.0586H11.7116V16.6557Z" stroke="black" stroke-width="0.703125" stroke-miterlimit="10" stroke-linecap="round" stroke-linejoin="round"/>
<path d="M14.9677 15.3619H12.7749V18.0586H14.9677V15.3619Z" stroke="black" stroke-width="0.703125" stroke-miterlimit="10" stroke-linecap="round" stroke-linejoin="round"/>
</g>
</g>
<defs>
<clipPath id="clip0_672_2823">
<rect width="24" height="24" fill="white" transform="translate(6.00012 6)"/>
</clipPath>
</defs>
</svg>
