<svg width="41" height="41" viewBox="0 0 41 41" fill="none" xmlns="http://www.w3.org/2000/svg">
<g clip-path="url(#clip0_350_5735)">
<path d="M37.4482 31.4613H6.55175C6.24706 31.4613 6 31.2133 6 30.9074V25.9229H38V30.9074C38 31.2134 37.7529 31.4613 37.4482 31.4613Z" fill="#73AF00"/>
<path d="M37.4482 10.5381H6.55175C6.24706 10.5381 6 10.7841 6 11.0876V25.9227H38V11.0876C38 10.7841 37.7529 10.5381 37.4482 10.5381Z" fill="#FF4B55"/>
<path d="M10.3077 31.4612H6.53848C6.24112 31.4612 6 31.2146 6 30.9105V11.0887C6 10.7846 6.24112 10.5381 6.53848 10.5381H10.3077V31.4612Z" fill="#F5F5F5"/>
<path d="M6.61548 30.4851H6.79686V29.9429H6.61548V30.4851ZM8.06316 30.4851H8.2446V29.9429H8.06316V30.4851ZM9.51178 30.4851H9.69234V29.9429H9.51178V30.4851ZM7.34025 29.0314H7.51983V28.5795H7.34025V29.0314ZM8.78881 29.0314H8.96937V28.5795H8.78881V29.0314ZM6.61548 27.8527H6.79686V27.3105H6.61548V27.8527ZM8.06316 27.8527H8.2446V27.3105H8.06316V27.8527ZM9.51178 27.8527H9.69234V27.3105H9.51178V27.8527ZM6.97923 28.5795H7.15881V28.1236H7.34025V27.6718H7.51983V28.1236H7.7022V28.5795H7.88178V29.0314H7.7022V29.4871H7.51983V29.9428H7.34025V29.4871H7.15881V29.0314H6.97923V28.5795ZM8.42697 28.5795H8.60835V28.1236H8.78886V27.6718H8.96943V28.1236H9.14994V28.5795H9.33132V29.0314H9.14994V29.4871H8.96943V29.9428H8.78886V29.4871H8.60835V29.0314H8.42697V28.5795ZM8.78881 26.7643V27.2161H8.60655V27.6718H8.42697V28.1237H8.2446V28.5796H8.06316V28.1237H7.88172V27.6718H7.70214V27.2161H7.51977V26.7643H7.34019V27.2161H7.15875V27.6718H6.97917V28.1237H6.7968V28.5796H6.61548V29.0314H6.79686V29.4871H6.97923V29.9428H7.15881V30.3947H7.34025V30.8466H7.52169V30.3947H7.7022V29.9428H7.88178V29.4871H8.06322V29.0314H8.24466V29.4871H8.42703V29.9428H8.60841V30.3947H8.78892V30.8466H8.96949V30.3947H9.15V29.9428H9.33138V29.4871H9.51282V29.0314H9.6924V28.5796H9.51183V28.1237H9.33138V27.6718H9.15V27.2161H8.96949V26.7643H8.78881ZM9.23732 26.3126H9.32761V26.1319H9.41876V26.3126H9.50992V26.4932H9.41876V26.6779H9.32761V26.4932H9.23732V26.3126ZM9.23732 25.6799V25.9472H9.14802V26.2222H9.05687V26.5837H9.14802V26.8547H9.23732V27.1257H9.50997V26.8547H9.60026V26.5837H9.68956V26.2222H9.60026V25.9472H9.50997V25.6799H9.23732ZM6.79686 26.3085H6.88802V26.1279H6.97917V26.3085H7.06754V26.4932H6.97917V26.6739H6.88802V26.4932H6.79686V26.3085ZM6.79686 25.6759V25.9471H6.70658V26.2181H6.61548V26.5835H6.70658V26.8546H6.79686V27.1256H7.0676V26.8546H7.15875V26.5835H7.24724V26.2181H7.15875V25.9471H7.0676V25.6759H6.79686ZM7.79237 26.3085H7.88166V26.1279H7.97381V26.3085H8.0631V26.4932H7.97381V26.6739H7.88166V26.4932H7.79237V26.3085ZM8.2446 26.3085H8.33576V26.1279H8.42691V26.3085H8.51621V26.4932H8.42691V26.6739H8.33576V26.4932H8.2446V26.3085ZM8.2446 25.6759V25.9471H8.06316V25.6759H7.79243V25.9471H7.70214V26.2181H7.61099V26.5835H7.70214V26.8546H7.79243V27.1256H8.06316V26.8546H8.2446V27.1256H8.51627V26.8546H8.60835V26.5835H8.69684V26.2181H8.60835V25.9471H8.51627V25.6759H8.2446ZM6.61548 25.4913H6.79686V24.9491H6.61548V25.4913ZM8.06316 25.4913H8.2446V24.9491H8.06316V25.4913ZM9.51178 25.4913H9.69234V24.9491H9.51178V25.4913ZM6.61548 23.2242H6.79686V22.8628H6.61548V23.2242ZM9.51178 23.2242H9.69234V22.8628H9.51178V23.2242ZM8.06316 21.9551H8.2446V21.5033H8.06316V21.9551ZM6.61548 20.7294V21.0004V21.0043V21.2754H6.79686V21.0043V21.0004V20.7294H6.61548ZM7.61093 20.7294V21.0004V21.0043V21.2754H7.79237V21.0043V21.0004V20.7294H7.61093ZM8.51627 20.7294V21.0004V21.0043V21.2754H8.69678V21.0043V21.0004V20.7294H8.51627ZM9.51178 20.7294V21.0004V21.0043V21.2754H9.69234V21.0043V21.0004V20.7294H9.51178ZM8.33576 20.4112V20.5919H8.2446V20.7294H8.06316V20.5919H7.97387V20.4112H7.79243V20.6822H7.88172V20.8197H7.97387V21.0004V21.0043V21.1812H7.88172V21.3187H7.79243V21.5897H7.97387V21.4091H8.06316V21.2754H8.2446V21.4091H8.33576V21.5897H8.51627V21.3187H8.42697V21.1812H8.33582V21.0043V21.0004V20.8197H8.42697V20.6822H8.51627V20.4112H8.33576ZM8.06316 20.5014H8.2446V20.0496H8.06316V20.5014ZM6.61548 19.1419H6.79686V18.7806H6.61548V19.1419ZM9.51178 19.1419H9.69234V18.7806H9.51178V19.1419ZM6.61548 17.0557H6.79686V16.5096H6.61548V17.0557ZM8.06316 17.0557H8.2446V16.5096H8.06316V17.0557ZM9.51178 17.0557H9.69234V16.5096H9.51178V17.0557ZM7.34025 21.0083V20.9965V20.8197H7.51983V20.5053H7.7022V20.1399H7.97387V19.7117H8.06316V19.5034H8.15438H8.2446V19.7078H8.33576V20.14H8.60829V20.3207V20.5053H8.78881V20.8197H8.96937V21.0004V21.1811H8.78881V21.5033H8.60829V21.684V21.8647H8.33576V22.293H8.2446V22.4973H8.15438H8.06316V22.293H7.97387V21.8647H7.7022V21.5031H7.51983V21.181H7.34025V21.0083ZM8.78881 15.9635V16.4192H8.60655V16.871H8.42697V17.3269H8.2446V17.6883V17.7787H8.06316V17.3268H7.88172V16.871H7.70214V16.4191H7.51977V15.9634H7.34019V16.4191H7.15875V16.871H6.97731V17.3268H6.7968V17.6882V17.7786H6.61548V18.2343H6.79686V18.69H6.97737V19.1419H7.15881V19.5938H7.34025V19.1419H7.51983V18.69H7.7022V18.2343H7.51983V17.6882H7.7022V17.7786V18.0536H7.88178V18.7805H7.97392V19.2284L7.70226 19.2323V19.5938H7.51989V19.8648H7.34031V20.3205H7.15887V19.8648H6.97743V19.5938H6.79692V19.3226H6.61548V20.1398H6.79686V20.5052H6.97737V20.8196H7.15881V21.0004V21.0043V21.1812H6.97737V21.5033H6.79686V21.8648H6.61548V22.682H6.79686V22.407H6.97737V22.1359H7.15881V21.6841H7.34025V22.1359H7.51983V22.407H7.7022V22.7724L7.97387 22.7763V23.2242H7.88172V23.9511H7.70214V24.2221V24.3165H7.51977V23.7664H7.70214V23.3146H7.51977V22.8627H7.34019V22.4069H7.15875V22.8627H6.97731V23.3146H6.7968V23.7664H6.61548V24.2221H6.79686V24.3165V24.674H6.97923V25.1299H7.15881V25.5856H7.34025V26.0374H7.51983V25.5856H7.7022V25.1299H7.88178V24.674H8.06322V24.2221H8.24466V24.3165V24.674H8.42703V25.1299H8.60841V25.5856H8.78892V26.0374H8.96949V25.5856H9.15V25.1299H9.33138V24.674H9.51183V24.2221H9.69234V23.7664H9.51178V23.3146H9.33132V22.8627H9.14994V22.4069H8.96943V22.8627H8.78886V23.3146H8.60661V23.7664H8.78886V24.2221V24.3165H8.60661V24.2221V23.9511H8.42703V23.2242H8.40118H8.33587V22.7723H8.40118H8.45004H8.51633H8.60841V22.4069H8.78892V22.1359H8.96949V21.684H9.15V22.1359H9.33138V22.4069H9.51282V22.682H9.6924V21.8648H9.51276V21.5033H9.33132V21.1811H9.14994V21.0043V21.0004V20.8197H9.33132V20.5054H9.51276V20.14H9.6924V19.3228H9.51276V19.5939H9.33132V19.865H9.14994V20.3207H8.96943V19.865H8.78886V19.5939H8.60835V19.2324H8.51627H8.44998H8.40112H8.33582V18.7806H8.40112H8.42697V18.0536H8.60655V17.7786V17.6882H8.78881V17.7786V18.2343H8.60655V18.69H8.78881V19.1419H8.96937V19.5938H9.14988V19.1419H9.33127V18.69H9.51172V18.2343H9.6924V17.7786H9.51183V17.3268H9.33138V16.8709H9.15V16.419H8.96949V15.9633H8.78881V15.9635ZM6.79686 15.5116H6.88627V15.3309H6.97923V15.5116H7.0676V15.6923H6.97923V15.877H6.88627V15.6923H6.79686V15.5116ZM6.79686 15.1462H6.70658V15.4212H6.61548V15.7827H6.70658V16.0577H6.79686V16.3289H7.0676V16.0577H7.15875V15.7827H7.24724V15.4212H7.15875V15.1462H7.0676V14.8791H6.79686V15.1462ZM7.79237 15.5116H7.88166V15.3309H7.97381V15.5116H8.0631V15.6923H7.97381V15.877H7.88166V15.6923H7.79237V15.5116ZM8.2446 15.5116H8.33576V15.3309H8.42691V15.5116H8.51621V15.6923H8.42691V15.877H8.33576V15.6923H8.2446V15.5116ZM7.79237 15.1462H7.70208V15.4212H7.61093V15.7827H7.70208V16.0577H7.79237V16.3289H8.0631V16.0577H8.24454V16.3289H8.51621V16.0577H8.60829V15.7827H8.69678V15.4212H8.60829V15.1462H8.51621V14.8791H8.24454V15.1462H8.0631V14.8791H7.79237V15.1462ZM9.23732 15.5077H9.32761V15.3309H9.41876V15.5077H9.50992V15.6924H9.41876V15.873H9.32761V15.6924H9.23732V15.5077ZM9.23732 14.8752V15.1462H9.14802V15.4212H9.05687V15.7827H9.14802V16.0537H9.23732V16.3249H9.50997V16.0537H9.60026V15.7827H9.68956V15.4212H9.60026V15.1462H9.50997V14.8752H9.23732ZM6.61548 14.6944H6.79686V14.1522H6.61548V14.6944ZM8.06316 14.6944H8.2446V14.1522H8.06316V14.6944ZM9.51178 14.6944H9.69234V14.1522H9.51178V14.6944ZM7.34025 13.4253H7.51983V12.9695H7.34025V13.4253ZM8.78881 13.4253H8.96937V12.9695H8.78881V13.4253ZM6.61548 12.062H6.79686V11.5198H6.61548V12.062ZM8.06316 12.062H8.2446V11.5198H8.06316V12.062ZM9.51178 12.062H9.69234V11.5198H9.51178V12.062ZM6.97923 12.9695H7.15881V12.5177H7.34025V12.062H7.51983V12.5177H7.7022V12.9695H7.88178V13.4254H7.7022V13.8773H7.51983V14.333H7.34025V13.8773H7.15881V13.4254H6.97923V12.9695ZM8.42697 12.9695H8.60835V12.5177H8.78886V12.062H8.96943V12.5177H9.14994V12.9695H9.33132V13.4254H9.14994V13.8773H8.96943V14.333H8.78886V13.8773H8.60835V13.4254H8.42697V12.9695ZM8.78881 11.1543V11.6102H8.60829V12.062H8.42691V12.5177H8.24454V12.9696H8.0631V12.5177H7.88166V12.062H7.70208V11.6102H7.52163V11.1543H7.34019V11.6102H7.15875V12.062H6.97917V12.5177H6.7968V12.9696H6.61548V13.4255H6.79686V13.8773H6.97923V14.333H7.15881V14.7887H7.34025V15.2406H7.51983V14.7887H7.7022V14.333H7.88178V13.8773H8.06322V13.4255H8.24466V13.8773H8.42703V14.333H8.60661V14.7887H8.78886V15.2406H8.96943V14.7887H9.14994V14.333H9.33132V13.8773H9.51178V13.4255H9.69234V12.9696H9.51271V12.5177H9.33127V12.062H9.14988V11.6102H8.96937V11.1543H8.78881Z" fill="#FF4B55"/>
</g>
<defs>
<clipPath id="clip0_350_5735">
<rect width="28.8079" height="28.8079" fill="white" transform="translate(6.20703 6.07227)"/>
</clipPath>
</defs>
</svg>
