<svg width="41" height="42" viewBox="0 0 41 42" fill="none" xmlns="http://www.w3.org/2000/svg">
<g clip-path="url(#clip0_350_5802)">
<path d="M5.16381 31.611H36.0603C36.365 31.611 36.6121 31.364 36.6121 31.0593V11.1973C36.6121 10.8926 36.365 10.6455 36.0603 10.6455H5.16381C4.85912 10.6456 4.61206 10.8926 4.61206 11.1973V31.0593C4.61206 31.364 4.85912 31.611 5.16381 31.611Z" fill="#C8414B"/>
<path d="M36.612 15.0596H4.61206V27.1977H36.612V15.0596Z" fill="#FFD250"/>
<path d="M18.1294 21.1283L18.5972 19.0233C18.6403 18.8294 18.4927 18.6455 18.2941 18.6455H17.9646C17.766 18.6455 17.6185 18.8294 17.6615 19.0233L18.1294 21.1283Z" fill="#C8414B"/>
<path d="M18.6811 20.0244H17.5776V24.7138H18.6811V20.0244Z" fill="#F5F5F5"/>
<path d="M18.9565 19.4727H17.3013V20.0244H18.9565V19.4727Z" fill="#FAB446"/>
<path d="M18.958 21.1279H16.1992V21.6797H18.958V21.1279Z" fill="#C8414B"/>
<path d="M18.9579 23.3349L17.3027 22.7832V22.2314L18.9579 22.7832V23.3349Z" fill="#C8414B"/>
<path d="M9.85446 21.1283L10.3223 19.0233C10.3654 18.8294 10.2178 18.6455 10.0192 18.6455H9.68971C9.49114 18.6455 9.34364 18.8294 9.38664 19.0233L9.85446 21.1283Z" fill="#C8414B"/>
<path d="M11.7847 19.4727C11.48 19.4727 11.2329 19.7197 11.2329 20.0244V23.6106C11.2329 24.2809 11.8585 25.5416 13.9915 25.5416C16.1245 25.5416 16.7502 24.281 16.7502 23.6106V20.0244C16.7502 19.7197 16.5031 19.4727 16.1984 19.4727H11.7847Z" fill="#F5F5F5"/>
<path d="M13.9925 22.2313H11.2339V20.0244C11.2339 19.7197 11.4809 19.4727 11.7856 19.4727H13.9925V22.2313Z" fill="#C8414B"/>
<path d="M13.9927 22.2314H16.7513V23.6108C16.7513 24.3726 16.1338 24.9901 15.372 24.9901C14.6102 24.9901 13.9927 24.3726 13.9927 23.6108V22.2314Z" fill="#C8414B"/>
<path d="M11.2329 22.2314H13.9915V23.6108C13.9915 24.3726 13.374 24.9901 12.6122 24.9901C11.8504 24.9901 11.2329 24.3726 11.2329 23.6108V22.2314Z" fill="#FAB446"/>
<path d="M13.4387 24.708V22.2314H12.887V24.9623C13.0922 24.9206 13.2776 24.8298 13.4387 24.708Z" fill="#C8414B"/>
<path d="M12.3352 24.9623V22.2314H11.7834V24.708C11.9446 24.8298 12.13 24.9206 12.3352 24.9623Z" fill="#C8414B"/>
<path d="M13.4399 21.1279H11.7847V21.6797H13.4399V21.1279Z" fill="#FFB441"/>
<path d="M13.4399 20.0244H11.7847V20.5762H13.4399V20.0244Z" fill="#FAB446"/>
<path d="M13.1633 20.3525H12.0598V21.352H13.1633V20.3525Z" fill="#FAB446"/>
<path d="M10.4049 20.0244H9.30151V24.7138H10.4049V20.0244Z" fill="#F5F5F5"/>
<path d="M10.6798 24.4385H9.02466V24.9902H10.6798V24.4385Z" fill="#FAB446"/>
<path d="M10.6798 19.4727H9.02466V20.0244H10.6798V19.4727Z" fill="#FAB446"/>
<path d="M10.9571 24.9902H8.75024V25.542H10.9571V24.9902Z" fill="#5064AA"/>
<path d="M19.2328 24.4385H17.5776V24.9902H19.2328V24.4385Z" fill="#FAB446"/>
<path d="M19.2325 24.9902H17.0256V25.542H19.2325V24.9902Z" fill="#5064AA"/>
<path d="M15.6468 18.9209H12.3364V19.4726H15.6468V18.9209Z" fill="#FAB446"/>
<path d="M14.2676 17.2666H13.7158V18.9218H14.2676V17.2666Z" fill="#FFB441"/>
<path d="M13.4396 18.0936C12.9832 18.0936 12.6121 17.7224 12.6121 17.266C12.6121 16.8097 12.9833 16.4385 13.4396 16.4385C13.896 16.4385 14.2672 16.8097 14.2672 17.266C14.2672 17.7224 13.896 18.0936 13.4396 18.0936ZM13.4396 16.9902C13.2874 16.9902 13.1637 17.1138 13.1637 17.266C13.1637 17.4182 13.2874 17.5419 13.4396 17.5419C13.5919 17.5419 13.7155 17.4183 13.7155 17.266C13.7155 17.1139 13.5919 16.9902 13.4396 16.9902Z" fill="#F5F5F5"/>
<path d="M14.5429 18.0936C14.0865 18.0936 13.7153 17.7224 13.7153 17.266C13.7153 16.8097 14.0866 16.4385 14.5429 16.4385C14.9993 16.4385 15.3705 16.8097 15.3705 17.266C15.3705 17.7224 14.9992 18.0936 14.5429 18.0936ZM14.5429 16.9902C14.3907 16.9902 14.267 17.1138 14.267 17.266C14.267 17.4182 14.3906 17.5419 14.5429 17.5419C14.6951 17.5419 14.8188 17.4183 14.8188 17.266C14.8187 17.1139 14.6951 16.9902 14.5429 16.9902Z" fill="#F5F5F5"/>
<path d="M15.6467 18.6454C15.1903 18.6454 14.8191 18.2741 14.8191 17.8178C14.8191 17.3614 15.1903 16.9902 15.6467 16.9902C16.103 16.9902 16.4742 17.3615 16.4742 17.8178C16.4742 18.2741 16.103 18.6454 15.6467 18.6454ZM15.6467 17.5419C15.4945 17.5419 15.3708 17.6655 15.3708 17.8178C15.3708 17.97 15.4944 18.0937 15.6467 18.0937C15.7988 18.0937 15.9225 17.97 15.9225 17.8178C15.9225 17.6655 15.7988 17.5419 15.6467 17.5419Z" fill="#F5F5F5"/>
<path d="M12.3361 18.6454C11.8797 18.6454 11.5085 18.2741 11.5085 17.8178C11.5085 17.3614 11.8798 16.9902 12.3361 16.9902C12.7925 16.9902 13.1637 17.3615 13.1637 17.8178C13.1637 18.2741 12.7925 18.6454 12.3361 18.6454ZM12.3361 17.5419C12.1839 17.5419 12.0602 17.6655 12.0602 17.8178C12.0602 17.97 12.1839 18.0937 12.3361 18.0937C12.4884 18.0937 12.612 17.97 12.612 17.8177C12.612 17.6655 12.4884 17.5419 12.3361 17.5419Z" fill="#F5F5F5"/>
<path d="M15.6465 23.3349V23.6108C15.6465 23.7629 15.5227 23.8866 15.3706 23.8866C15.2185 23.8866 15.0947 23.7629 15.0947 23.6108V23.3349H15.6465ZM16.1982 22.7832H14.543V23.6108C14.543 24.0671 14.9142 24.4383 15.3705 24.4383C15.8269 24.4383 16.1981 24.0671 16.1981 23.6108V22.7832H16.1982Z" fill="#FAB446"/>
<path d="M15.3708 21.6797C15.0662 21.6797 14.8191 21.4326 14.8191 21.1279V20.5762C14.8191 20.2715 15.0662 20.0244 15.3708 20.0244C15.6755 20.0244 15.9226 20.2715 15.9226 20.5762V21.1279C15.9226 21.4326 15.6755 21.6797 15.3708 21.6797Z" fill="#FFA0D2"/>
<path d="M13.9914 23.0584C14.4484 23.0584 14.8189 22.6879 14.8189 22.2309C14.8189 21.7738 14.4484 21.4033 13.9914 21.4033C13.5343 21.4033 13.1638 21.7738 13.1638 22.2309C13.1638 22.6879 13.5343 23.0584 13.9914 23.0584Z" fill="#5064AA"/>
<path d="M14.2676 16.1621H13.7158V17.8173H14.2676V16.1621Z" fill="#FAB446"/>
<path d="M12.3362 18.9208L11.7844 18.3691L12.1076 18.0459C12.6072 17.5463 13.2848 17.2656 13.9914 17.2656C14.6979 17.2656 15.3755 17.5463 15.8751 18.0459L16.1983 18.3691L15.6465 18.9208H12.3362Z" fill="#C8414B"/>
<path d="M13.9907 18.6455C14.1431 18.6455 14.2666 18.522 14.2666 18.3696C14.2666 18.2173 14.1431 18.0938 13.9907 18.0938C13.8384 18.0938 13.7148 18.2173 13.7148 18.3696C13.7148 18.522 13.8384 18.6455 13.9907 18.6455Z" fill="#FFD250"/>
<path d="M12.887 18.6455C13.0393 18.6455 13.1628 18.522 13.1628 18.3696C13.1628 18.2173 13.0393 18.0938 12.887 18.0938C12.7346 18.0938 12.6111 18.2173 12.6111 18.3696C12.6111 18.522 12.7346 18.6455 12.887 18.6455Z" fill="#FFD250"/>
<path d="M15.0937 18.6455C15.2461 18.6455 15.3696 18.522 15.3696 18.3696C15.3696 18.2173 15.2461 18.0938 15.0937 18.0938C14.9414 18.0938 14.8179 18.2173 14.8179 18.3696C14.8179 18.522 14.9414 18.6455 15.0937 18.6455Z" fill="#FFD250"/>
<path d="M11.7834 21.1279H9.02466V21.6797H11.7834V21.1279Z" fill="#C8414B"/>
<path d="M9.02466 23.3349L10.6798 22.7832V22.2314L9.02466 22.7832V23.3349Z" fill="#C8414B"/>
</g>
<defs>
<clipPath id="clip0_350_5802">
<rect width="32" height="32" fill="white" transform="translate(4.61108 5.12793)"/>
</clipPath>
</defs>
</svg>
