<svg width="41" height="41" viewBox="0 0 41 41" fill="none" xmlns="http://www.w3.org/2000/svg">
<g clip-path="url(#clip0_350_5720)">
<path d="M36.0595 31.0769H5.16308C4.85839 31.0769 4.61133 30.8298 4.61133 30.5251V10.6631C4.61133 10.3584 4.85839 10.1113 5.16308 10.1113H36.0596C36.3643 10.1113 36.6113 10.3584 36.6113 10.6631V30.5251C36.6113 30.8299 36.3642 31.0769 36.0595 31.0769Z" fill="#FF4B55"/>
<path d="M26.447 22.2394C26.447 22.2394 25.3479 22.0561 24.5337 21.3809C24.2935 21.1818 23.945 21.0296 23.6055 20.9171C23.8784 20.9049 24.1679 20.9126 24.4415 20.9679C25.5747 21.197 26.6735 20.6469 26.6735 20.6469C26.6735 20.6469 25.5648 20.7588 24.602 20.3211C24.3415 20.2028 24.0038 20.147 23.6741 20.1235C23.9112 20.0553 24.1628 20.0019 24.4113 19.9882C25.5657 19.9242 26.4903 19.1149 26.4903 19.1149C26.4903 19.1149 25.4457 19.5026 24.4036 19.3218C24.1001 19.2691 23.7275 19.3086 23.3808 19.3783C23.6089 19.235 23.86 19.1011 24.1206 19.0149C25.2182 18.6518 25.8995 17.6291 25.8995 17.6291C25.8995 17.6291 24.9923 18.2761 23.9391 18.3737C23.6263 18.4026 23.2701 18.5431 22.9487 18.7048C23.1341 18.5014 23.3458 18.3002 23.5802 18.1447C24.5435 17.5054 24.9316 16.3394 24.9316 16.3394C24.9316 16.3394 24.2268 17.2025 23.2363 17.5739C22.9663 17.6751 22.6865 17.8779 22.4352 18.0964C22.5553 17.878 22.6965 17.6596 22.8643 17.4719C23.6348 16.61 23.7156 15.3839 23.7156 15.3839C23.7156 15.3839 23.2517 16.397 22.3873 17.0066C22.1353 17.1843 21.8998 17.4761 21.704 17.7709C21.7638 17.5081 21.8465 17.2354 21.9698 16.9898C22.4885 15.9564 22.2463 14.7518 22.2463 14.7518C22.2463 14.7518 22.0631 15.8509 21.3879 16.6651C21.1887 16.9053 21.0365 17.2538 20.924 17.5934C20.9119 17.3205 20.9195 17.031 20.9748 16.7574C21.204 15.6242 20.6539 14.5254 20.6539 14.5254C20.6539 14.5254 20.7658 15.6341 20.328 16.5969C20.2097 16.8574 20.1539 17.1951 20.1304 17.5248C20.0622 17.2877 20.0088 17.0361 19.9951 16.7876C19.9311 15.6332 19.1218 14.7086 19.1218 14.7086C19.1218 14.7086 19.5095 15.7532 19.3287 16.7953C19.276 17.0988 19.3155 17.4714 19.3852 17.8181C19.2419 17.5901 19.108 17.3389 19.0218 17.0783C18.6587 15.9807 17.636 15.2995 17.636 15.2995C17.636 15.2995 18.283 16.2066 18.3806 17.2598C18.4095 17.5726 18.55 17.9289 18.7117 18.2503C18.5084 18.0648 18.3072 17.8531 18.1516 17.6187C17.5123 16.6554 16.3463 16.2674 16.3463 16.2674C16.3463 16.2674 17.2094 16.9722 17.5808 17.9626C17.682 18.2326 17.8848 18.5125 18.1033 18.7638C17.8849 18.6436 17.6665 18.5024 17.4788 18.3347C16.6169 17.5641 15.3908 17.4833 15.3908 17.4833C15.3908 17.4833 16.4039 17.9473 17.0135 18.8117C17.1911 19.0636 17.4829 19.2992 17.7777 19.4951C17.5148 19.4352 17.2422 19.3525 16.9966 19.2292C15.9633 18.7105 14.7586 18.9527 14.7586 18.9527C14.7586 18.9527 15.8577 19.1359 16.6719 19.8111C16.9121 20.0103 17.2607 20.1625 17.6003 20.275C17.3273 20.2871 17.0378 20.2795 16.7643 20.2242C15.631 19.9951 14.5322 20.5451 14.5322 20.5451C14.5322 20.5451 15.6409 20.4333 16.6038 20.871C16.8642 20.9894 17.202 21.0451 17.5317 21.0686C17.2945 21.1368 17.0429 21.1902 16.7945 21.2039C15.64 21.2679 14.7154 22.0773 14.7154 22.0773C14.7154 22.0773 15.76 21.6895 16.8022 21.8703C17.1057 21.923 17.4782 21.8836 17.825 21.8139C17.5969 21.9571 17.3458 22.091 17.0852 22.1772C15.9875 22.5404 15.3063 23.5631 15.3063 23.5631C15.3063 23.5631 16.2135 22.916 17.2667 22.8184C17.5794 22.7895 17.9357 22.6491 18.2571 22.4873C18.0717 22.6906 17.86 22.8919 17.6255 23.0474C16.6622 23.6867 16.2742 24.8527 16.2742 24.8527C16.2742 24.8527 16.979 23.9896 17.9694 23.6182C18.2393 23.517 18.5192 23.3142 18.7705 23.0957C18.6504 23.3141 18.5092 23.5326 18.3415 23.7201C17.571 24.5821 17.4902 25.8082 17.4902 25.8082C17.4902 25.8082 17.9541 24.7951 18.8185 24.1855C19.0705 24.0077 19.306 23.716 19.5019 23.4212C19.442 23.6841 19.3593 23.9567 19.236 24.2024C18.7173 25.2357 18.9595 26.4404 18.9595 26.4404C18.9595 26.4404 19.1428 25.3412 19.818 24.5271C20.0172 24.2869 20.1693 23.9383 20.2818 23.5987C20.294 23.8717 20.2863 24.1612 20.231 24.4347C20.0019 25.568 20.552 26.6667 20.552 26.6667C20.552 26.6667 20.4401 25.5581 20.8778 24.5952C20.9962 24.3348 21.052 23.997 21.0755 23.6674C21.1437 23.9045 21.197 24.1561 21.2108 24.4046C21.2748 25.559 22.0841 26.4836 22.0841 26.4836C22.0841 26.4836 21.6963 25.4389 21.8772 24.3969C21.9298 24.0934 21.8904 23.7208 21.8207 23.3741C21.964 23.6022 22.0978 23.8532 22.184 24.1139C22.5472 25.2115 23.5699 25.8927 23.5699 25.8927C23.5699 25.8927 22.9228 24.9856 22.8253 23.9323C22.7963 23.6196 22.6559 23.2632 22.4942 22.9419C22.6975 23.1273 22.8987 23.339 23.0543 23.5734C23.6936 24.5367 24.8595 24.9248 24.8595 24.9248C24.8595 24.9248 23.9965 24.22 23.6251 23.2296C23.5238 22.9596 23.3211 22.6797 23.1026 22.4285C23.3209 22.5486 23.5393 22.6898 23.727 22.8574C24.5889 23.628 25.815 23.7088 25.815 23.7088C25.815 23.7088 24.8019 23.2449 24.1923 22.3804C24.0146 22.1284 23.7228 21.8929 23.428 21.6971C23.6908 21.7569 23.9634 21.8396 24.2091 21.9629C25.2423 22.4816 26.447 22.2394 26.447 22.2394ZM20.6099 23.3954C19.0628 23.3954 17.8087 22.1413 17.8087 20.5943C17.8087 19.0472 19.0628 17.7931 20.6099 17.7931C22.157 17.7931 23.4111 19.0472 23.4111 20.5943C23.4111 22.1413 22.157 23.3954 20.6099 23.3954Z" fill="#FFE15A"/>
<path d="M19.7223 19.4606C19.782 19.414 19.8415 19.3672 19.9019 19.3255C19.505 19.145 19.1477 19.0583 18.8971 19.0195C18.8572 19.0629 18.8212 19.1095 18.7847 19.1557C19.0308 19.2035 19.3615 19.2948 19.7223 19.4606Z" fill="#FFE15A"/>
<path d="M19.0176 18.8961C19.2869 18.9265 19.6768 19.0067 20.1093 19.1927C20.1818 19.1495 20.254 19.1112 20.3262 19.0743C19.8591 18.8826 19.4375 18.8111 19.1473 18.7891C19.1037 18.8244 19.0585 18.8577 19.0176 18.8961Z" fill="#FFE15A"/>
<path d="M20.4199 20.1948C20.3641 20.142 20.3075 20.0921 20.2504 20.0449C19.726 20.544 19.2672 21.272 19.0601 22.3282C19.1354 22.3955 19.2101 22.4637 19.2937 22.521C19.4459 21.4468 19.8919 20.7054 20.4199 20.1948Z" fill="#FFE15A"/>
<path d="M20.2164 19.7304C20.2759 19.6826 20.3353 19.6346 20.3955 19.5919C20.3221 19.5451 20.249 19.5039 20.1761 19.4639C20.1137 19.5066 20.0512 19.548 19.9895 19.5961C20.065 19.6376 20.1405 19.6819 20.2164 19.7304Z" fill="#FFE15A"/>
<path d="M21.6658 19.5951C22.1154 19.99 22.5264 20.5461 22.8188 21.3171C22.8939 21.0882 22.9446 20.8482 22.9446 20.5942C22.9446 20.1119 22.7981 19.664 22.5475 19.292C22.3156 19.3381 22.0043 19.4282 21.6658 19.5951Z" fill="#FFE15A"/>
<path d="M20.4368 19.8806C20.4953 19.9241 20.5527 19.9732 20.6103 20.0215C20.6679 19.9731 20.7253 19.9241 20.7839 19.8806C20.7263 19.8326 20.6688 19.7853 20.6103 19.7422C20.5519 19.7854 20.4945 19.8326 20.4368 19.8806Z" fill="#FFE15A"/>
<path d="M20.6103 19.2041C20.537 19.2413 20.4636 19.2832 20.3899 19.3268C20.4633 19.3654 20.5365 19.4068 20.6103 19.4521C20.6841 19.4069 20.7575 19.3655 20.8308 19.3268C20.757 19.2832 20.6836 19.2413 20.6103 19.2041Z" fill="#FFE15A"/>
<path d="M18.8059 22.058C19.0528 21.0496 19.5183 20.3587 20.0392 19.8835C19.9664 19.832 19.8939 19.7848 19.8211 19.7412C19.3198 20.182 18.8662 20.819 18.5867 21.7368C18.6511 21.8506 18.7239 21.9572 18.8059 22.058Z" fill="#FFE15A"/>
<path d="M19.5548 19.5951C19.2163 19.4282 18.9049 19.3382 18.673 19.292C18.4224 19.664 18.2759 20.1119 18.2759 20.5942C18.2759 20.8482 18.3266 21.0882 18.4017 21.3171C18.6942 20.5461 19.1051 19.9901 19.5548 19.5951Z" fill="#FFE15A"/>
<path d="M20.6104 18.9424C21.107 18.7372 21.5651 18.6643 21.891 18.6451C21.523 18.4028 21.0838 18.2598 20.6104 18.2598C20.137 18.2598 19.6978 18.4029 19.3298 18.6451C19.6556 18.6643 20.1138 18.7371 20.6104 18.9424Z" fill="#FFE15A"/>
<path d="M20.6102 20.3916C20.1447 20.9075 19.7604 21.6483 19.6357 22.7092C19.9331 22.8465 20.2612 22.9284 20.6102 22.9284C20.9594 22.9284 21.2874 22.8465 21.5847 22.7092C21.4601 21.6483 21.0758 20.9075 20.6102 20.3916Z" fill="#FFE15A"/>
<path d="M21.4 19.7412C21.3273 19.785 21.2548 19.832 21.1819 19.8835C21.7028 20.3586 22.1683 21.0496 22.4153 22.058C22.4972 21.9571 22.57 21.8506 22.6344 21.7368C22.355 20.8191 21.9013 20.182 21.4 19.7412Z" fill="#FFE15A"/>
<path d="M22.1607 22.3282C21.9535 21.272 21.4947 20.5441 20.9703 20.0449C20.9132 20.0921 20.8567 20.142 20.8008 20.1948C21.3288 20.7054 21.7748 21.4468 21.927 22.5209C22.0106 22.4637 22.0853 22.3955 22.1607 22.3282Z" fill="#FFE15A"/>
<path d="M20.8945 19.0744C20.9668 19.1113 21.039 19.1496 21.1114 19.1928C21.544 19.0067 21.9338 18.9266 22.2032 18.8961C22.1623 18.8577 22.117 18.8245 22.0734 18.7891C21.7832 18.8112 21.3616 18.8827 20.8945 19.0744Z" fill="#FFE15A"/>
<path d="M21.0043 19.7304C21.0802 19.6819 21.1557 19.6377 21.2312 19.5961C21.1696 19.548 21.107 19.5066 21.0446 19.4639C20.9717 19.504 20.8986 19.5451 20.8252 19.5919C20.8854 19.6346 20.9448 19.6827 21.0043 19.7304Z" fill="#FFE15A"/>
<path d="M21.4983 19.4605C21.8591 19.2947 22.1898 19.2035 22.4358 19.1557C22.3992 19.1095 22.3633 19.0628 22.3234 19.0195C22.0727 19.0583 21.7155 19.145 21.3186 19.3255C21.3791 19.367 21.4386 19.4139 21.4983 19.4605Z" fill="#FFE15A"/>
</g>
<defs>
<clipPath id="clip0_350_5720">
<rect width="32" height="32" fill="white" transform="translate(4.61108 4.59375)"/>
</clipPath>
</defs>
</svg>
