<svg width="41" height="41" viewBox="0 0 41 41" fill="none" xmlns="http://www.w3.org/2000/svg">
<g clip-path="url(#clip0_350_5680)">
<path d="M36.0598 10.2275H5.16332C4.85863 10.2275 4.61157 10.4745 4.61157 10.7792V30.6413C4.61157 30.9459 4.85863 31.193 5.16332 31.193H36.0598C36.3645 31.193 36.6116 30.9459 36.6116 30.6413V10.7792C36.6115 10.4745 36.3644 10.2275 36.0598 10.2275Z" fill="#82C3D2"/>
<path d="M8.33129 12.7375C8.28135 12.5261 8.26891 12.4482 8.36379 12.3534C8.41004 12.3071 8.41004 12.2322 8.36379 12.1859C8.31754 12.1397 8.2426 12.1397 8.19635 12.1859C8.00435 12.378 8.05016 12.5773 8.09985 12.7884C7.94847 12.7389 7.79147 12.7756 7.70735 12.8817C7.6656 12.9347 7.58485 13.0832 7.73616 13.3203C7.77135 13.3753 7.8441 13.3915 7.89966 13.3567C7.95485 13.3215 7.97091 13.2482 7.93572 13.1932C7.87897 13.1039 7.87729 13.0488 7.89316 13.0287C7.91191 13.0049 7.97004 12.9923 8.03091 13.0139C8.07022 13.0275 8.1616 13.0747 8.1616 13.2172C8.1616 13.331 8.10897 13.4353 8.01722 13.503C7.92529 13.571 7.80629 13.5902 7.6916 13.5546C7.54997 13.5113 7.45104 13.3622 7.45104 13.1917C7.45104 13.0698 7.47716 12.9465 7.52516 12.8385C7.53279 12.8226 7.71379 12.4477 7.76041 12.3079C7.8526 12.0315 7.75891 11.8925 7.69497 11.8344C7.60941 11.7565 7.48435 11.737 7.37672 11.7842C7.36035 11.7915 7.34685 11.802 7.33266 11.8117C7.31847 11.8019 7.30491 11.7915 7.2886 11.7842C7.18104 11.737 7.05604 11.7565 6.97035 11.8344C6.90641 11.8925 6.81273 12.0315 6.90491 12.3079C6.95154 12.4477 7.13247 12.8226 7.13847 12.8351C7.18804 12.9466 7.21422 13.0699 7.21422 13.1918C7.21422 13.3623 7.11535 13.5114 6.97366 13.5547C6.85854 13.5902 6.73991 13.5713 6.64804 13.5031C6.55629 13.4353 6.50366 13.331 6.50366 13.2172C6.50366 13.0747 6.59504 13.0276 6.63435 13.0139C6.69541 12.9924 6.75323 13.0049 6.7721 13.0287C6.78798 13.0489 6.78629 13.1039 6.72954 13.1932C6.69435 13.2483 6.71041 13.3216 6.7656 13.3567C6.82123 13.3919 6.89423 13.3755 6.9291 13.3204C7.08035 13.0832 6.99966 12.9348 6.95791 12.8818C6.87373 12.7757 6.71679 12.739 6.56541 12.7884C6.61516 12.5775 6.66091 12.378 6.46891 12.186C6.42266 12.1397 6.34773 12.1397 6.30148 12.186C6.25523 12.2322 6.25523 12.3072 6.30148 12.3534C6.39629 12.4482 6.38398 12.5262 6.33398 12.7376C6.30398 12.8643 6.26673 13.0223 6.26673 13.217C6.26673 13.3466 6.31229 13.4705 6.38891 13.5723H6.3851C6.31966 13.5723 6.26666 13.6253 6.26666 13.6908C6.26666 13.7562 6.3196 13.8092 6.3851 13.8092H6.38891C6.31229 13.911 6.26673 14.0349 6.26673 14.1645C6.26673 14.3592 6.30398 14.5172 6.33391 14.644C6.38385 14.8554 6.39629 14.9333 6.30141 15.0282C6.25516 15.0744 6.25516 15.1493 6.30141 15.1956C6.32454 15.2187 6.35485 15.2303 6.38516 15.2303C6.41541 15.2303 6.44579 15.2187 6.46891 15.1956C6.66091 15.0035 6.6151 14.8042 6.56541 14.5932C6.71679 14.6424 6.87379 14.6059 6.95791 14.4998C6.99966 14.4468 7.08041 14.2983 6.9291 14.0612C6.89404 14.0062 6.82085 13.9898 6.7656 14.0248C6.71041 14.06 6.69435 14.1333 6.72954 14.1883C6.78629 14.2777 6.78798 14.3327 6.7721 14.3528C6.75329 14.3764 6.69541 14.3889 6.63435 14.3677C6.59504 14.354 6.50366 14.3068 6.50366 14.1643C6.50366 14.0505 6.55629 13.9462 6.64804 13.8785C6.73998 13.8105 6.85885 13.791 6.97366 13.8269C7.11529 13.8702 7.21422 14.0193 7.21422 14.1898C7.21422 14.3117 7.1881 14.435 7.13847 14.5465L6.36279 16.2915C6.29904 16.4349 6.26666 16.5874 6.26666 16.7444C6.26666 16.9465 6.35854 17.131 6.50316 17.2436C6.3586 17.3562 6.26666 17.5407 6.26666 17.7428C6.26666 17.8998 6.2991 18.0523 6.36279 18.1957L7.13835 19.9406C7.18791 20.0521 7.2141 20.1753 7.2141 20.2973C7.2141 20.4678 7.11522 20.6169 6.97354 20.6601C6.85841 20.696 6.73979 20.6768 6.64791 20.6086C6.55616 20.5408 6.50354 20.4365 6.50354 20.3227C6.50354 20.1802 6.59491 20.1331 6.63423 20.1194C6.69529 20.0981 6.7531 20.1103 6.77198 20.1342C6.78785 20.1543 6.78616 20.2094 6.72941 20.2987C6.69423 20.3538 6.71029 20.4271 6.76548 20.4622C6.8211 20.4974 6.8941 20.4811 6.92898 20.4258C7.08022 20.1887 6.99954 20.0403 6.95779 19.9873C6.8736 19.8812 6.71666 19.8446 6.56529 19.8939C6.61504 19.683 6.66079 19.4835 6.46879 19.2915C6.42254 19.2452 6.3476 19.2452 6.30135 19.2915C6.2551 19.3377 6.2551 19.4127 6.30135 19.4589C6.39616 19.5537 6.38385 19.6317 6.33385 19.8431C6.30391 19.9698 6.26666 20.1278 6.26666 20.3226C6.26666 20.4521 6.31223 20.5761 6.38885 20.6779H6.38504C6.3196 20.6779 6.2666 20.7308 6.2666 20.7963C6.2666 20.8618 6.31954 20.9148 6.38504 20.9148H6.38885C6.31216 21.0166 6.26666 21.1405 6.26666 21.2701C6.26666 21.4648 6.30391 21.6228 6.33385 21.7496C6.38379 21.961 6.39623 22.039 6.30135 22.1338C6.2551 22.18 6.2551 22.255 6.30135 22.3012C6.32448 22.3243 6.35479 22.3359 6.3851 22.3359C6.41535 22.3359 6.44573 22.3243 6.46885 22.3012C6.66085 22.1091 6.61504 21.9098 6.56535 21.6988C6.71673 21.748 6.87373 21.7115 6.95785 21.6054C6.9996 21.5525 7.08035 21.404 6.92904 21.1668C6.89398 21.1118 6.82079 21.0954 6.76554 21.1305C6.71035 21.1656 6.69429 21.239 6.72948 21.294C6.78623 21.3833 6.78791 21.4383 6.77204 21.4585C6.75323 21.4823 6.69535 21.4948 6.63429 21.4733C6.59498 21.4596 6.5036 21.4125 6.5036 21.27C6.5036 21.1561 6.55623 21.0518 6.64798 20.9841C6.73991 20.9161 6.85879 20.8966 6.9736 20.9325C7.11522 20.9758 7.21416 21.125 7.21416 21.2954C7.21416 21.4173 7.18804 21.5406 7.13841 21.6521L6.36279 23.3973C6.29904 23.5407 6.26666 23.6932 6.26666 23.8502C6.26666 24.0523 6.35854 24.2368 6.50316 24.3494C6.3586 24.462 6.26666 24.6465 6.26666 24.8486C6.26666 25.0056 6.2991 25.1581 6.36279 25.3015L7.13835 27.0464C7.18791 27.1579 7.2141 27.2811 7.2141 27.4031C7.2141 27.5736 7.11522 27.7227 6.97354 27.7659C6.85841 27.8018 6.73979 27.7824 6.64791 27.7144C6.55616 27.6466 6.50354 27.5423 6.50354 27.4285C6.50354 27.286 6.59491 27.2389 6.63423 27.2252C6.69529 27.2039 6.7531 27.2161 6.77198 27.24C6.78785 27.2601 6.78616 27.3152 6.72941 27.4045C6.69423 27.4596 6.71029 27.5328 6.76548 27.568C6.8211 27.6032 6.8941 27.587 6.92898 27.5316C7.08022 27.2945 6.99954 27.1461 6.95779 27.0931C6.8736 26.9866 6.71666 26.9503 6.56529 26.9997C6.61504 26.7888 6.66079 26.5893 6.46879 26.3973C6.42254 26.351 6.3476 26.351 6.30135 26.3973C6.2551 26.4435 6.2551 26.5185 6.30135 26.5647C6.39616 26.6595 6.38385 26.7375 6.33385 26.9489C6.30391 27.0756 6.26666 27.2336 6.26666 27.4283C6.26666 27.6139 6.3556 27.7907 6.50429 27.9021C6.3556 28.0134 6.26666 28.1902 6.26666 28.3758C6.26666 28.5706 6.30391 28.7286 6.33385 28.8553C6.38379 29.0667 6.39623 29.1447 6.30135 29.2395C6.2551 29.2858 6.2551 29.3607 6.30135 29.4069C6.32448 29.4301 6.35479 29.4416 6.3851 29.4416C6.41535 29.4416 6.44573 29.4301 6.46885 29.4069C6.66085 29.2149 6.61504 29.0155 6.56535 28.8045C6.71673 28.8538 6.87373 28.8173 6.95785 28.7111C6.9996 28.6582 7.08035 28.5097 6.92904 28.2726C6.89398 28.2175 6.82079 28.2013 6.76554 28.2362C6.71035 28.2714 6.69429 28.3447 6.72948 28.3997C6.78623 28.489 6.78791 28.5441 6.77204 28.5642C6.75323 28.588 6.69535 28.6003 6.63429 28.579C6.59498 28.5654 6.5036 28.5182 6.5036 28.3757C6.5036 28.2619 6.55623 28.1576 6.64798 28.0898C6.73991 28.0218 6.85879 28.0026 6.9736 28.0383C7.11522 28.0815 7.21416 28.2307 7.21416 28.4011C7.21416 28.5231 7.18804 28.6463 7.14004 28.7543C7.13241 28.7703 6.95141 29.1452 6.90479 29.2849C6.8126 29.5614 6.90629 29.7004 6.97023 29.7584C7.02491 29.8082 7.09535 29.8343 7.16735 29.8343C7.20816 29.8343 7.24954 29.8258 7.28854 29.8087C7.30491 29.8014 7.31841 29.7909 7.3326 29.7812C7.34679 29.791 7.36035 29.8014 7.37666 29.8087C7.4156 29.8258 7.45704 29.8343 7.49785 29.8343C7.56966 29.8343 7.64022 29.8082 7.69497 29.7584C7.75891 29.7004 7.8526 29.5613 7.76041 29.2849C7.71379 29.1452 7.53285 28.7703 7.52685 28.7578C7.47729 28.6463 7.4511 28.523 7.4511 28.4011C7.4511 28.2306 7.54997 28.0814 7.69166 28.0382C7.80685 28.0026 7.92541 28.0218 8.01729 28.0898C8.10904 28.1576 8.16166 28.2618 8.16166 28.3756C8.16166 28.5181 8.07029 28.5653 8.03097 28.5789C7.97016 28.6003 7.91191 28.588 7.89322 28.5641C7.87735 28.544 7.87904 28.4889 7.93579 28.3996C7.97097 28.3446 7.95491 28.2713 7.89972 28.2361C7.84441 28.2014 7.77147 28.2176 7.73622 28.2725C7.58497 28.5096 7.66566 28.6581 7.70741 28.7111C7.7916 28.8172 7.94854 28.8538 8.09991 28.8044C8.05016 29.0154 8.00441 29.2148 8.19641 29.4069C8.21954 29.43 8.24985 29.4416 8.28016 29.4416C8.31047 29.4416 8.34079 29.43 8.36391 29.4069C8.41016 29.3606 8.41016 29.2857 8.36391 29.2394C8.2691 29.1446 8.28141 29.0667 8.33141 28.8553C8.36135 28.7285 8.3986 28.5705 8.3986 28.3758C8.3986 28.1901 8.30966 28.0134 8.16097 27.902C8.30966 27.7906 8.3986 27.6139 8.3986 27.4283C8.3986 27.2335 8.36135 27.0755 8.33141 26.9488C8.28147 26.7374 8.26904 26.6594 8.36391 26.5646C8.41016 26.5183 8.41016 26.4434 8.36391 26.3971C8.31766 26.3509 8.24272 26.3509 8.19647 26.3971C8.00447 26.5892 8.05029 26.7885 8.09997 26.9996C7.9486 26.9501 7.7916 26.9865 7.70747 27.0929C7.66572 27.1459 7.58497 27.2944 7.73629 27.5315C7.77147 27.5866 7.84422 27.6028 7.89979 27.5679C7.95497 27.5327 7.97104 27.4594 7.93585 27.4044C7.8791 27.3151 7.87741 27.26 7.89329 27.2399C7.91204 27.2161 7.97016 27.2038 8.03104 27.2251C8.07035 27.2387 8.16172 27.2859 8.16172 27.4284C8.16172 27.5422 8.1091 27.6465 8.01735 27.7143C7.92541 27.7823 7.80641 27.8017 7.69172 27.7658C7.5501 27.7226 7.45116 27.5734 7.45116 27.4029C7.45116 27.281 7.47729 27.1578 7.52691 27.0463L8.30247 25.3013C8.36622 25.158 8.3986 25.0055 8.3986 24.8485C8.3986 24.6464 8.30672 24.4619 8.1621 24.3493C8.30666 24.2366 8.3986 24.0521 8.3986 23.8501C8.3986 23.693 8.36616 23.5406 8.30247 23.3972L7.52697 21.6524C7.47741 21.5409 7.45122 21.4176 7.45122 21.2957C7.45122 21.1252 7.5501 20.9761 7.69179 20.9328C7.80697 20.8972 7.92554 20.9164 8.01741 20.9844C8.10916 21.0522 8.16179 21.1565 8.16179 21.2703C8.16179 21.4128 8.07041 21.4599 8.0311 21.4736C7.97029 21.4951 7.91204 21.4826 7.89335 21.4588C7.87747 21.4386 7.87916 21.3836 7.93591 21.2943C7.9711 21.2392 7.95504 21.166 7.89985 21.1308C7.84454 21.0961 7.7716 21.1123 7.73635 21.1671C7.5851 21.4043 7.66579 21.5527 7.70754 21.6057C7.79172 21.7118 7.94866 21.7484 8.10004 21.6991C8.05029 21.91 8.00454 22.1095 8.19654 22.3015C8.21966 22.3246 8.24997 22.3362 8.28029 22.3362C8.3106 22.3362 8.34091 22.3246 8.36404 22.3015C8.41028 22.2553 8.41028 22.1803 8.36404 22.1341C8.26922 22.0393 8.28154 21.9613 8.33154 21.7499C8.36147 21.6231 8.39872 21.4651 8.39872 21.2704C8.39872 21.1408 8.35316 21.0169 8.27654 20.9151H8.28035C8.34579 20.9151 8.39879 20.8621 8.39879 20.7966C8.39879 20.7312 8.34585 20.6782 8.28035 20.6782H8.27654C8.35322 20.5764 8.39872 20.4526 8.39872 20.3229C8.39872 20.1281 8.36147 19.9702 8.33154 19.8434C8.2816 19.632 8.26916 19.554 8.36404 19.4592C8.41028 19.413 8.41028 19.338 8.36404 19.2918C8.31779 19.2455 8.24285 19.2455 8.1966 19.2918C8.0046 19.4838 8.05041 19.6832 8.1001 19.8942C7.94872 19.845 7.79172 19.8815 7.7076 19.9876C7.66585 20.0405 7.5851 20.189 7.73641 20.4261C7.7716 20.4812 7.84435 20.4972 7.89991 20.4625C7.9551 20.4273 7.97116 20.354 7.93597 20.299C7.87922 20.2097 7.87754 20.1546 7.89341 20.1345C7.91216 20.1107 7.97029 20.0985 8.03116 20.1197C8.07047 20.1333 8.16185 20.1805 8.16185 20.323C8.16185 20.4368 8.10922 20.5412 8.01747 20.6089C7.92554 20.6769 7.80654 20.6961 7.69185 20.6605C7.55022 20.6172 7.45129 20.468 7.45129 20.2976C7.45129 20.1756 7.47741 20.0524 7.52704 19.9409L8.3026 18.196C8.36635 18.0526 8.39872 17.9001 8.39872 17.7431C8.39872 17.541 8.30685 17.3565 8.16222 17.2439C8.30679 17.1313 8.39872 16.9468 8.39872 16.7447C8.39872 16.5877 8.36629 16.4352 8.3026 16.2918L7.52704 14.5469C7.47747 14.4354 7.45129 14.3122 7.45129 14.1902C7.45129 14.0197 7.55016 13.8706 7.69185 13.8273C7.80704 13.7917 7.9256 13.8109 8.01747 13.8789C8.10922 13.9467 8.16185 14.051 8.16185 14.1648C8.16185 14.3073 8.07047 14.3544 8.03116 14.3681C7.97035 14.3894 7.9121 14.3768 7.89341 14.3533C7.87754 14.3332 7.87922 14.2781 7.93597 14.1888C7.97116 14.1337 7.9551 14.0604 7.89991 14.0253C7.8446 13.9906 7.77166 14.0065 7.73641 14.0616C7.58516 14.2987 7.66585 14.4472 7.7076 14.5002C7.79179 14.6063 7.94872 14.6428 8.1001 14.5935C8.05035 14.8045 8.0046 15.0039 8.1966 15.196C8.21972 15.2191 8.25004 15.2307 8.28035 15.2307C8.31066 15.2307 8.34097 15.2191 8.3641 15.196C8.41035 15.1497 8.41035 15.0748 8.3641 15.0285C8.26929 14.9337 8.2816 14.8558 8.3316 14.6443C8.36154 14.5176 8.39879 14.3596 8.39879 14.1648C8.39879 14.0353 8.35322 13.9113 8.2766 13.8095H8.28041C8.34585 13.8095 8.39885 13.7566 8.39885 13.6911C8.39885 13.6257 8.34591 13.5727 8.28041 13.5727H8.2766C8.35329 13.4708 8.39879 13.347 8.39879 13.2173C8.39841 13.0223 8.36116 12.8643 8.33129 12.7375ZM7.12941 12.2329C7.08735 12.1066 7.10204 12.0347 7.12979 12.0094C7.14791 11.9923 7.17541 11.993 7.19285 12.0009C7.21422 12.0104 7.21422 12.0254 7.21422 12.0328C7.21422 12.0982 7.26716 12.1512 7.33266 12.1512C7.3981 12.1512 7.4511 12.0983 7.4511 12.0328C7.4511 12.0254 7.4511 12.0104 7.47247 12.0009C7.4896 11.993 7.51691 11.9923 7.53554 12.0094C7.56329 12.0347 7.57797 12.1066 7.53591 12.2329C7.50529 12.3244 7.39447 12.5628 7.33272 12.6922C7.27222 12.5658 7.16022 12.325 7.12941 12.2329ZM7.3326 17.1194C7.3666 17.1656 7.40504 17.2086 7.45179 17.2436C7.40504 17.2787 7.3666 17.3216 7.3326 17.3678C7.2986 17.3216 7.26016 17.2786 7.21341 17.2436C7.26016 17.2085 7.2986 17.1657 7.3326 17.1194ZM7.3326 24.2251C7.3666 24.2713 7.40504 24.3143 7.45179 24.3493C7.40504 24.3844 7.3666 24.4273 7.3326 24.4735C7.2986 24.4273 7.26016 24.3843 7.21341 24.3493C7.26016 24.3143 7.2986 24.2715 7.3326 24.2251ZM7.53572 29.3601C7.57779 29.4864 7.5631 29.5583 7.53535 29.5836C7.51672 29.6004 7.48941 29.5998 7.47229 29.5921C7.45091 29.5826 7.45091 29.5676 7.45091 29.5602C7.45091 29.4948 7.39797 29.4418 7.33247 29.4418C7.26697 29.4418 7.21404 29.4947 7.21404 29.5602C7.21404 29.5676 7.21404 29.5826 7.19266 29.5921C7.17529 29.5998 7.14779 29.6005 7.1296 29.5836C7.10185 29.5583 7.08716 29.4864 7.12923 29.3601C7.15985 29.2686 7.27066 29.0302 7.33241 28.9008C7.39291 29.0271 7.50491 29.2679 7.53572 29.3601ZM7.45066 27.9022C7.40585 27.9371 7.3661 27.9788 7.3326 28.026C7.29916 27.9788 7.25935 27.9371 7.21454 27.9022C7.25935 27.8673 7.2991 27.8256 7.3326 27.7784C7.36604 27.8256 7.40579 27.8673 7.45066 27.9022ZM8.08579 25.2051L7.33254 26.8999L6.57929 25.2051C6.52973 25.0936 6.50354 24.9704 6.50354 24.8485C6.50354 24.678 6.60241 24.5288 6.7441 24.4856C6.85923 24.45 6.97798 24.4691 7.06973 24.5371C7.16148 24.605 7.2141 24.7092 7.2141 24.823C7.2141 24.9655 7.12272 25.0126 7.08341 25.0263C7.02235 25.0476 6.96429 25.0354 6.94566 25.0115C6.92979 24.9914 6.93148 24.9363 6.98823 24.847C7.02341 24.792 7.00735 24.7186 6.95216 24.6835C6.89685 24.6488 6.82391 24.665 6.78866 24.7199C6.63741 24.957 6.7181 25.1055 6.75985 25.1585C6.8456 25.2667 7.00691 25.304 7.16116 25.25C7.17872 25.244 7.19654 25.2364 7.2141 25.2275V25.527C7.2141 25.5269 7.21391 25.5268 7.21391 25.5268C7.21035 25.4644 7.15873 25.4152 7.09573 25.4152C7.03029 25.4152 6.97729 25.4681 6.97729 25.5336C6.97729 25.6109 7.03129 25.7449 7.2141 25.7864V26.0073C7.2141 26.0728 7.26704 26.1258 7.33254 26.1258C7.39804 26.1258 7.45097 26.0728 7.45097 26.0073V25.7864C7.63379 25.7449 7.68779 25.6109 7.68779 25.5336C7.68779 25.4682 7.63497 25.4113 7.5696 25.4113C7.50416 25.4113 7.45141 25.4604 7.45141 25.5258C7.45135 25.526 7.45097 25.5263 7.45091 25.5265V25.2276C7.46847 25.2365 7.48629 25.2441 7.50385 25.2501C7.6581 25.304 7.81935 25.2668 7.90516 25.1586C7.94691 25.1056 8.02766 24.9571 7.87635 24.72C7.84116 24.665 7.7681 24.6488 7.71285 24.6836C7.65766 24.7188 7.6416 24.7921 7.67679 24.8471C7.73354 24.9365 7.73522 24.9915 7.71935 25.0116C7.7006 25.0355 7.64254 25.0477 7.5816 25.0265C7.54229 25.0128 7.45091 24.9656 7.45091 24.8231C7.45091 24.7093 7.50354 24.605 7.59529 24.5373C7.68722 24.4693 7.80622 24.4498 7.92091 24.4857C8.06254 24.529 8.16147 24.6781 8.16147 24.8486C8.1616 24.9704 8.13547 25.0937 8.08579 25.2051ZM8.08579 23.4935C8.13535 23.605 8.16154 23.7283 8.16154 23.8502C8.16154 24.0207 8.06266 24.1698 7.92097 24.2131C7.80604 24.249 7.6871 24.2295 7.59535 24.1615C7.5036 24.0937 7.45097 23.9895 7.45097 23.8756C7.45097 23.7331 7.54235 23.686 7.58166 23.6723C7.6426 23.651 7.70072 23.6633 7.71941 23.6871C7.73529 23.7073 7.7336 23.7623 7.67685 23.8516C7.64166 23.9067 7.65772 23.98 7.71291 24.0151C7.76854 24.0503 7.84154 24.0341 7.87641 23.9788C8.02766 23.7416 7.94697 23.5932 7.90522 23.5402C7.81941 23.432 7.65816 23.3951 7.50391 23.4486C7.48635 23.4547 7.46854 23.4623 7.45097 23.4712V23.1716L7.45116 23.172C7.45472 23.2342 7.50635 23.2835 7.56935 23.2835C7.63479 23.2835 7.68779 23.2306 7.68779 23.1651C7.68779 23.0878 7.63379 22.9538 7.45097 22.9123V22.6914C7.45097 22.626 7.39804 22.573 7.33254 22.573C7.26704 22.573 7.2141 22.6259 7.2141 22.6914V22.9123C7.03129 22.9538 6.97729 23.0878 6.97729 23.1651C6.97729 23.2305 7.0301 23.2874 7.09548 23.2874C7.16091 23.2874 7.21366 23.2383 7.21366 23.1729C7.21372 23.1727 7.2141 23.1724 7.2141 23.1724L7.21416 23.4711C7.1966 23.4622 7.17879 23.4546 7.16122 23.4486C7.00698 23.3951 6.84566 23.432 6.75991 23.5401C6.71816 23.5931 6.63741 23.7416 6.78873 23.9787C6.82391 24.0338 6.89698 24.0498 6.95223 24.0151C7.00741 23.9799 7.02348 23.9066 6.98829 23.8516C6.93154 23.7623 6.92985 23.7072 6.94573 23.6871C6.96435 23.6633 7.02241 23.651 7.08347 23.6723C7.12279 23.6859 7.21416 23.7331 7.21416 23.8756C7.21416 23.9894 7.16154 24.0937 7.06979 24.1615C6.97785 24.2295 6.8591 24.2489 6.74416 24.213C6.60254 24.1698 6.5036 24.0206 6.5036 23.8501C6.5036 23.7282 6.52973 23.605 6.57935 23.4935L7.3326 21.7987L8.08579 23.4935ZM7.45066 20.7965C7.40585 20.8314 7.3661 20.8731 7.3326 20.9203C7.29916 20.8731 7.25935 20.8315 7.21454 20.7965C7.25935 20.7616 7.2991 20.7199 7.3326 20.6727C7.36604 20.7198 7.40579 20.7616 7.45066 20.7965ZM8.08579 18.0995L7.33254 19.7942L6.57929 18.0995C6.52973 17.988 6.50354 17.8647 6.50354 17.7428C6.50354 17.5723 6.60241 17.4232 6.7441 17.3799C6.85923 17.3443 6.97798 17.3635 7.06973 17.4315C7.16148 17.4993 7.2141 17.6035 7.2141 17.7173C7.2141 17.8598 7.12272 17.907 7.08341 17.9207C7.02235 17.9422 6.96429 17.9297 6.94566 17.9058C6.92979 17.8857 6.93148 17.8307 6.98823 17.7413C7.02341 17.6863 7.00735 17.613 6.95216 17.5778C6.89685 17.543 6.82391 17.5591 6.78866 17.6142C6.63741 17.8513 6.7181 17.9998 6.75985 18.0528C6.8456 18.161 7.00691 18.198 7.16116 18.1443C7.17872 18.1383 7.19654 18.1307 7.2141 18.1218V18.4213L7.21391 18.4209C7.21035 18.3587 7.15873 18.3094 7.09573 18.3094C7.03029 18.3094 6.97729 18.3623 6.97729 18.4278C6.97729 18.5051 7.03129 18.6391 7.2141 18.6806V18.9015C7.2141 18.967 7.26704 19.02 7.33254 19.02C7.39804 19.02 7.45097 18.967 7.45097 18.9015V18.6806C7.63379 18.6391 7.68779 18.5051 7.68779 18.4278C7.68779 18.3624 7.63497 18.3055 7.5696 18.3055C7.50416 18.3055 7.45141 18.3545 7.45141 18.42C7.45135 18.4202 7.45097 18.4205 7.45097 18.4205L7.45091 18.1217C7.46847 18.1307 7.48629 18.1382 7.50385 18.1443C7.6581 18.1979 7.81935 18.1609 7.90516 18.0527C7.94691 17.9998 8.02766 17.8513 7.87635 17.6142C7.84116 17.5588 7.7681 17.5427 7.71285 17.5778C7.65766 17.613 7.6416 17.6863 7.67679 17.7413C7.73354 17.8306 7.73522 17.8857 7.71935 17.9058C7.7006 17.9296 7.64254 17.9422 7.5816 17.9206C7.54229 17.907 7.45091 17.8598 7.45091 17.7173C7.45091 17.6035 7.50354 17.4992 7.59529 17.4314C7.68722 17.3634 7.80622 17.3442 7.92091 17.3798C8.06254 17.4231 8.16147 17.5723 8.16147 17.7427C8.1616 17.8647 8.13547 17.988 8.08579 18.0995ZM8.08579 16.3878C8.13535 16.4993 8.16154 16.6225 8.16154 16.7445C8.16154 16.915 8.06266 17.0641 7.92097 17.1073C7.80604 17.1432 7.6871 17.1238 7.59535 17.0558C7.5036 16.988 7.45097 16.8837 7.45097 16.7699C7.45097 16.6274 7.54235 16.5803 7.58166 16.5666C7.6426 16.5453 7.70072 16.5575 7.71941 16.5814C7.73529 16.6015 7.7336 16.6566 7.67685 16.7459C7.64166 16.801 7.65772 16.8742 7.71291 16.9094C7.76854 16.9443 7.84154 16.9283 7.87641 16.873C8.02766 16.6359 7.94697 16.4875 7.90522 16.4345C7.81941 16.3262 7.65816 16.2892 7.50391 16.3429C7.48635 16.349 7.46854 16.3565 7.45097 16.3655V16.066C7.45097 16.066 7.45116 16.0662 7.45116 16.0662C7.45472 16.1285 7.50635 16.1777 7.56935 16.1777C7.63479 16.1777 7.68779 16.1248 7.68779 16.0593C7.68779 15.982 7.63379 15.848 7.45097 15.8065V15.5856C7.45097 15.5202 7.39804 15.4672 7.33254 15.4672C7.26704 15.4672 7.2141 15.5201 7.2141 15.5856V15.8065C7.03129 15.848 6.97729 15.982 6.97729 16.0593C6.97729 16.1247 7.0301 16.1817 7.09548 16.1817C7.16091 16.1817 7.21366 16.1326 7.21366 16.0672C7.21372 16.067 7.2141 16.0667 7.21416 16.0665V16.3654C7.1966 16.3565 7.17879 16.3489 7.16122 16.3428C7.00698 16.2892 6.84566 16.3262 6.75991 16.4344C6.71816 16.4873 6.63741 16.6358 6.78873 16.873C6.82391 16.928 6.89698 16.944 6.95223 16.9093C7.00741 16.8742 7.02348 16.8008 6.98829 16.7458C6.93154 16.6565 6.92985 16.6015 6.94573 16.5813C6.96435 16.5575 7.02241 16.5453 7.08347 16.5665C7.12279 16.5802 7.21416 16.6273 7.21416 16.7698C7.21416 16.8837 7.16154 16.988 7.06979 17.0557C6.97785 17.1237 6.8591 17.1432 6.74416 17.1073C6.60254 17.064 6.5036 16.9148 6.5036 16.7444C6.5036 16.6225 6.52973 16.4992 6.57935 16.3877L7.3326 14.693L8.08579 16.3878ZM7.21447 13.6908C7.25929 13.6559 7.29904 13.6142 7.33254 13.567C7.36597 13.6142 7.40579 13.6558 7.4506 13.6908C7.40579 13.7257 7.36604 13.7674 7.33254 13.8146C7.2991 13.7674 7.25935 13.7257 7.21447 13.6908Z" fill="#FFE15A"/>
<path d="M21.5325 22.2496C23.1067 22.2496 24.3829 20.9734 24.3829 19.3992C24.3829 17.825 23.1067 16.5488 21.5325 16.5488C19.9583 16.5488 18.6821 17.825 18.6821 19.3992C18.6821 20.9734 19.9583 22.2496 21.5325 22.2496Z" fill="#FFE15A"/>
<path d="M21.7467 15.7644C21.7467 15.8825 21.651 15.9782 21.5329 15.9782C21.4148 15.9782 21.3191 15.8825 21.3191 15.7644C21.3191 15.6464 21.5329 15.123 21.5329 15.123C21.5329 15.123 21.7467 15.6464 21.7467 15.7644Z" fill="#FFE15A"/>
<path d="M21.3191 23.0341C21.3191 22.9161 21.4148 22.8203 21.5329 22.8203C21.651 22.8203 21.7467 22.9161 21.7467 23.0341C21.7467 23.1522 21.5329 23.6755 21.5329 23.6755C21.5329 23.6755 21.3191 23.1522 21.3191 23.0341Z" fill="#FFE15A"/>
<path d="M25.1674 19.6132C25.0494 19.6132 24.9536 19.5174 24.9536 19.3994C24.9536 19.2813 25.0494 19.1855 25.1674 19.1855C25.2855 19.1855 25.8088 19.3994 25.8088 19.3994C25.8088 19.3994 25.2855 19.6132 25.1674 19.6132Z" fill="#FFE15A"/>
<path d="M17.8985 19.1855C18.0165 19.1855 18.1123 19.2813 18.1123 19.3994C18.1123 19.5174 18.0165 19.6132 17.8985 19.6132C17.7804 19.6132 17.2571 19.3994 17.2571 19.3994C17.2571 19.3994 17.7804 19.1855 17.8985 19.1855Z" fill="#FFE15A"/>
<path d="M24.2542 16.9807C24.1707 17.0642 24.0354 17.0642 23.9518 16.9807C23.8682 16.8972 23.8683 16.7619 23.9518 16.6784C24.0353 16.5948 24.5565 16.376 24.5565 16.376C24.5565 16.376 24.3377 16.8972 24.2542 16.9807Z" fill="#FFE15A"/>
<path d="M18.8118 21.8175C18.8953 21.734 19.0306 21.734 19.1142 21.8175C19.1978 21.901 19.1977 22.0363 19.1142 22.1199C19.0307 22.2034 18.5095 22.4222 18.5095 22.4222C18.5095 22.4222 18.7283 21.9011 18.8118 21.8175Z" fill="#FFE15A"/>
<path d="M23.9518 22.1199C23.8683 22.0364 23.8683 21.9011 23.9518 21.8175C24.0353 21.734 24.1706 21.734 24.2542 21.8175C24.3377 21.901 24.5565 22.4222 24.5565 22.4222C24.5565 22.4222 24.0353 22.2033 23.9518 22.1199Z" fill="#FFE15A"/>
<path d="M19.1143 16.6783C19.1978 16.7618 19.1978 16.8971 19.1143 16.9807C19.0308 17.0642 18.8955 17.0642 18.8119 16.9807C18.7283 16.8972 18.5095 16.376 18.5095 16.376C18.5095 16.376 19.0308 16.5949 19.1143 16.6783Z" fill="#FFE15A"/>
<path d="M20.3397 15.9591C20.3849 16.0682 20.3331 16.1932 20.224 16.2384C20.1149 16.2836 19.9899 16.2317 19.9447 16.1226C19.8995 16.0135 19.8967 15.4482 19.8967 15.4482C19.8967 15.4482 20.2945 15.8499 20.3397 15.9591Z" fill="#FFE15A"/>
<path d="M22.7263 22.8386C22.6811 22.7295 22.7329 22.6045 22.842 22.5593C22.9512 22.5141 23.0762 22.5659 23.1213 22.675C23.1665 22.7842 23.1693 23.3494 23.1693 23.3494C23.1693 23.3494 22.7714 22.9477 22.7263 22.8386Z" fill="#FFE15A"/>
<path d="M24.9726 18.2057C24.8635 18.2509 24.7385 18.1991 24.6933 18.0899C24.6481 17.9808 24.7 17.8558 24.8091 17.8106C24.9182 17.7654 25.4834 17.7627 25.4834 17.7627C25.4834 17.7627 25.0818 18.1604 24.9726 18.2057Z" fill="#FFE15A"/>
<path d="M18.0933 20.5925C18.2025 20.5473 18.3275 20.5991 18.3726 20.7083C18.4178 20.8174 18.366 20.9424 18.2569 20.9876C18.1478 21.0328 17.5825 21.0355 17.5825 21.0355C17.5825 21.0355 17.9842 20.6378 18.0933 20.5925Z" fill="#FFE15A"/>
<path d="M23.1213 16.1235C23.0761 16.2327 22.9511 16.2844 22.842 16.2393C22.7329 16.1941 22.6811 16.069 22.7263 15.96C22.7715 15.8509 23.1692 15.4492 23.1692 15.4492C23.1692 15.4492 23.1665 16.0145 23.1213 16.1235Z" fill="#FFE15A"/>
<path d="M19.9446 22.675C19.9898 22.5659 20.1149 22.5141 20.2239 22.5593C20.333 22.6045 20.3848 22.7295 20.3397 22.8386C20.2945 22.9477 19.8967 23.3493 19.8967 23.3493C19.8967 23.3493 19.8994 22.7841 19.9446 22.675Z" fill="#FFE15A"/>
<path d="M24.8091 20.9875C24.6999 20.9423 24.6482 20.8173 24.6933 20.7082C24.7385 20.5991 24.8636 20.5473 24.9726 20.5925C25.0817 20.6376 25.4834 21.0354 25.4834 21.0354C25.4834 21.0354 24.9181 21.0328 24.8091 20.9875Z" fill="#FFE15A"/>
<path d="M18.2568 17.8106C18.366 17.8558 18.4177 17.9808 18.3726 18.0899C18.3274 18.1989 18.2023 18.2508 18.0933 18.2056C17.9842 18.1604 17.5825 17.7627 17.5825 17.7627C17.5825 17.7627 18.1478 17.7653 18.2568 17.8106Z" fill="#FFE15A"/>
<path d="M21.0337 15.7925C21.0568 15.9083 20.9816 16.0208 20.8657 16.0438C20.7499 16.0669 20.6373 15.9917 20.6143 15.8758C20.5913 15.76 20.6989 15.2051 20.6989 15.2051C20.6989 15.2051 21.0106 15.6766 21.0337 15.7925Z" fill="#FFE15A"/>
<path d="M22.0325 23.0055C22.0094 22.8897 22.0846 22.7772 22.2005 22.7542C22.3164 22.7311 22.4288 22.8063 22.4518 22.9222C22.4749 23.038 22.3673 23.5929 22.3673 23.5929C22.3673 23.5929 22.0555 23.1213 22.0325 23.0055Z" fill="#FFE15A"/>
<path d="M25.1393 18.9002C25.0235 18.9232 24.9109 18.848 24.8879 18.7322C24.8649 18.6163 24.9401 18.5038 25.0559 18.4808C25.1718 18.4577 25.7267 18.5653 25.7267 18.5653C25.7267 18.5653 25.2551 18.8772 25.1393 18.9002Z" fill="#FFE15A"/>
<path d="M17.9265 19.8987C18.0423 19.8756 18.1549 19.9508 18.1779 20.0667C18.2009 20.1826 18.1257 20.2951 18.0099 20.3181C17.894 20.3411 17.3391 20.2335 17.3391 20.2335C17.3391 20.2335 17.8107 19.9217 17.9265 19.8987Z" fill="#FFE15A"/>
<path d="M23.73 16.4959C23.6644 16.5941 23.5316 16.6204 23.4334 16.5548C23.3352 16.4892 23.3088 16.3564 23.3745 16.2583C23.44 16.1601 23.9085 15.8438 23.9085 15.8438C23.9085 15.8438 23.7955 16.3976 23.73 16.4959Z" fill="#FFE15A"/>
<path d="M19.336 22.3021C19.4016 22.2039 19.5344 22.1775 19.6326 22.2431C19.7308 22.3087 19.7572 22.4415 19.6915 22.5397C19.626 22.6379 19.1575 22.9542 19.1575 22.9542C19.1575 22.9542 19.2705 22.4003 19.336 22.3021Z" fill="#FFE15A"/>
<path d="M24.4361 21.5957C24.3379 21.5301 24.3115 21.3973 24.3771 21.2991C24.4428 21.2009 24.5755 21.1746 24.6737 21.2402C24.7719 21.3057 25.0882 21.7742 25.0882 21.7742C25.0882 21.7742 24.5343 21.6612 24.4361 21.5957Z" fill="#FFE15A"/>
<path d="M18.6297 17.202C18.7279 17.2676 18.7542 17.4004 18.6886 17.4986C18.623 17.5967 18.4902 17.6231 18.392 17.5575C18.2939 17.4919 17.9775 17.0234 17.9775 17.0234C17.9775 17.0234 18.5315 17.1364 18.6297 17.202Z" fill="#FFE15A"/>
<path d="M19.6915 16.2582C19.7571 16.3564 19.7307 16.4891 19.6326 16.5547C19.5345 16.6204 19.4017 16.5939 19.336 16.4958C19.2705 16.3976 19.1575 15.8438 19.1575 15.8438C19.1575 15.8438 19.626 16.1601 19.6915 16.2582Z" fill="#FFE15A"/>
<path d="M23.3744 22.5396C23.3089 22.4414 23.3352 22.3087 23.4334 22.2431C23.5315 22.1775 23.6643 22.2039 23.7299 22.302C23.7955 22.4002 23.9085 22.9541 23.9085 22.9541C23.9085 22.9541 23.44 22.6378 23.3744 22.5396Z" fill="#FFE15A"/>
<path d="M24.6737 17.5575C24.5755 17.6231 24.4427 17.5967 24.3771 17.4986C24.3115 17.4004 24.3379 17.2676 24.436 17.202C24.5342 17.1364 25.0881 17.0234 25.0881 17.0234C25.0881 17.0234 24.7719 17.4919 24.6737 17.5575Z" fill="#FFE15A"/>
<path d="M18.3922 21.2411C18.4904 21.1756 18.6232 21.2019 18.6888 21.3001C18.7543 21.3982 18.728 21.531 18.6298 21.5966C18.5317 21.6622 17.9778 21.7752 17.9778 21.7752C17.9778 21.7752 18.294 21.3067 18.3922 21.2411Z" fill="#FFE15A"/>
<path d="M22.4518 15.8758C22.4288 15.9916 22.3163 16.0669 22.2005 16.0438C22.0847 16.0208 22.0094 15.9083 22.0325 15.7925C22.0555 15.6766 22.3673 15.2051 22.3673 15.2051C22.3673 15.2051 22.4748 15.76 22.4518 15.8758Z" fill="#FFE15A"/>
<path d="M20.6143 22.9222C20.6374 22.8063 20.7499 22.7311 20.8657 22.7542C20.9815 22.7772 21.0567 22.8897 21.0337 23.0055C21.0106 23.1213 20.6989 23.5929 20.6989 23.5929C20.6989 23.5929 20.5913 23.038 20.6143 22.9222Z" fill="#FFE15A"/>
<path d="M25.0557 20.3181C24.9399 20.295 24.8646 20.1825 24.8877 20.0667C24.9108 19.9509 25.0233 19.8756 25.1391 19.8987C25.2549 19.9217 25.7264 20.2335 25.7264 20.2335C25.7264 20.2335 25.1715 20.3411 25.0557 20.3181Z" fill="#FFE15A"/>
<path d="M18.0101 18.4808C18.1259 18.5038 18.2012 18.6163 18.1781 18.7321C18.155 18.848 18.0425 18.9232 17.9267 18.9001C17.8109 18.8771 17.3394 18.5653 17.3394 18.5653C17.3394 18.5653 17.8943 18.4578 18.0101 18.4808Z" fill="#FFE15A"/>
<path d="M28.2378 20.1494C28.1543 20.1143 28.0589 20.1545 28.0241 20.2375C28.0241 20.2379 28.0241 20.2379 28.0241 20.2379C28.0235 20.2395 28.0202 20.2471 28.0146 20.2603C27.8911 20.5489 27.6355 20.9707 27.3773 21.3675C27.6178 20.5936 27.8376 19.767 27.8529 19.7088C27.8758 19.622 27.8245 19.5329 27.7378 19.5093C27.651 19.486 27.5617 19.5365 27.5374 19.623C27.4252 20.025 27.1958 20.554 26.9841 21.0019C27.0229 20.5025 27.0302 20.0399 27.0307 20.0064C27.032 19.918 26.9627 19.8448 26.8743 19.8406C26.7911 19.8432 26.7108 19.9039 26.7043 19.9923C26.495 22.8715 23.7244 24.1595 23.4547 24.278C23.3135 24.2921 22.6561 24.3661 22.0594 24.5733C21.9918 24.5968 21.9342 24.6204 21.8768 24.6438C21.8555 24.6358 21.8326 24.6313 21.8085 24.6327C19.9772 24.7652 18.5169 24.0139 17.4674 22.4044C16.6745 21.1883 16.4258 19.9118 16.4234 19.8991C16.4066 19.8103 16.3216 19.7531 16.2325 19.7688C16.1437 19.7857 16.0854 19.871 16.1022 19.9597C16.1089 19.995 16.218 20.5521 16.5185 21.2855C16.1164 20.6508 15.8362 19.8819 15.7376 19.4815C15.7356 19.4735 15.7305 19.4674 15.7275 19.46C15.7229 19.4487 15.719 19.4373 15.7122 19.4275C15.7074 19.4206 15.701 19.4155 15.6954 19.4095C15.6864 19.4 15.6779 19.3908 15.6669 19.3837C15.6607 19.3796 15.6537 19.3776 15.6469 19.3745C15.6348 19.3688 15.623 19.3633 15.6095 19.3607C15.6002 19.3589 15.5907 19.3601 15.581 19.3599C15.5712 19.3598 15.562 19.3573 15.5519 19.359C15.5497 19.3594 15.548 19.3609 15.5459 19.3614C15.5437 19.3618 15.5417 19.3611 15.5396 19.3616C15.5309 19.3637 15.5242 19.3692 15.5162 19.3726C15.506 19.3771 15.4955 19.3804 15.4866 19.3866C15.4778 19.3926 15.4712 19.4005 15.4639 19.4081C15.4566 19.4156 15.449 19.4222 15.4432 19.4309C15.4374 19.4397 15.4343 19.4496 15.4302 19.4595C15.4262 19.469 15.4217 19.478 15.4196 19.4883C15.4175 19.4989 15.4184 19.5098 15.4185 19.5208C15.4185 19.5296 15.416 19.5381 15.4176 19.5471C15.4182 19.551 15.4195 19.5548 15.4202 19.5586V19.5592C15.4204 19.5599 15.4206 19.5608 15.4208 19.5616C15.5219 20.1574 15.7629 20.775 15.9809 21.246C15.6348 20.8533 15.3456 20.4009 15.2431 20.133C15.2402 20.1251 15.2342 20.1197 15.2302 20.1127C15.2242 20.1019 15.2189 20.0908 15.2107 20.0819C15.2049 20.0755 15.1978 20.0714 15.1912 20.0661C15.1812 20.0581 15.1718 20.05 15.1603 20.0445C15.1529 20.041 15.1449 20.0399 15.1371 20.0375C15.125 20.0338 15.1134 20.0298 15.1005 20.029C15.0905 20.0283 15.0805 20.0309 15.0703 20.0322C15.0609 20.0334 15.0515 20.0322 15.0422 20.0351C15.0404 20.0357 15.0391 20.0371 15.0374 20.0378C15.0357 20.0383 15.0339 20.038 15.0322 20.0386C15.0233 20.042 15.017 20.0486 15.009 20.0533C14.9997 20.0588 14.9898 20.0633 14.9819 20.0705C14.9737 20.0778 14.9681 20.0868 14.9617 20.0955C14.9557 20.1037 14.9489 20.111 14.9444 20.1201C14.9397 20.1297 14.938 20.1401 14.9353 20.1504C14.9326 20.1605 14.929 20.1698 14.9284 20.1804C14.9276 20.191 14.9302 20.2015 14.9316 20.2122C14.9328 20.2215 14.9315 20.2306 14.9344 20.2398C15.1123 20.8135 15.54 21.4961 15.8752 21.977C15.5959 21.7618 15.3907 21.5291 15.3311 21.4588C15.3247 21.4512 15.3184 21.4435 15.3119 21.4359C15.2543 21.3666 15.1525 21.3567 15.0827 21.4132C15.0131 21.47 15.0022 21.5723 15.0584 21.6421C15.0615 21.646 15.0737 21.6613 15.0942 21.6852C15.3395 21.977 15.6067 22.2493 15.8487 22.4793L15.5176 22.3381C15.4421 22.3056 15.3534 22.335 15.312 22.4068C15.2707 22.4786 15.2894 22.5696 15.3556 22.6194C15.3879 22.6433 15.9742 23.0814 16.4819 23.3403C16.434 23.3432 16.3778 23.3397 16.3149 23.3349C16.2382 23.3275 16.1627 23.3824 16.144 23.4603C16.1256 23.5385 16.1665 23.6184 16.2407 23.649C16.2532 23.6541 16.4079 23.7179 16.5989 23.7859C16.5544 23.8041 16.5189 23.8415 16.5042 23.89C16.4822 23.9625 16.5132 24.0411 16.5789 24.0787C16.596 24.0886 16.8271 24.2211 17.113 24.3386C17.1054 24.3504 17.0992 24.3631 17.0945 24.3772C17.0721 24.4458 17.0977 24.5212 17.1572 24.5624C17.2069 24.5965 18.3172 25.35 19.6139 25.35C19.699 25.35 19.785 25.3468 19.8715 25.3398C19.9614 25.3328 20.0287 25.2539 20.0215 25.1639C20.0143 25.0738 19.9362 25.0058 19.8454 25.0141C19.0308 25.0806 18.246 24.7747 17.7792 24.5409C17.8408 24.5259 17.8763 24.5122 17.8851 24.5087C17.9571 24.4793 17.9986 24.4036 17.9845 24.3273C17.9705 24.2511 17.9047 24.1951 17.827 24.1935C17.6375 24.1896 17.375 24.0974 17.149 23.9984C17.2344 23.9556 17.2842 23.9147 17.2886 23.9112C17.3378 23.87 17.3585 23.8043 17.3418 23.7423C17.3249 23.6807 17.2734 23.6344 17.2103 23.6242C17.1409 23.6127 17.0543 23.5903 16.9637 23.5629C17.0518 23.5121 17.0893 23.4563 17.1037 23.4278C17.1264 23.3825 17.1269 23.3294 17.1051 23.2838C17.0832 23.2382 17.0416 23.2053 16.992 23.1947C16.9493 23.1854 16.9009 23.1698 16.8485 23.1494C16.8581 23.1398 16.8669 23.1289 16.874 23.1165C16.9157 23.0459 16.8985 22.9553 16.8339 22.9045C16.8305 22.9019 16.7036 22.8024 16.5115 22.6366C16.542 22.6254 16.5689 22.6047 16.5884 22.5766C16.6296 22.5173 16.6268 22.4378 16.5815 22.3815C16.5779 22.377 16.4509 22.2173 16.2757 21.9746C16.3335 22.0195 16.3913 22.0654 16.449 22.1025C16.4762 22.1198 16.507 22.1284 16.5375 22.1284C16.5789 22.1284 16.6197 22.1128 16.6511 22.0824C16.664 22.0699 16.6742 22.0555 16.6822 22.0402C16.7814 22.1461 16.8855 22.2423 16.995 22.3244C17.0092 22.3351 17.0265 22.3349 17.0425 22.3403C17.0889 22.418 17.1372 22.4959 17.1878 22.5738C18.1805 24.1011 19.5802 24.9193 21.2589 24.9684C21.1043 25.0623 20.9365 25.1593 20.6708 25.2628C20.6128 25.2854 20.5616 25.308 20.5101 25.3307C20.4852 25.3356 20.4619 25.3446 20.4425 25.36C19.9787 25.5747 19.7867 25.7868 19.7088 25.9352C19.6311 26.0827 19.6982 26.234 19.7931 26.3126C19.8226 26.3368 19.8602 26.3493 19.8978 26.3493C19.9237 26.3493 19.9495 26.3435 19.973 26.3317C20.0308 26.3029 20.0694 26.2419 20.0668 26.1778C20.0735 26.1705 20.102 26.1469 20.191 26.1439C20.256 26.1385 20.3927 26.1532 20.5522 26.1659C20.7039 26.1784 20.8859 26.1926 21.0794 26.2026C20.9583 26.3437 20.8177 26.5073 20.8177 26.5073C20.7754 26.5564 20.7661 26.626 20.7942 26.6844C20.8225 26.7432 20.8833 26.7796 20.9472 26.7773C21.0763 26.7728 21.1641 26.7703 21.2217 26.7691C21.272 26.8349 21.3337 26.861 21.3734 26.8712C21.4858 26.8999 21.5979 26.8549 21.6823 26.8016C21.7462 26.8476 21.81 26.8671 21.8607 26.8744C21.9748 26.8901 22.0805 26.8569 22.1569 26.8192C22.2361 26.8703 22.3137 26.8834 22.3728 26.8834C22.3736 26.8834 22.3745 26.8834 22.3755 26.8834C22.503 26.8828 22.6147 26.8211 22.6936 26.7608C22.7634 26.8023 22.8301 26.8156 22.8817 26.8179C22.9987 26.8221 23.0957 26.7771 23.1602 26.7349C23.3906 26.7811 23.5892 26.6726 23.7204 26.5529C23.7803 26.5877 23.8372 26.5963 23.8826 26.5941C23.9993 26.5899 24.0882 26.519 24.1452 26.4555C24.4064 26.4871 24.5938 26.4389 24.7021 26.3103C24.7612 26.2403 24.7852 26.1615 24.7917 26.0896C25.5163 26.0855 25.5819 25.6899 25.5872 25.641C25.592 25.5966 25.5785 25.5523 25.5496 25.5181C25.5208 25.484 25.4791 25.4629 25.4346 25.4603L23.5349 25.3461C23.4554 25.3403 23.3845 25.3936 23.366 25.4713C23.3657 25.4725 23.3333 25.5932 23.232 25.6897C23.0956 25.8199 22.876 25.8886 22.6372 25.9251C22.6381 25.9032 22.635 25.8809 22.6267 25.8592C22.5941 25.7749 22.4993 25.734 22.4153 25.7657C22.0231 25.9179 21.3881 25.8988 20.8913 25.8642C20.9675 25.8019 21.0593 25.7403 21.1326 25.7C21.1945 25.6659 21.2278 25.5959 21.2147 25.5264C21.2052 25.4758 21.1686 25.4406 21.1245 25.418C21.2626 25.3483 21.3758 25.2809 21.4833 25.2154C21.6698 25.1011 21.846 24.9934 22.1668 24.8821C22.7862 24.6669 23.503 24.6014 23.5102 24.6008C23.5265 24.5994 23.5425 24.5953 23.5576 24.5893C23.5831 24.5787 25.605 23.7317 26.5575 21.7773C26.545 21.8364 26.5316 21.8904 26.5171 21.9376C26.4922 22.0181 26.5324 22.104 26.61 22.1365C26.67 22.1617 26.7381 22.1486 26.7843 22.1058C26.7241 22.2645 26.6697 22.3893 26.6253 22.4631C26.58 22.5381 26.6018 22.6355 26.6748 22.684C26.6919 22.6952 26.7102 22.7028 26.729 22.7073C26.6553 22.8153 26.5805 22.9174 26.506 23.0109C26.4563 23.0732 26.4592 23.162 26.5111 23.2208C26.3831 23.3548 26.2696 23.4653 26.1833 23.5356C26.127 23.5812 26.1086 23.6575 26.1345 23.7227C26.0513 23.7703 25.983 23.8038 25.9356 23.8181C25.8561 23.8421 25.8073 23.9222 25.8223 24.0039C25.8301 24.0471 25.8544 24.0834 25.8879 24.1074C25.788 24.1342 25.6786 24.1601 25.5598 24.1836C25.493 24.197 25.4413 24.2504 25.4304 24.3177C25.4196 24.3851 25.4515 24.4521 25.5106 24.4859C25.5158 24.4888 25.5716 24.5204 25.6571 24.5568C25.3408 24.6842 24.7762 24.8506 23.8497 24.9419C23.7599 24.9508 23.6942 25.031 23.7031 25.1207C23.7118 25.2104 23.7895 25.2727 23.8819 25.2676C25.6408 25.0936 26.1839 24.6533 26.2061 24.6344C26.2568 24.5919 26.277 24.5227 26.2568 24.4595C26.2435 24.4177 26.2141 24.3839 26.1763 24.3643C26.7383 24.1874 26.9795 23.9917 26.9921 23.9812C27.0538 23.9301 27.0693 23.8417 27.0287 23.7724C26.9878 23.7031 26.9028 23.6731 26.8285 23.7031C26.8076 23.7111 26.7743 23.7193 26.7321 23.7276C27.1092 23.4694 27.5095 23.1618 27.6856 23.0246C27.7165 23.0016 27.7446 22.9795 27.7694 22.9588C27.8378 22.9013 27.8473 22.7997 27.7909 22.7305C27.7349 22.6616 27.6328 22.65 27.5629 22.7053C27.5374 22.7254 27.5108 22.7461 27.4834 22.7675C27.4021 22.8279 27.2982 22.8962 27.1848 22.9664C27.6128 22.4804 28.0437 21.9536 28.1668 21.8023C28.178 21.7886 28.189 21.7749 28.2001 21.7611C28.2566 21.6909 28.2456 21.5881 28.1754 21.5316C28.105 21.4741 28.002 21.486 27.9456 21.5558L27.9453 21.5562L27.9451 21.5566C27.9421 21.5601 27.9283 21.5773 27.905 21.6061C27.776 21.7635 27.6403 21.9158 27.5063 22.0581C27.9423 21.268 28.2725 20.4901 28.3208 20.3749C28.3226 20.3708 28.3242 20.3666 28.326 20.3624C28.3606 20.2797 28.3212 20.1839 28.2378 20.1494ZM20.576 25.6598L20.6206 25.6656C20.5658 25.7168 20.5213 25.7742 20.4859 25.8334C20.4083 25.8272 20.3378 25.8217 20.2827 25.8193C20.3587 25.7696 20.4566 25.7156 20.576 25.6598Z" fill="#FFE15A"/>
</g>
<defs>
<clipPath id="clip0_350_5680">
<rect width="32" height="32" fill="white" transform="translate(4.61108 4.70996)"/>
</clipPath>
</defs>
</svg>
