<svg width="38" height="38" viewBox="0 0 38 38" fill="none" xmlns="http://www.w3.org/2000/svg">
<rect width="38" height="38" rx="19" fill="#E4E4E4"/>
<path d="M13.1861 26.3586C13.3457 24.173 11.8299 22.7742 11.8299 22.7742C11.8299 22.7742 10.3142 24.173 10.4737 26.3586C10.5521 27.4328 11.2138 27.7947 11.843 27.7852C12.4941 27.7753 13.1131 27.3583 13.1861 26.3586Z" fill="#3F3D3D"/>
<path d="M9.16162 21.6776C11.3472 21.8371 12.746 20.3214 12.746 20.3214C12.746 20.3214 11.3472 18.8056 9.16162 18.9651C8.08751 19.0435 7.72547 19.7053 7.73505 20.3344C7.7449 20.9855 8.16191 21.6046 9.16162 21.6776Z" fill="#3F3D3D"/>
<path d="M17.7844 23.6927C16.2876 22.0922 14.2314 22.2562 14.2314 22.2562C14.2314 22.2562 14.2301 24.3188 15.9436 25.6849C16.7858 26.3563 17.5007 26.116 17.9207 25.6474C18.3553 25.1624 18.4692 24.4248 17.7844 23.6927Z" fill="#FCDC97"/>
<path d="M13.9426 18.8528C14.9352 20.8066 16.9556 21.2211 16.9556 21.2211C16.9556 21.2211 17.5308 19.2404 16.2649 17.4515C15.6429 16.5723 14.8893 16.6042 14.3555 16.9375C13.8032 17.2823 13.4885 17.9592 13.9426 18.8528Z" fill="#3F3D3D"/>
<path d="M20.6534 13.4098C18.6374 12.5509 18.0879 10.5628 18.0879 10.5628C18.0879 10.5628 20.0254 9.85582 21.8955 10.9985C22.8144 11.56 22.8334 12.3141 22.5367 12.8691C22.2298 13.4433 21.5756 13.8027 20.6534 13.4098Z" fill="#3F3D3D"/>
<path d="M17.0287 13.0552C16.1697 15.0713 14.1817 15.6207 14.1817 15.6207C14.1817 15.6207 13.4745 13.6831 14.6173 11.8132C15.1789 10.8942 15.9329 10.8753 16.4879 11.1719C17.0622 11.4788 17.4215 12.133 17.0287 13.0552Z" fill="#3F3D3D"/>
<path d="M18.6705 20.2455C20.1994 18.6756 22.2518 18.881 22.2518 18.881C22.2518 18.881 22.2115 20.9432 20.4707 22.2744C19.6153 22.9287 18.9053 22.674 18.4949 22.197C18.0701 21.7035 17.9712 20.9636 18.6705 20.2455Z" fill="#3F3D3D"/>
<path d="M12.2915 14.6981C13.5739 16.4751 13.0172 18.4612 13.0172 18.4612C13.0172 18.4612 10.993 18.0654 9.98226 16.121C9.4855 15.1654 9.859 14.5101 10.3997 14.1881C10.959 13.855 11.7049 13.8853 12.2915 14.6981Z" fill="#FCDC97"/>
<path d="M21.877 27.6144C22.0366 25.4288 20.5208 24.03 20.5208 24.03C20.5208 24.03 19.0051 25.4288 19.1646 27.6144C19.243 28.6886 19.9047 29.0506 20.5339 29.041C21.185 29.0312 21.804 28.6141 21.877 27.6144Z" fill="#3F3D3D"/>
<path d="M18.519 17.5241C20.7046 17.6837 22.1035 16.1679 22.1035 16.1679C22.1035 16.1679 20.7046 14.6521 18.519 14.8117C17.4449 14.8901 17.0828 15.5518 17.0925 16.181C17.1023 16.8321 17.5194 17.4512 18.519 17.5241Z" fill="#FCDC97"/>
<path d="M24.6155 22.4348C23.1186 20.8343 21.0625 20.9983 21.0625 20.9983C21.0625 20.9983 21.0611 23.0608 22.7747 24.427C23.6168 25.0983 24.3317 24.858 24.7518 24.3895C25.1863 23.9046 25.3002 23.1669 24.6155 22.4348Z" fill="#FCDC97"/>
<path d="M23.069 18.8528C24.0616 20.8066 26.0821 21.2211 26.0821 21.2211C26.0821 21.2211 26.6572 19.2404 25.3914 17.4515C24.7693 16.5723 24.0157 16.6042 23.482 16.9375C22.9296 17.2823 22.615 17.9592 23.069 18.8528Z" fill="#3F3D3D"/>
<path d="M27.4723 15.948C25.4562 15.0891 24.9067 13.101 24.9067 13.101C24.9067 13.101 26.8443 12.3941 28.7144 13.5366C29.6334 14.0982 29.6521 14.8522 29.3556 15.4072C29.0487 15.9815 28.3944 16.3409 27.4723 15.948Z" fill="#3F3D3D"/>
<path d="M25.0013 11.2092C24.1424 13.2253 22.1542 13.7748 22.1542 13.7748C22.1542 13.7748 21.4473 11.8372 22.5899 9.96722C23.1515 9.04822 23.9055 9.02938 24.4605 9.32597C25.0347 9.63289 25.3942 10.2871 25.0013 11.2092Z" fill="#FCDC97"/>
<path d="M26.8741 22.8219C28.4031 21.252 30.4554 21.4574 30.4554 21.4574C30.4554 21.4574 30.4151 23.5196 28.6743 24.8509C27.8188 25.5051 27.1089 25.2504 26.6984 24.7734C26.2737 24.2799 26.1748 23.54 26.8741 22.8219Z" fill="#3F3D3D"/>
<path d="M9.80804 8.98404C11.9866 8.74771 13.4378 10.2134 13.4378 10.2134C13.4378 10.2134 12.0932 11.7774 9.90338 11.6948C8.82718 11.6542 8.44208 11.0056 8.42951 10.3765C8.41647 9.72549 8.81148 9.09213 9.80804 8.98404Z" fill="#3F3D3D"/>
<path d="M12.0263 22.561H11.6329C11.5668 22.622 10.0163 24.0811 10.1841 26.3798C10.2754 27.6299 11.0882 28.0754 11.8185 28.0754L11.8471 28.0752C12.575 28.0642 13.385 27.613 13.475 26.3798C13.6429 24.081 12.0924 22.622 12.0263 22.561ZM12.8965 26.3375C12.8213 27.369 12.1314 27.4907 11.8383 27.4952L11.8185 27.4953C11.4557 27.4953 10.8362 27.3449 10.7626 26.3375C10.6498 24.7914 11.4479 23.6512 11.8302 23.2C12.2131 23.6498 13.0099 24.7849 12.8965 26.3375Z" fill="#1D1D1B"/>
<path d="M12.9592 20.518L12.9591 20.1246C12.904 20.065 11.5862 18.6633 9.48346 18.6633C9.36983 18.6633 9.25444 18.6675 9.14046 18.6758C7.87318 18.7684 7.43371 19.5955 7.44504 20.3388C7.45603 21.0668 7.90723 21.8768 9.14046 21.9669C9.25436 21.9751 9.36978 21.9794 9.48341 21.9794C11.5862 21.9794 12.9041 20.5777 12.9592 20.518ZM9.48341 21.3993C9.38383 21.3993 9.28265 21.3956 9.18272 21.3883C8.15115 21.3129 8.02948 20.6231 8.025 20.33C8.0194 19.9602 8.16232 19.3288 9.18272 19.2544C9.28265 19.2471 9.38382 19.2434 9.48346 19.2434C10.8746 19.2434 11.8974 19.9636 12.3196 20.3213C11.8972 20.6793 10.8745 21.3993 9.48341 21.3993Z" fill="#1D1D1B"/>
<path d="M14.3965 21.9614C14.2821 21.9614 14.2151 21.9665 14.2079 21.9671L13.9409 22.2561C13.9409 22.346 13.9602 24.475 15.7624 25.9117C16.1603 26.2289 16.5663 26.3898 16.969 26.3899H16.9692C17.1915 26.3866 17.4106 26.3359 17.6119 26.2412C17.8131 26.1466 17.9919 26.0101 18.1362 25.841C18.6221 25.2988 18.8404 24.3976 17.9958 23.4946C16.6652 22.072 14.9044 21.9614 14.3965 21.9614ZM17.7042 25.4538C17.614 25.562 17.5018 25.6496 17.375 25.711C17.2483 25.7724 17.1099 25.8061 16.9692 25.8098C16.7011 25.8098 16.4166 25.6914 16.124 25.4581C14.9118 24.4917 14.6161 23.1317 14.5441 22.5447C15.1233 22.5685 16.5069 22.7519 17.5721 23.8909C18.2786 24.6462 17.8998 25.2355 17.7042 25.4538Z" fill="#1D1D1B"/>
<path d="M16.897 21.5054L17.2338 21.3021C17.2589 21.2158 17.8327 19.1655 16.5014 17.284C16.0026 16.5792 15.4472 16.4313 15.069 16.4313C14.7612 16.4351 14.4607 16.5253 14.2016 16.6915C13.584 17.0771 13.1236 17.8819 13.6836 18.9843C14.7276 21.0391 16.8089 21.4873 16.897 21.5054ZM14.5088 17.1836C14.6758 17.075 14.8699 17.0153 15.069 17.0113C15.4199 17.0113 15.7425 17.2158 16.0279 17.6191C16.9232 18.8844 16.829 20.2727 16.7348 20.857C16.1745 20.6697 14.9059 20.1094 14.2008 18.7215C13.7323 17.7995 14.2601 17.3388 14.5088 17.1836Z" fill="#1D1D1B"/>
<path d="M14.259 15.9003C14.3457 15.8763 16.3921 15.2892 17.2956 13.1689C17.7801 12.0313 17.2667 11.2593 16.6246 10.9161C16.3841 10.7848 16.1151 10.7145 15.8411 10.7114C15.4349 10.7114 14.8499 10.8763 14.3698 11.662C13.168 13.6286 13.8784 15.6357 13.9092 15.7202L14.259 15.9003ZM14.8648 11.9644C15.1377 11.5179 15.4662 11.2915 15.8411 11.2915C16.0197 11.2946 16.1949 11.3414 16.3512 11.4278C16.6097 11.5659 17.1673 11.99 16.7619 12.9416C16.1547 14.3667 14.9244 15.0149 14.377 15.2415C14.2437 14.6643 14.057 13.2863 14.8648 11.9644Z" fill="#1D1D1B"/>
<path d="M11.0925 13.6987C10.7956 13.7017 10.505 13.7846 10.2513 13.9389C9.61255 14.3192 9.13879 15.1273 9.72487 16.2548C10.7879 18.2998 12.8733 18.7286 12.9616 18.7458L13.2965 18.5394C13.3208 18.4529 13.8753 16.3973 12.5267 14.5283C12.0318 13.8426 11.4736 13.6987 11.0925 13.6987ZM12.7933 18.099C12.2313 17.9169 10.9575 17.3684 10.2396 15.9872C9.7677 15.0794 10.2303 14.6265 10.5481 14.4373C10.712 14.3365 10.9001 14.2818 11.0925 14.2788C11.4449 14.2788 11.7782 14.4825 12.0563 14.8678C12.9633 16.1247 12.8821 17.5138 12.7933 18.099Z" fill="#1D1D1B"/>
<path d="M20.7177 23.8169H20.3243C20.2582 23.8779 18.7077 25.3369 18.8755 27.6355C18.9667 28.8858 19.7796 29.3313 20.5099 29.3313L20.5385 29.3311C21.2665 29.32 22.0764 28.8688 22.1664 27.6356C22.3343 25.3369 20.7838 23.8779 20.7177 23.8169ZM21.5879 27.5933C21.5127 28.6249 20.8228 28.7466 20.5297 28.751L20.5099 28.7512C20.1471 28.7512 19.5275 28.6008 19.454 27.5933C19.3412 26.0472 20.1393 24.9071 20.5216 24.4558C20.9045 24.9056 21.7013 26.0408 21.5879 27.5933Z" fill="#1D1D1B"/>
<path d="M18.8409 14.5099C18.7273 14.5099 18.6119 14.5141 18.4979 14.5224C17.2305 14.6149 16.7911 15.4421 16.8025 16.1853C16.8129 16.8801 17.2632 17.7233 18.4979 17.8134C18.6118 17.8217 18.7272 17.8259 18.8408 17.8259H18.841C20.9437 17.8259 22.2615 16.4243 22.3166 16.3646L22.3165 15.9712C22.2615 15.9115 20.9436 14.5099 18.8409 14.5099ZM18.8409 17.2459C18.7412 17.2459 18.6401 17.2422 18.5401 17.2349C17.5085 17.1595 17.3868 16.4697 17.3824 16.1765C17.3768 15.8068 17.5197 15.1754 18.5401 15.101C18.6401 15.0936 18.7412 15.09 18.8409 15.09C20.2329 15.09 21.2561 15.811 21.6778 16.1685C21.2576 16.5264 20.239 17.2459 18.8409 17.2459Z" fill="#1D1D1B"/>
<path d="M22.0461 20.7771C22.3345 20.1858 22.5029 19.5433 22.5417 18.8866L22.2806 18.5923C22.2702 18.5913 22.1732 18.582 22.0098 18.582C21.3711 18.582 19.7469 18.7244 18.4627 20.043C17.5999 20.929 17.8 21.8342 18.275 22.386C18.4189 22.5622 18.5996 22.7048 18.8045 22.8038C19.0094 22.9027 19.2334 22.9556 19.4609 22.9587C19.8539 22.9587 20.253 22.806 20.6469 22.5047C20.7647 22.4146 20.8749 22.3214 20.9785 22.2261C21.2541 23.1823 21.8182 24.0301 22.5938 24.6537C22.9917 24.9709 23.3977 25.1318 23.8004 25.1318H23.8005C24.0229 25.1285 24.242 25.0779 24.4432 24.9832C24.6445 24.8886 24.8233 24.7521 24.9677 24.5829C25.4535 24.0407 25.6718 23.1396 24.8272 22.2366C24.0852 21.4584 23.108 20.9456 22.0461 20.7771ZM21.0394 20.709L20.7724 20.998C20.7765 21.1856 20.7943 21.3726 20.8257 21.5576C20.6633 21.7351 20.4856 21.8978 20.2945 22.0439C20.004 22.2661 19.7236 22.3787 19.4609 22.3787C19.317 22.375 19.1756 22.3399 19.0467 22.2759C18.9178 22.2118 18.8045 22.1202 18.7147 22.0077C18.5234 21.7855 18.1566 21.1888 18.8783 20.4478C19.9607 19.3363 21.3242 19.1746 21.9338 19.1629C21.8557 19.7037 21.6841 20.2267 21.4266 20.7085C21.3482 20.7048 21.2809 20.7034 21.2279 20.7034C21.1135 20.7034 21.0466 20.7085 21.0394 20.709ZM24.5357 24.1958C24.4455 24.3039 24.3333 24.3916 24.2065 24.453C24.0797 24.5144 23.9414 24.548 23.8006 24.5517C23.5324 24.5517 23.2481 24.4334 22.9555 24.2001C21.7433 23.2337 21.4476 21.8737 21.3756 21.2866C21.9548 21.3105 23.3384 21.4939 24.4036 22.6328C25.11 23.3882 24.7313 23.9775 24.5357 24.1958Z" fill="#1D1D1B"/>
<path d="M25.6278 17.284C25.1291 16.5792 24.5737 16.4313 24.1955 16.4313C23.8877 16.4351 23.5871 16.5253 23.3281 16.6915C22.7104 17.0771 22.2501 17.8819 22.8101 18.9843C23.854 21.0391 25.9354 21.4873 26.0234 21.5054L26.3603 21.3021C26.3854 21.2157 26.959 19.1654 25.6278 17.284ZM25.8612 20.857C25.3009 20.6697 24.0323 20.1094 23.3273 18.7216C22.8588 17.7994 23.3866 17.3389 23.6352 17.1836C23.8022 17.075 23.9963 17.0153 24.1954 17.0114C24.5463 17.0114 24.8689 17.2158 25.1543 17.6191C26.0496 18.8843 25.9554 20.2727 25.8612 20.857Z" fill="#1D1D1B"/>
<path d="M24.627 13.1784C24.6509 13.2651 25.2381 15.3115 27.3584 16.2149C27.626 16.3343 27.9151 16.3984 28.2081 16.4033C28.4989 16.4053 28.7844 16.3259 29.0324 16.174C29.2803 16.0222 29.4808 15.8039 29.6112 15.544C29.9615 14.8884 29.9495 13.9518 28.8653 13.2892C28.1066 12.8272 27.2337 12.5866 26.3453 12.5948C25.8234 12.5899 25.304 12.6688 24.8071 12.8286L24.627 13.1784ZM26.3453 13.1749C27.1269 13.1671 27.895 13.3782 28.5629 13.7842C29.4358 14.3177 29.2738 14.9445 29.0995 15.2706C29.0177 15.4371 28.8908 15.5772 28.7331 15.6749C28.5755 15.7726 28.3936 15.824 28.2081 15.8232C27.9933 15.8181 27.7816 15.7699 27.5858 15.6813C26.1598 15.0738 25.5116 13.8424 25.2854 13.2957C25.633 13.2155 25.9886 13.1749 26.3453 13.1749Z" fill="#1D1D1B"/>
<path d="M20.5395 13.6767C20.8072 13.7961 21.0962 13.8601 21.3893 13.865C21.5474 13.8653 21.7046 13.8421 21.856 13.7964C21.8694 13.8391 21.879 13.866 21.882 13.8742L22.2317 14.0544C22.3184 14.0304 24.365 13.4433 25.2683 11.3229C25.753 10.1854 25.2396 9.41338 24.5974 9.07017C24.3569 8.93887 24.0878 8.86858 23.8138 8.86548C23.4077 8.86548 22.8227 9.03038 22.3426 9.816C22.1754 10.0897 22.0366 10.3797 21.9285 10.6817C21.197 10.2649 20.3683 10.0492 19.5265 10.0565C19.0045 10.0516 18.4852 10.1306 17.9882 10.2904L17.8081 10.6401C17.8321 10.7268 18.4192 12.7733 20.5395 13.6767ZM22.8376 10.1185C23.1105 9.67192 23.4389 9.44557 23.8138 9.44557C23.9925 9.44863 24.1676 9.4954 24.324 9.58178C24.5825 9.71994 25.1401 10.1441 24.7347 11.0956C24.1272 12.5215 22.8958 13.1697 22.3489 13.396C22.2144 12.8207 22.026 11.4468 22.8376 10.1185ZM19.5265 10.6366C20.308 10.6288 21.0762 10.8399 21.744 11.246C21.7502 11.2497 21.7558 11.2536 21.7619 11.2573C21.6218 11.9064 21.6084 12.5764 21.7225 13.2305C21.6153 13.2673 21.5026 13.2857 21.3893 13.2849C21.1744 13.2799 20.9628 13.2316 20.7669 13.143C19.3405 12.5353 18.6924 11.3033 18.4664 10.7569C18.814 10.6767 19.1697 10.6363 19.5265 10.6366Z" fill="#1D1D1B"/>
<path d="M30.4842 21.1689C30.4738 21.1678 30.3768 21.1586 30.2135 21.1586C29.5747 21.1586 27.9506 21.301 26.6663 22.6196C25.8036 23.5054 26.0036 24.4107 26.4785 24.9626C26.6225 25.1388 26.8032 25.2814 27.0081 25.3803C27.213 25.4792 27.437 25.5322 27.6645 25.5353C28.0575 25.5353 28.4565 25.3825 28.8504 25.0813C30.6813 23.6812 30.7436 21.553 30.7453 21.4631L30.4842 21.1689ZM28.4981 24.6205C28.2076 24.8426 27.9272 24.9552 27.6645 24.9552C27.5206 24.9516 27.3792 24.9165 27.2503 24.8524C27.1214 24.7883 27.008 24.6968 26.9182 24.5843C26.727 24.3621 26.3602 23.7653 27.0819 23.0243C28.1638 21.9134 29.5263 21.7512 30.1364 21.7394C30.0526 22.3252 29.7294 23.6789 28.4981 24.6205Z" fill="#1D1D1B"/>
<path d="M9.89246 11.9846C9.95257 11.9869 10.0118 11.988 10.0707 11.988C12.2692 11.988 13.6021 10.4672 13.6577 10.4025L13.6439 10.0093C12.7284 9.16149 11.5309 8.6836 10.2832 8.66821C10.114 8.66829 9.94498 8.67747 9.77679 8.69572C8.5474 8.82904 8.12496 9.65441 8.13952 10.3823C8.15437 11.1255 8.62269 11.9368 9.89246 11.9846ZM9.83932 9.2724C9.98675 9.25642 10.1349 9.24837 10.2832 9.2483C11.6016 9.2483 12.5924 9.89736 13.0117 10.2283C12.5732 10.627 11.4634 11.463 9.91428 11.405C8.89189 11.3664 8.72681 10.7405 8.71945 10.3707C8.7136 10.0777 8.81098 9.38395 9.83932 9.2724Z" fill="#1D1D1B"/>
</svg>
