<svg width="36" height="37" viewBox="0 0 36 37" fill="none" xmlns="http://www.w3.org/2000/svg">
<rect x="0.266602" y="0.266602" width="34.8525" height="35.8525" rx="5.37787" fill="#E9E7FD"/>
<g clip-path="url(#clip0_484_13148)">
<g clip-path="url(#clip1_484_13148)">
<path d="M24.9677 28.0645V29.6128H18V28.0645H23.4194H24.9677Z" fill="#969FAA"/>
<path d="M29.6131 24.9678V28.8387C29.6131 29.0134 29.5555 29.1741 29.4588 29.3037L29.4583 29.3033L27.2905 24.9678H29.6131Z" fill="#D3A06C"/>
<path d="M27.2904 24.9678L24.9678 29.6129V28.0645V24.9678H27.2904Z" fill="#D3A06C"/>
<path d="M18.0003 28.0645V29.6129L15.6777 24.9678H18.0003V28.0645Z" fill="#D3A06C"/>
<path d="M15.6774 24.9678L13.3548 29.6129L11.0322 24.9678H15.6774Z" fill="#D3A06C"/>
<path d="M11.0324 24.9678L8.70979 29.6129L6.38721 24.9678H11.0324Z" fill="#D3A06C"/>
<path d="M27.2904 29.6129H24.9678L27.2904 24.9678L29.4581 29.3033L29.4586 29.3037C29.3168 29.4915 29.0918 29.6129 28.8387 29.6129H27.2904Z" fill="#CF9E76"/>
<path d="M15.6776 29.6129H13.355L15.6776 24.9678L18.0001 29.6129H15.6776Z" fill="#CF9E76"/>
<path d="M11.0325 29.6129H8.70996L11.0325 24.9678L13.3551 29.6129H11.0325Z" fill="#CF9E76"/>
<path d="M6.38721 24.9678L8.70979 29.6129H7.1614C6.73366 29.6129 6.38721 29.2665 6.38721 28.8387V24.9678Z" fill="#CF9E76"/>
<path d="M29.6129 21.8701V24.9669H27.2904H24.9678V21.8701L27.2904 23.4185L29.6129 21.8701Z" fill="#ECC19C"/>
<path d="M29.6129 18.7734V21.8702L27.2904 20.3218L24.9678 21.8702V19.5476C25.3955 19.5476 25.742 19.2012 25.742 18.7734H26.1291H29.2258H29.6129Z" fill="#ECC19C"/>
<path d="M18.0001 21.8701V24.9669H15.6775H11.0324H6.38721V23.4185L8.70979 21.8701L11.0324 23.4185L13.3549 21.8701L15.6775 23.4185L18.0001 21.8701Z" fill="#ECC19C"/>
<path d="M18.0001 19.5476V21.8702L15.6775 20.3218L13.3549 21.8702L11.0324 20.3218L8.70979 21.8702L6.38721 20.3218V18.7734H9.48398H12.5808H15.6775H17.2259C17.2259 19.2012 17.5724 19.5476 18.0001 19.5476Z" fill="#ECC19C"/>
<path d="M29.6129 21.8707L27.2904 23.419L24.9678 21.8707L27.2904 20.3223L29.6129 21.8707Z" fill="#CF9E76"/>
<path d="M18.0001 21.8707L15.6776 23.419L13.355 21.8707L15.6776 20.3223L18.0001 21.8707Z" fill="#CF9E76"/>
<path d="M13.3551 21.8707L11.0325 23.419L8.70996 21.8707L11.0325 20.3223L13.3551 21.8707Z" fill="#CF9E76"/>
<path d="M8.70979 21.8707L6.38721 23.419V20.3223L8.70979 21.8707Z" fill="#CF9E76"/>
<path d="M27.6773 16.4512L29.2257 18.7738H26.1289L27.6773 16.4512Z" fill="#D3A06C"/>
<path d="M17.2261 16.4512H18.0003C17.5726 16.4512 17.2261 16.7976 17.2261 17.2254V18.7738H15.6777L17.2261 16.4512Z" fill="#D3A06C"/>
<path d="M14.129 16.4512L15.6773 18.7738H12.5806L14.129 16.4512Z" fill="#D3A06C"/>
<path d="M11.0323 16.4512L12.5807 18.7738H9.48389L11.0323 16.4512Z" fill="#D3A06C"/>
<path d="M7.93559 16.4512L9.48398 18.7738H6.38721L7.93559 16.4512Z" fill="#D3A06C"/>
<path d="M29.6132 16.4512V18.7738H29.2261L27.6777 16.4512H28.0648H29.6132Z" fill="#CF9E76"/>
<path d="M27.6775 16.4512L26.1291 18.7738H25.742V17.2254C25.742 16.7976 25.3955 16.4512 24.9678 16.4512H25.742H27.6775Z" fill="#CF9E76"/>
<path d="M17.2257 16.4512L15.6773 18.7738L14.1289 16.4512H15.6773H17.2257Z" fill="#CF9E76"/>
<path d="M14.129 16.4512L12.5806 18.7738L11.0322 16.4512H14.129Z" fill="#CF9E76"/>
<path d="M11.0323 16.4512L9.48393 18.7738L7.93555 16.4512H10.2581H11.0323Z" fill="#CF9E76"/>
<path d="M7.93559 16.4512L6.38721 18.7738V16.4512H7.93559Z" fill="#CF9E76"/>
<path d="M22.28 8.92607C22.5151 9.32188 22.6453 9.78059 22.6453 10.2577H20.3227H18.0001H15.6776H13.355C13.355 9.30301 13.8761 8.42478 14.7142 7.96801L17.2734 6.57204C17.3847 6.51156 17.5032 6.46511 17.6251 6.43365C17.7471 6.40269 17.8734 6.38672 18.0001 6.38672C18.2542 6.38672 18.5039 6.45059 18.7269 6.57204L21.2861 7.96801C21.7051 8.1964 22.0448 8.53027 22.28 8.92607Z" fill="#FCD770"/>
<path d="M29.6132 14.8632V16.4508H28.0648L24.1938 13.3541L26.1293 11.8057L28.2337 12.741C29.0727 13.1141 29.6132 13.9453 29.6132 14.8632Z" fill="#FFEAA7"/>
<path d="M25.7421 16.4509H24.9679H20.3228L23.0324 14.2832L25.7421 16.4509Z" fill="#FFEAA7"/>
<path d="M22.6453 10.2578L24.636 11.1428L23.0324 12.4256L20.3228 10.2578H22.6453Z" fill="#FFEAA7"/>
<path d="M21.8708 13.3546L17.9999 16.4514L14.1289 13.3546L17.9999 10.2578L21.8708 13.3546Z" fill="#FFEAA7"/>
<path d="M15.6777 16.4509H14.1293H11.0325H10.2583L12.968 14.2832L15.6777 16.4509Z" fill="#FFEAA7"/>
<path d="M15.6775 10.2578L12.9678 12.4256L11.3643 11.1428L13.3549 10.2578H15.6775Z" fill="#FFEAA7"/>
<path d="M11.8066 13.3541L7.93559 16.4508H6.38721V14.8632C6.38721 13.9453 6.92769 13.1141 7.76672 12.741L9.87108 11.8057L11.8066 13.3541Z" fill="#FFEAA7"/>
<path d="M28.0645 16.4513H27.6774H25.7419L23.0322 14.2835L24.1935 13.3545L28.0645 16.4513Z" fill="#FCD770"/>
<path d="M26.129 11.806L24.1935 13.3544L23.0323 14.2834L20.3226 16.4511H18L21.871 13.3544L23.0323 12.4253L24.6358 11.1426L26.129 11.806Z" fill="#FCD770"/>
<path d="M23.0323 12.4256L21.871 13.3546L18 10.2578H20.3226L23.0323 12.4256Z" fill="#FCD770"/>
<path d="M18.0001 10.2578L14.1291 13.3546L12.9678 14.2836L10.2581 16.4514H7.93555L11.8065 13.3546L12.9678 12.4256L15.6775 10.2578H18.0001Z" fill="#FCD770"/>
<path d="M18 16.4513H17.2258H15.6775L12.9678 14.2835L14.1291 13.3545L18 16.4513Z" fill="#FCD770"/>
<path d="M12.9679 12.4253L11.8066 13.3544L9.87109 11.806L11.3643 11.1426L12.9679 12.4253Z" fill="#FCD770"/>
<path d="M18.7745 17.2254V18.7738C18.7745 19.2015 18.428 19.5479 18.0003 19.5479C17.5725 19.5479 17.2261 19.2015 17.2261 18.7738V17.2254C17.2261 16.7976 17.5725 16.4512 18.0003 16.4512C18.428 16.4512 18.7745 16.7976 18.7745 17.2254Z" fill="#969FAA"/>
<path d="M25.7419 17.2254V18.7738C25.7419 19.2015 25.3955 19.5479 24.9677 19.5479H23.4194H18C18.4277 19.5479 18.7742 19.2015 18.7742 18.7738V17.2254C18.7742 16.7976 18.4277 16.4512 18 16.4512H20.3226H24.9677C25.3955 16.4512 25.7419 16.7976 25.7419 17.2254Z" fill="#AAB2BD"/>
<path d="M24.9678 24.9672V28.064H23.4194V19.5479H24.9678V21.8704V24.9672Z" fill="#AAB2BD"/>
<path d="M23.4194 19.5479V28.064H18V24.9672V21.8704V19.5479H23.4194Z" fill="#CCD1D9"/>
<path d="M28.3908 12.3881L23.0213 10.0017C22.9361 9.00605 22.3585 8.11239 21.4712 7.62842L18.9123 6.23265C18.6332 6.08047 18.3178 6 18 6C17.6822 6 17.3668 6.08047 17.0877 6.23265L14.5288 7.62837C13.6415 8.11234 13.0639 9.006 12.9787 10.0016L7.60916 12.3881C6.63165 12.8226 6 13.7945 6 14.8642V28.8387C6 29.4791 6.52094 30 7.16129 30H28.8387C29.4791 30 30 29.4791 30 28.8387V14.8642C30 13.7945 29.3684 12.8226 28.3908 12.3881ZM27.9166 25.3548H29.2258V27.9732L27.9166 25.3548ZM15.2903 27.6774V29.2258H13.9812L15.6774 25.8333L17.3737 29.2258H16.0645V27.6774H15.2903ZM10.6452 27.6774V29.2258H9.336L11.0323 25.8333L12.7285 29.2258H11.4194V27.6774H10.6452ZM11.8065 12.8591L10.6097 11.9017L11.3061 11.5922L12.3481 12.4258L11.8065 12.8591ZM15.8132 10.6452H16.8964L10.1222 16.0645H9.039L15.8132 10.6452ZM20.1868 10.6452L22.4126 12.4258L21.871 12.8591L19.1035 10.6452H20.1868ZM25.3548 17.2258V18.7742C25.3548 18.9876 25.1812 19.1613 24.9677 19.1613H19.0947C19.1377 19.0401 19.1613 18.9099 19.1613 18.7742V17.2258C19.1613 17.0901 19.1377 16.9599 19.0947 16.8387H24.9677C25.1812 16.8387 25.3548 17.0124 25.3548 17.2258ZM18.3871 17.2258V18.7742C18.3871 18.9876 18.2134 19.1613 18 19.1613C17.7866 19.1613 17.6129 18.9876 17.6129 18.7742V17.2258C17.6129 17.0124 17.7866 16.8387 18 16.8387C18.2134 16.8387 18.3871 17.0124 18.3871 17.2258ZM16.8387 18.3871H16.4007L16.8387 17.7301V18.3871ZM16.5025 16.8387L15.6774 18.0764L14.8523 16.8387H16.5025ZM11.8574 18.3871H10.2072L11.0323 17.1495L11.8574 18.3871ZM11.7555 16.8387H13.4057L12.5806 18.0764L11.7555 16.8387ZM14.129 17.1495L14.9541 18.3871H13.3039L14.129 17.1495ZM14.129 13.8506L16.8965 16.0645H15.8132L13.5874 14.2839L14.129 13.8506ZM14.7487 13.3548L18 10.7538L21.2513 13.3548L18 15.9559L14.7487 13.3548ZM12.9677 14.7796L14.5739 16.0645H11.3616L12.9677 14.7796ZM10.309 16.8387L9.48387 18.0764L8.65877 16.8387H10.309ZM8.76058 18.3871H7.11039L7.93548 17.1495L8.76058 18.3871ZM16.9053 19.1613C17.0221 19.4907 17.2835 19.752 17.6129 19.8689V21.1477L15.6774 19.8573L13.3548 21.4057L11.0323 19.8573L8.70968 21.4057L6.77419 20.1154V19.1613H16.9053ZM17.3022 21.871L15.6774 22.9541L14.0527 21.871L15.6774 20.7878L17.3022 21.871ZM12.657 21.871L11.0323 22.9541L9.40752 21.871L11.0323 20.7878L12.657 21.871ZM6.77419 21.0459L8.01184 21.871L6.77419 22.6961V21.0459ZM6.77419 23.6265L8.70968 22.3362L11.0323 23.8845L13.3548 22.3362L15.6774 23.8845L17.6129 22.5942V24.5806H6.77419V23.6265ZM15.0511 25.3548L13.3548 28.7474L11.6586 25.3548H15.0511ZM17.6129 25.3548V27.9732L16.3037 25.3548H17.6129ZM18.3871 19.9355H23.0323V27.6774H18.3871V19.9355ZM23.8065 19.9355H24.5806V27.6774H23.8065V19.9355ZM23.0323 14.7796L24.6384 16.0645H21.4261L23.0323 14.7796ZM26.0625 16.8387H26.9541L26.129 18.0764V17.2258C26.129 17.0901 26.1054 16.9599 26.0625 16.8387ZM27.6774 17.1495L28.5025 18.3871H26.8523L27.6774 17.1495ZM29.2258 18.0764L28.4007 16.8387H29.2258V18.0764ZM25.8777 16.0645L23.6519 14.2839L24.1935 13.8506L26.961 16.0645H25.8777ZM20.1868 16.0645H19.1036L24.6939 11.5922L25.3903 11.9017L20.1868 16.0645ZM6.77419 17.4957V16.8387H7.21219L6.77419 17.4957ZM10.4059 25.3548L8.70968 28.7474L7.01342 25.3548H10.4059ZM18.3871 28.4516H24.5806V29.2258H18.3871V28.4516ZM25.3548 25.3548H26.664L25.3548 27.9732V25.3548ZM29.2258 24.5806H25.3548V22.5943L27.2903 23.8846L29.2258 22.5943V24.5806ZM25.6656 21.871L27.2903 20.7878L28.9151 21.871L27.2903 22.9541L25.6656 21.871ZM27.2903 19.8573L25.3548 21.1477V19.8689C25.6842 19.7521 25.9456 19.4907 26.0625 19.1613H29.2258V21.1477L27.2903 19.8573ZM29.2258 14.8642V16.0645H28.2003L24.8132 13.3548L26.187 12.2558L28.0764 13.0956C28.7746 13.4059 29.2258 14.1001 29.2258 14.8642ZM23.8972 11.2381L23.0323 11.9301L21.4261 10.6452H22.563L23.8972 11.2381ZM14.8995 8.30806L17.4584 6.91234C17.6241 6.82195 17.8114 6.77419 18 6.77419C18.1886 6.77419 18.3759 6.82195 18.5415 6.91229L21.1005 8.30806C21.6993 8.63463 22.1067 9.21315 22.223 9.87097H13.7771C13.8933 9.21319 14.3008 8.63463 14.8995 8.30806ZM13.437 10.6452H14.5739L12.9677 11.9301L12.1028 11.2381L13.437 10.6452ZM7.92358 13.0956L9.813 12.2558L11.1868 13.3548L7.79971 16.0645H6.77419V14.8642C6.77419 14.1001 7.22535 13.4059 7.92358 13.0956ZM6.77419 28.8387V26.6075L8.08335 29.2258H7.16129C6.94785 29.2258 6.77419 29.0521 6.77419 28.8387ZM27.6774 29.2258V27.6774H26.9032V29.2258H25.5941L27.2903 25.8333L28.9741 29.2009C28.9319 29.2167 28.8864 29.2258 28.8387 29.2258H27.6774Z" fill="black"/>
</g>
</g>
<defs>
<clipPath id="clip0_484_13148">
<rect width="24" height="24" fill="white" transform="translate(6 6)"/>
</clipPath>
<clipPath id="clip1_484_13148">
<rect width="24" height="24" fill="white" transform="translate(6 6)"/>
</clipPath>
</defs>
</svg>
