<svg width="36" height="37" viewBox="0 0 36 37" fill="none" xmlns="http://www.w3.org/2000/svg">
<rect x="0.266602" y="0.933594" width="34.8525" height="35.8525" rx="5.37787" fill="#E9E7FD"/>
<g clip-path="url(#clip0_808_4240)">
<path d="M25.875 8.875H28.125V18.625H25.875V8.875Z" fill="#4472B2"/>
<path d="M7.125 8.875H9.375V18.625H7.125V8.875Z" fill="#4472B2"/>
<path d="M6.375 7.375H28.875V8.875H6.375V7.375Z" fill="#A8B0BC"/>
<path d="M20.25 18.625V16.375H15V18.625" fill="#D6759E"/>
<path d="M15 16.375V17.7839C15.2966 17.8431 15.6112 17.875 15.9375 17.875C17.3963 17.875 18.6233 17.2401 19.002 16.375H15Z" fill="#F097D0"/>
<path d="M6.375 18.625H28.875V20.875H6.375V18.625Z" fill="#A8B0BC"/>
<path d="M9.375 27.625V29.875H7.875V27.625" fill="#3D98F7"/>
<path d="M15 27.625V29.875H13.5V27.625" fill="#3D98F7"/>
<path d="M21.75 27.625V29.875H20.25V27.625" fill="#3D98F7"/>
<path d="M27.375 27.625V29.875H25.875V27.625" fill="#3D98F7"/>
<path d="M28.875 9.25H6.375C6.168 9.25 6 9.08238 6 8.875V7.375C6 7.16763 6.168 7 6.375 7H28.875C29.082 7 29.25 7.16763 29.25 7.375V8.875C29.25 9.08238 29.082 9.25 28.875 9.25ZM6.75 8.5H28.5V7.75H6.75V8.5Z" fill="black"/>
<path d="M28.875 21.25H6.375C6.168 21.25 6 21.0824 6 20.875V18.625C6 18.4176 6.168 18.25 6.375 18.25H28.875C29.082 18.25 29.25 18.4176 29.25 18.625V20.875C29.25 21.0824 29.082 21.25 28.875 21.25ZM6.75 20.5H28.5V19H6.75V20.5Z" fill="black"/>
<path d="M6.75 8.875H7.5V18.625H6.75V8.875Z" fill="black"/>
<path d="M9 8.875H9.75V18.625H9V8.875Z" fill="black"/>
<path d="M6.85938 10.8604L9.10896 8.61077L9.63921 9.14102L7.38962 11.3906L6.85938 10.8604Z" fill="black"/>
<path d="M6.85938 11.3896L7.38962 10.8594L9.63921 13.109L9.10896 13.6392L6.85938 11.3896Z" fill="black"/>
<path d="M6.85889 15.3594L9.10847 13.1098L9.63872 13.64L7.38914 15.8896L6.85889 15.3594Z" fill="black"/>
<path d="M6.8584 15.8896L7.38865 15.3594L9.63823 17.609L9.10798 18.1392L6.8584 15.8896Z" fill="black"/>
<path d="M27.75 8.875H28.5V18.625H27.75V8.875Z" fill="black"/>
<path d="M25.5 8.875H26.25V18.625H25.5V8.875Z" fill="black"/>
<path d="M25.6074 9.14258L26.1377 8.61233L28.3873 10.8619L27.857 11.3922L25.6074 9.14258Z" fill="black"/>
<path d="M25.6069 13.1123L27.8565 10.8627L28.3868 11.393L26.1372 13.6426L25.6069 13.1123Z" fill="black"/>
<path d="M25.6069 13.6416L26.1372 13.1114L28.3868 15.3609L27.8565 15.8912L25.6069 13.6416Z" fill="black"/>
<path d="M25.6064 17.6113L27.856 15.3617L28.3863 15.892L26.1367 18.1416L25.6064 17.6113Z" fill="black"/>
<path d="M23.7324 9.1416L24.2627 8.61135L26.1374 10.4861L25.6071 11.0163L23.7324 9.1416Z" fill="black"/>
<path d="M23.7329 10.4863L24.858 9.36123L25.3883 9.89156L24.2632 11.0167L23.7329 10.4863Z" fill="black"/>
<path d="M20.6919 15.7949L23.6935 11.2953L24.3175 11.7115L21.3159 16.2112L20.6919 15.7949Z" fill="black"/>
<path d="M19.668 12.6836L23.0429 10.4323L23.4591 11.0563L20.0842 13.3076L19.668 12.6836Z" fill="black"/>
<path d="M9.10938 10.4854L10.9841 8.61065L11.5143 9.1409L9.63962 11.0156L9.10938 10.4854Z" fill="black"/>
<path d="M9.85889 9.89062L10.3892 9.36029L11.5143 10.4854L10.984 11.0157L9.85889 9.89062Z" fill="black"/>
<path d="M10.939 11.7051L11.563 11.2888L14.5645 15.7885L13.9405 16.2047L10.939 11.7051Z" fill="black"/>
<path d="M11.7939 11.0635L12.2102 10.4395L15.5851 12.6908L15.1688 13.3148L11.7939 11.0635Z" fill="black"/>
<path d="M20.625 18.625H19.875V16.75H15.375V18.625H14.625V16.375C14.625 16.1676 14.793 16 15 16H20.25C20.457 16 20.625 16.1676 20.625 16.375V18.625Z" fill="black"/>
<path d="M17.625 14.5C17.2114 14.5 16.875 14.1636 16.875 13.75C16.875 13.3364 17.2114 13 17.625 13C18.0386 13 18.375 13.3364 18.375 13.75C18.375 14.1636 18.0386 14.5 17.625 14.5Z" fill="black"/>
<path d="M18.3752 15.625H16.8752C16.7571 15.625 16.6461 15.5695 16.5752 15.475L15.4502 13.975L16.0502 13.5254L17.0627 14.8754H18.1877L19.2002 13.5254L19.8002 13.975L18.6752 15.475C18.6043 15.5695 18.4933 15.625 18.3752 15.625Z" fill="black"/>
<path d="M8.625 26.875C8.00475 26.875 7.5 26.3702 7.5 25.75C7.5 25.1298 8.00475 24.625 8.625 24.625C9.24525 24.625 9.75 25.1298 9.75 25.75C9.75 26.3702 9.24525 26.875 8.625 26.875ZM8.625 25.375C8.41838 25.375 8.25 25.543 8.25 25.75C8.25 25.957 8.41838 26.125 8.625 26.125C8.83162 26.125 9 25.957 9 25.75C9 25.543 8.83162 25.375 8.625 25.375Z" fill="black"/>
<path d="M9.37491 28H7.87491C7.76091 28 7.65328 27.9483 7.58203 27.8594L6.08203 25.9844L6.66778 25.5156L8.05491 27.25H9.19491L10.5824 25.5156L11.1682 25.9844L9.66816 27.8594C9.59653 27.9483 9.48891 28 9.37491 28Z" fill="black"/>
<path d="M9.375 30.25H7.875C7.668 30.25 7.5 30.0824 7.5 29.875V27.625H8.25V29.5H9V27.625H9.75V29.875C9.75 30.0824 9.582 30.25 9.375 30.25Z" fill="black"/>
<path d="M14.25 26.875C13.6298 26.875 13.125 26.3702 13.125 25.75C13.125 25.1298 13.6298 24.625 14.25 24.625C14.8702 24.625 15.375 25.1298 15.375 25.75C15.375 26.3702 14.8702 26.875 14.25 26.875ZM14.25 25.375C14.0434 25.375 13.875 25.543 13.875 25.75C13.875 25.957 14.0434 26.125 14.25 26.125C14.4566 26.125 14.625 25.957 14.625 25.75C14.625 25.543 14.4566 25.375 14.25 25.375Z" fill="black"/>
<path d="M14.9999 28H13.4999C13.3859 28 13.2783 27.9483 13.207 27.8594L11.707 25.9844L12.2928 25.5156L13.6799 27.25H14.8195L16.207 25.5156L16.7928 25.9844L15.2928 27.8594C15.2215 27.9483 15.1139 28 14.9999 28Z" fill="black"/>
<path d="M15 30.25H13.5C13.293 30.25 13.125 30.0824 13.125 29.875V27.625H13.875V29.5H14.625V27.625H15.375V29.875C15.375 30.0824 15.207 30.25 15 30.25Z" fill="black"/>
<path d="M21 26.875C20.3798 26.875 19.875 26.3702 19.875 25.75C19.875 25.1298 20.3798 24.625 21 24.625C21.6202 24.625 22.125 25.1298 22.125 25.75C22.125 26.3702 21.6202 26.875 21 26.875ZM21 25.375C20.7934 25.375 20.625 25.543 20.625 25.75C20.625 25.957 20.7934 26.125 21 26.125C21.2066 26.125 21.375 25.957 21.375 25.75C21.375 25.543 21.2066 25.375 21 25.375Z" fill="black"/>
<path d="M21.7499 28H20.2499C20.1359 28 20.0283 27.9483 19.957 27.8594L18.457 25.9844L19.0428 25.5156L20.4299 27.25H21.5695L22.957 25.5156L23.5428 25.9844L22.0428 27.8594C21.9715 27.9483 21.8639 28 21.7499 28Z" fill="black"/>
<path d="M21.75 30.25H20.25C20.043 30.25 19.875 30.0824 19.875 29.875V27.625H20.625V29.5H21.375V27.625H22.125V29.875C22.125 30.0824 21.957 30.25 21.75 30.25Z" fill="black"/>
<path d="M26.625 26.875C26.0048 26.875 25.5 26.3702 25.5 25.75C25.5 25.1298 26.0048 24.625 26.625 24.625C27.2452 24.625 27.75 25.1298 27.75 25.75C27.75 26.3702 27.2452 26.875 26.625 26.875ZM26.625 25.375C26.4184 25.375 26.25 25.543 26.25 25.75C26.25 25.957 26.4184 26.125 26.625 26.125C26.8316 26.125 27 25.957 27 25.75C27 25.543 26.8316 25.375 26.625 25.375Z" fill="black"/>
<path d="M27.3749 28H25.8749C25.7609 28 25.6533 27.9483 25.582 27.8594L24.082 25.9844L24.6678 25.5156L26.0549 27.25H27.1945L28.582 25.5156L29.1678 25.9844L27.6678 27.8594C27.5965 27.9483 27.4889 28 27.3749 28Z" fill="black"/>
<path d="M27.375 30.25H25.875C25.668 30.25 25.5 30.0824 25.5 29.875V27.625H26.25V29.5H27V27.625H27.75V29.875C27.75 30.0824 27.582 30.25 27.375 30.25Z" fill="black"/>
<path d="M23.625 24.25C23.0048 24.25 22.5 23.7452 22.5 23.125C22.5 22.5048 23.0048 22 23.625 22C24.2452 22 24.75 22.5048 24.75 23.125C24.75 23.7452 24.2452 24.25 23.625 24.25ZM23.625 22.75C23.4184 22.75 23.25 22.918 23.25 23.125C23.25 23.332 23.4184 23.5 23.625 23.5C23.8316 23.5 24 23.332 24 23.125C24 22.918 23.8316 22.75 23.625 22.75Z" fill="black"/>
<path d="M24.3749 25.375H22.8749C22.7609 25.375 22.6533 25.3233 22.582 25.2344L21.082 23.3594L21.6678 22.8906L23.0549 24.625H24.1945L25.582 22.8906L26.1678 23.3594L24.6678 25.2344C24.5965 25.3233 24.4889 25.375 24.3749 25.375Z" fill="black"/>
<path d="M17.625 24.25C17.0048 24.25 16.5 23.7452 16.5 23.125C16.5 22.5048 17.0048 22 17.625 22C18.2452 22 18.75 22.5048 18.75 23.125C18.75 23.7452 18.2452 24.25 17.625 24.25ZM17.625 22.75C17.4184 22.75 17.25 22.918 17.25 23.125C17.25 23.332 17.4184 23.5 17.625 23.5C17.8316 23.5 18 23.332 18 23.125C18 22.918 17.8316 22.75 17.625 22.75Z" fill="black"/>
<path d="M18.3749 25.375H16.8749C16.7609 25.375 16.6533 25.3233 16.582 25.2344L15.082 23.3594L15.6678 22.8906L17.0549 24.625H18.1945L19.582 22.8906L20.1678 23.3594L18.6678 25.2344C18.5965 25.3233 18.4889 25.375 18.3749 25.375Z" fill="black"/>
<path d="M11.625 24.25C11.0048 24.25 10.5 23.7452 10.5 23.125C10.5 22.5048 11.0048 22 11.625 22C12.2452 22 12.75 22.5048 12.75 23.125C12.75 23.7452 12.2452 24.25 11.625 24.25ZM11.625 22.75C11.4184 22.75 11.25 22.918 11.25 23.125C11.25 23.332 11.4184 23.5 11.625 23.5C11.8316 23.5 12 23.332 12 23.125C12 22.918 11.8316 22.75 11.625 22.75Z" fill="black"/>
<path d="M12.3749 25.375H10.8749C10.7609 25.375 10.6533 25.3233 10.582 25.2344L9.08203 23.3594L9.66778 22.8906L11.0549 24.625H12.1945L13.582 22.8906L14.1678 23.3594L12.6678 25.2344C12.5965 25.3233 12.4889 25.375 12.3749 25.375Z" fill="black"/>
</g>
<defs>
<clipPath id="clip0_808_4240">
<rect width="24" height="24" fill="white" transform="translate(6 6.66699)"/>
</clipPath>
</defs>
</svg>
