<svg width="36" height="37" viewBox="0 0 36 37" fill="none" xmlns="http://www.w3.org/2000/svg">
<rect x="0.266602" y="0.933594" width="34.8525" height="35.8525" rx="5.37787" fill="#E9E7FD"/>
<g clip-path="url(#clip0_808_4250)">
<g clip-path="url(#clip1_808_4250)">
<path d="M7.79053 21.3809H13.319V28.6183H7.79053V21.3809Z" fill="#FF9933"/>
<path d="M10.6203 22.667H8.86819C8.79512 22.667 8.73584 22.6078 8.73584 22.5347C8.73584 22.4616 8.79512 22.4023 8.86819 22.4023H10.6203C10.6934 22.4023 10.7527 22.4616 10.7527 22.5347C10.7527 22.6078 10.6934 22.667 10.6203 22.667Z" fill="white"/>
<path d="M12.022 21.3809V22.9723C12.022 25.3096 10.1272 27.2043 7.79004 27.2043V28.6184H13.3184V21.3809H12.022Z" fill="#FF8B22"/>
<path d="M22.6807 21.3809H28.2091V28.6183H22.6807V21.3809Z" fill="#FF9933"/>
<path d="M26.9126 21.3809V22.9723C26.9126 25.3096 25.018 27.2043 22.6807 27.2043V28.6184H28.209V21.3809H26.9126Z" fill="#FF8B22"/>
<path d="M28.3876 21.3807H7.61169C7.25741 21.3807 6.97021 21.0935 6.97021 20.7392V20.7352C6.97021 20.3809 7.25741 20.0938 7.61169 20.0938H28.3876C28.7418 20.0938 29.029 20.3809 29.029 20.7352V20.7392C29.029 21.0935 28.7418 21.3807 28.3876 21.3807Z" fill="#FFCC33"/>
<path d="M29.0295 29.1476V30.0299H6.9707V29.1476C6.9707 28.8552 7.20773 28.6182 7.50011 28.6182H28.5001C28.7925 28.6182 29.0295 28.8552 29.0295 29.1476Z" fill="#77E244"/>
<path d="M29.0299 29.1466V30.029H25.444V29.1466C25.444 28.8537 25.2075 28.6172 24.9146 28.6172H28.5004C28.7934 28.6172 29.0299 28.8537 29.0299 29.1466Z" fill="#62D333"/>
<path d="M13.3193 20.2559H22.6793V28.6184H13.3193V20.2559Z" fill="#FFEAA9"/>
<path d="M14.8955 21.5128H14.5264C14.4533 21.5128 14.394 21.4535 14.394 21.3804C14.394 21.3073 14.4533 21.248 14.5264 21.248H14.8955C14.9686 21.248 15.0279 21.3073 15.0279 21.3804C15.0279 21.4535 14.9686 21.5128 14.8955 21.5128Z" fill="white"/>
<path d="M18.7106 21.5128H15.8018C15.7287 21.5128 15.6694 21.4535 15.6694 21.3804C15.6694 21.3073 15.7287 21.248 15.8018 21.248H18.7106C18.7837 21.248 18.843 21.3073 18.843 21.3804C18.843 21.4535 18.7837 21.5128 18.7106 21.5128Z" fill="white"/>
<path d="M21.0845 20.2559V21.0389C21.0845 25.3272 17.6081 27.0279 13.3198 27.0279L13.3198 28.6185H22.6797V20.2559H21.0845Z" fill="#F9DA93"/>
<path d="M22.6795 18.8081H13.3198C13.3198 16.2153 15.4068 14.1152 17.9995 14.1152C20.5923 14.1152 22.6795 16.2153 22.6795 18.8081Z" fill="#FFEAA9"/>
<path d="M22.6805 18.8067H13.3184C13.3184 18.3963 13.3724 17.9995 13.4716 17.6252H17.9082C19.6156 17.6252 20.5465 15.5589 19.3548 14.3361L19.3297 14.3105C21.2689 14.8788 22.6805 16.6736 22.6805 18.8067Z" fill="#F9DA93"/>
<path d="M19.8246 24.6489V28.6172H16.1753V24.6489C16.1753 23.6412 16.9922 22.8242 18 22.8242C19.0077 22.8242 19.8246 23.6412 19.8246 24.6489Z" fill="#666666"/>
<path d="M19.6639 23.9011C19.4338 23.7974 19.1814 23.7387 18.9153 23.7387C17.9096 23.7387 17.0933 24.5595 17.0933 25.5651V28.6182H16.1733V24.6497C16.1733 23.6395 16.9941 22.8232 17.9998 22.8232C18.5049 22.8232 18.9604 23.0262 19.2896 23.3599C19.4474 23.5132 19.5737 23.6981 19.6639 23.9011Z" fill="#595857"/>
<path d="M26.8229 28.6182V25.876C26.8229 25.1155 26.2064 24.499 25.4459 24.499C24.6854 24.499 24.0688 25.1155 24.0688 25.876V28.6182H26.8229Z" fill="#666666"/>
<path d="M24.7617 28.6177V26.5673C24.7617 25.8083 25.3777 25.1889 26.1366 25.1889C26.3375 25.1889 26.528 25.2332 26.7016 25.3114C26.6335 25.1583 26.5382 25.0188 26.4192 24.9031C26.1707 24.6512 25.827 24.498 25.4458 24.498C24.6868 24.498 24.0674 25.1141 24.0674 25.8764V28.6177H24.7617Z" fill="#595857"/>
<path d="M11.9323 28.6182V25.876C11.9323 25.1155 11.3158 24.499 10.5553 24.499C9.79477 24.499 9.17822 25.1155 9.17822 25.876V28.6182H11.9323Z" fill="#666666"/>
<path d="M9.87105 28.6177V26.5673C9.87105 25.8083 10.4871 25.1889 11.246 25.1889C11.4469 25.1889 11.6374 25.2332 11.811 25.3114C11.7429 25.1583 11.6476 25.0188 11.5285 24.9031C11.2801 24.6512 10.9363 24.498 10.5552 24.498C9.79617 24.498 9.17676 25.1141 9.17676 25.8764V28.6177H9.87105Z" fill="#595857"/>
<path d="M23.3924 20.2552H12.6068C12.2083 20.2552 11.8853 19.9321 11.8853 19.5336V19.5292C11.8853 19.1307 12.2083 18.8076 12.6068 18.8076H23.3924C23.7909 18.8076 24.1139 19.1307 24.1139 19.5292V19.5336C24.1139 19.9321 23.7909 20.2552 23.3924 20.2552Z" fill="#666666"/>
<path d="M15.4437 16.9208C15.4151 16.9208 15.3863 16.9115 15.362 16.8925C15.3046 16.8474 15.2947 16.7641 15.3398 16.7066C15.8558 16.0501 16.5906 15.6095 17.4087 15.4659C17.4809 15.4532 17.5495 15.5012 17.5619 15.5733C17.5746 15.6453 17.5266 15.7139 17.4545 15.7265C16.7007 15.859 16.0236 16.265 15.548 16.8703C15.5218 16.9034 15.483 16.9208 15.4437 16.9208Z" fill="white"/>
<path d="M25.186 10.084C25.186 9.45165 25.695 8.93945 26.3274 8.93945C26.9597 8.93945 27.4688 9.45165 27.4688 10.084V11.1069H25.186V10.084Z" fill="#FFEAA9"/>
<path d="M25.186 12.2852H27.4689V20.0943H25.186V12.2852Z" fill="#FFEAA9"/>
<path d="M26.3276 12.2852H27.469V20.0943H26.3276V12.2852Z" fill="#F9DA93"/>
<path d="M28.0477 11.6957C28.0477 12.0211 27.7839 12.285 27.4584 12.285H25.1962C24.8708 12.285 24.6069 12.0211 24.6069 11.6957C24.6069 11.3703 24.8708 11.1064 25.1962 11.1064H27.4584C27.7839 11.1064 28.0477 11.3703 28.0477 11.6957Z" fill="#FF9933"/>
<path d="M8.53076 10.084C8.53076 9.45165 9.03976 8.93945 9.6721 8.93945C10.3045 8.93945 10.8135 9.45165 10.8135 10.084V11.1069H8.53076V10.084Z" fill="#FFEAA9"/>
<path d="M8.53076 12.2852H10.8136V20.0943H8.53076V12.2852Z" fill="#FFEAA9"/>
<path d="M9.67188 12.2852H10.8133V20.0943H9.67188V12.2852Z" fill="#F9DA93"/>
<path d="M11.3924 11.6957C11.3924 12.0211 11.1286 12.285 10.8032 12.285H8.54092C8.21548 12.285 7.95166 12.0211 7.95166 11.6957C7.95166 11.3703 8.21548 11.1064 8.54092 11.1064H10.8032C11.1286 11.1064 11.3924 11.3703 11.3924 11.6957Z" fill="#FF9933"/>
<path d="M20.3705 10.6698C20.2079 11.8257 19.2147 12.7123 18.0138 12.7123C16.7008 12.7123 15.6289 11.6462 15.6289 10.3275C15.6289 9.12665 16.5156 8.13904 17.6603 7.9707C17.1497 8.32422 16.813 8.91341 16.813 9.58117C16.813 10.6585 17.6884 11.5283 18.7601 11.5283C19.4278 11.5283 20.0227 11.186 20.3705 10.6698Z" fill="#FF9933"/>
<path d="M28.5 28.3535H28.4738V21.6366C28.9326 21.5924 29.2938 21.209 29.2938 20.7352C29.2938 20.2356 28.8873 19.8291 28.3875 19.8291H27.7335V12.5002C28.0691 12.3851 28.3125 12.0698 28.3125 11.6956C28.3125 11.3215 28.0691 11.0063 27.7335 10.8911V10.0836C27.7335 9.39738 27.2411 8.82576 26.5921 8.70108V7.97111C26.5921 7.82497 26.4735 7.70641 26.3274 7.70641C26.1813 7.70641 26.0627 7.82497 26.0627 7.97111V8.70108C25.4137 8.82576 24.9213 9.39738 24.9213 10.0836V10.8911C24.5857 11.0063 24.3423 11.3215 24.3423 11.6958C24.3423 12.0699 24.5857 12.3851 24.9213 12.5003V19.8291H24.3278C24.358 19.7341 24.3786 19.6348 24.3786 19.5296C24.3786 18.9857 23.9363 18.5433 23.3924 18.5433H22.931C22.7971 16.0215 20.7796 13.9984 18.2644 13.8639V12.9651C19.4656 12.85 20.4622 11.918 20.6326 10.7071C20.6498 10.5851 20.5804 10.4672 20.4653 10.4231C20.3503 10.3785 20.22 10.4202 20.1509 10.5222C19.8378 10.9868 19.3179 11.2641 18.76 11.2641C17.8323 11.2641 17.0775 10.5093 17.0775 9.58158C17.0775 9.02735 17.3517 8.50655 17.8108 8.18877C17.912 8.1188 17.9516 7.98834 17.9065 7.87391C17.8615 7.75965 17.7434 7.6902 17.6218 7.70916C16.3348 7.89855 15.3642 9.02424 15.3642 10.328C15.3642 11.6947 16.4046 12.8227 17.735 12.9625V13.8639C15.2199 13.9984 13.2024 16.0215 13.0686 18.5433H12.6068C12.0629 18.5433 11.6206 18.9857 11.6206 19.5341C11.6206 19.6375 11.641 19.7354 11.6707 19.8291H11.0782V12.5003C11.4138 12.3851 11.6573 12.0699 11.6573 11.6956C11.6573 11.3215 11.4138 11.0062 11.0782 10.8911V10.0836C11.0782 9.39738 10.5858 8.82576 9.93684 8.70108V7.97111C9.93684 7.82497 9.81827 7.70641 9.67214 7.70641C9.526 7.70641 9.40743 7.82497 9.40743 7.97111V8.70108C8.75846 8.82576 8.26605 9.39738 8.26605 10.0836V10.8911C7.93043 11.0063 7.68701 11.3216 7.68701 11.6958C7.68701 12.0699 7.93043 12.3851 8.26605 12.5002V19.8291H7.6117C7.1121 19.8291 6.70557 20.2357 6.70557 20.7392C6.70557 21.2093 7.06682 21.5925 7.52553 21.6366V28.3535H7.50003C7.06213 28.3535 6.70591 28.7097 6.70591 29.1476V30.0299C6.70591 30.1761 6.82448 30.2946 6.97061 30.2946H29.0294C29.1756 30.2946 29.2941 30.1761 29.2941 30.0299V29.1476C29.2941 28.7097 28.9379 28.3535 28.5 28.3535ZM26.5578 28.3535H24.3332V25.8762C24.3332 25.2628 24.8322 24.7637 25.4456 24.7637C26.0589 24.7637 26.5578 25.2628 26.5578 25.8762L26.5578 28.3535ZM25.4456 24.2343C24.5403 24.2343 23.8037 24.9709 23.8037 25.8762V28.3535H22.9453V21.6453H27.9444V28.3535H27.0872V25.8762C27.0872 24.9709 26.3508 24.2343 25.4456 24.2343ZM21.252 25.117C21.1058 25.117 20.9873 25.2356 20.9873 25.3817V28.3535H20.0891V24.6486C20.0891 23.4966 19.1517 22.5592 17.9997 22.5592C16.8476 22.5592 15.9103 23.4966 15.9103 24.6486V28.3535H15.0119V25.3817C15.0119 25.2356 14.8934 25.117 14.7472 25.117C14.6011 25.117 14.4825 25.2356 14.4825 25.3817V28.3535H13.5843V20.5202H22.4149V28.3535H21.5167V25.3817C21.5167 25.2356 21.3981 25.117 21.252 25.117ZM16.4397 28.3521V24.6486C16.4397 23.7885 17.1396 23.0886 17.9997 23.0886C18.8598 23.0886 19.5597 23.7885 19.5597 24.6486V28.3521C19.5597 28.3521 16.4397 28.3521 16.4397 28.3521ZM28.7644 20.7392C28.7644 20.9469 28.5953 21.1159 28.3875 21.1159C27.1401 21.1159 24.5909 21.1159 22.9443 21.1159V20.5202H23.3924C23.5909 20.5202 23.7753 20.4601 23.9301 20.3585C24.0054 20.3585 28.5455 20.3585 28.3875 20.3585C28.5953 20.3585 28.7644 20.5276 28.7644 20.7392ZM26.3274 16.1115C26.1813 16.1115 26.0627 16.2301 26.0627 16.3762V17.2263H25.4507V15.1526H27.2041V17.2263H26.5921V16.3762C26.5921 16.2301 26.4735 16.1115 26.3274 16.1115ZM27.2041 14.6232H26.5921V13.7731C26.5921 13.627 26.4735 13.5084 26.3274 13.5084C26.1813 13.5084 26.0627 13.627 26.0627 13.7731V14.6232H25.4507V12.5497H27.2041L27.2041 14.6232ZM25.4507 10.0836C25.4507 9.59847 25.844 9.20365 26.3274 9.20365C26.8108 9.20365 27.2041 9.59847 27.2041 10.0836V10.8417H25.4507L25.4507 10.0836ZM25.1962 11.3711H27.4584C27.6375 11.3711 27.7831 11.5167 27.7831 11.6956C27.7831 11.8745 27.6375 12.0203 27.4584 12.0203H25.1962C25.0173 12.0203 24.8717 11.8747 24.8717 11.6956C24.8717 11.5167 25.0173 11.3711 25.1962 11.3711ZM25.4507 17.7558H27.2041V19.8291H26.5921V18.9792C26.5921 18.833 26.4735 18.7145 26.3274 18.7145C26.1813 18.7145 26.0627 18.833 26.0627 18.9792V19.8291H25.4507L25.4507 17.7558ZM15.8936 10.328C15.8936 9.63345 16.2377 9.00185 16.7716 8.61289C16.6267 8.91085 16.5481 9.24139 16.5481 9.58158C16.5481 10.8012 17.5404 11.7935 18.76 11.7935C19.1016 11.7935 19.4325 11.7146 19.7299 11.5686C19.342 12.1035 18.7106 12.448 18.0136 12.448C18.0108 12.448 18.0081 12.4476 18.0053 12.4476C18.0033 12.4475 18.0017 12.4465 17.9997 12.4465C17.9985 12.4465 17.9975 12.4471 17.9963 12.4471C16.8354 12.4377 15.8936 11.4911 15.8936 10.328ZM17.9997 14.3799C20.3457 14.3799 22.2701 16.2244 22.4071 18.5433H13.5924C13.7294 16.2244 15.6539 14.3799 17.9997 14.3799ZM12.6068 19.0727H23.3924C23.6443 19.0727 23.8492 19.2776 23.8492 19.5341C23.8492 19.7733 23.6372 19.9908 23.3924 19.9908C18.9095 19.9908 17.0425 19.9908 12.6068 19.9908C12.3549 19.9908 12.15 19.7859 12.15 19.5296C12.15 19.2776 12.3549 19.0727 12.6068 19.0727ZM9.67213 16.1115C9.52599 16.1115 9.40743 16.2301 9.40743 16.3762V17.2263H8.79547V15.1526H10.5488V17.2263H9.93683V16.3762C9.93684 16.2301 9.81827 16.1115 9.67213 16.1115ZM10.5488 14.6232H9.93683V13.7731C9.93683 13.627 9.81827 13.5084 9.67213 13.5084C9.52599 13.5084 9.40742 13.627 9.40742 13.7731V14.6232H8.79547V12.5497H10.5488V14.6232ZM8.79547 10.0836C8.79547 9.59847 9.18873 9.20365 9.67213 9.20365C10.1555 9.20365 10.5488 9.59847 10.5488 10.0836V10.8417H8.79547V10.0836ZM8.5411 11.3711H10.8033C10.9822 11.3711 11.1278 11.5167 11.1278 11.6956C11.1278 11.8745 10.9822 12.0203 10.8033 12.0203H8.5411C8.36205 12.0203 8.21642 11.8747 8.21642 11.6956C8.21642 11.5167 8.36204 11.3711 8.5411 11.3711ZM8.79547 17.7558H10.5488V19.8291H9.93683V18.9792C9.93683 18.833 9.81827 18.7145 9.67213 18.7145C9.52599 18.7145 9.40742 18.833 9.40742 18.9792V19.8291H8.79547V17.7558ZM7.23497 20.7352C7.23497 20.5276 7.40403 20.3585 7.6117 20.3585C7.57639 20.3586 8.59015 20.3589 12.0686 20.3585C12.2236 20.46 12.4081 20.5202 12.6068 20.5202H13.0549V21.1159C11.4085 21.1159 8.85904 21.1159 7.6117 21.1159C7.40404 21.1159 7.23497 20.9469 7.23497 20.7352ZM8.05494 21.6453H13.0538V28.3535H12.1968V25.8762C12.1968 24.9709 11.4603 24.2343 10.555 24.2343C9.64972 24.2343 8.91334 24.9709 8.91334 25.8762V28.3535H8.05494V21.6453ZM11.6674 28.3535H9.44275V25.8762C9.44275 25.2628 9.94166 24.7637 10.555 24.7637C11.1683 24.7637 11.6674 25.2628 11.6674 25.8762V28.3535ZM28.7647 29.7652H7.23532V29.1476C7.23532 29.0016 7.35406 28.8829 7.50003 28.8829C7.66883 28.8829 29.7829 28.8829 28.5 28.8829C28.646 28.8829 28.7647 29.0016 28.7647 29.1476V29.7652Z" fill="#1A1D1F"/>
</g>
</g>
<defs>
<clipPath id="clip0_808_4250">
<rect width="24" height="24" fill="white" transform="translate(6 6.66699)"/>
</clipPath>
<clipPath id="clip1_808_4250">
<rect width="24" height="24" fill="white" transform="translate(6 7)"/>
</clipPath>
</defs>
</svg>
