<svg width="38" height="38" viewBox="0 0 38 38" fill="none" xmlns="http://www.w3.org/2000/svg">
<rect width="38" height="38" rx="19" fill="#E4E4E4"/>
<g clip-path="url(#clip0_100_434)">
<path d="M30.2427 20.6582C29.9811 20.4036 29.5951 20.7863 29.8484 21.0501C31.1051 22.2462 31.2778 23.4706 29.887 24.6902C29.6534 24.6232 29.4141 24.5778 29.1723 24.5545C29.1359 24.5509 29.0993 24.5546 29.0643 24.5652C29.0294 24.5758 28.9969 24.5932 28.9687 24.6163C28.9117 24.6631 28.8757 24.7306 28.8685 24.804C28.865 24.8403 28.8686 24.877 28.8792 24.9119C28.8898 24.9469 28.9072 24.9794 28.9304 25.0076C28.9535 25.0358 28.982 25.0591 29.0142 25.0763C29.0464 25.0935 29.0817 25.1042 29.118 25.1078C29.3649 25.13 29.6084 25.181 29.8435 25.2597C29.9547 25.3133 30.9988 25.8496 30.7675 27.0271C30.6902 27.4205 30.423 27.7397 29.9734 27.9759C29.941 27.9928 29.9124 28.016 29.889 28.0441C29.8656 28.0721 29.848 28.1045 29.8371 28.1393C29.8263 28.1742 29.8224 28.2109 29.8257 28.2472C29.829 28.2836 29.8394 28.3189 29.8564 28.3513C29.8734 28.3836 29.8965 28.4123 29.9246 28.4356C29.9526 28.459 29.985 28.4766 30.0199 28.4875C30.0547 28.4984 30.0914 28.5022 30.1277 28.4989C30.1641 28.4956 30.1994 28.4852 30.2318 28.4682C30.838 28.1499 31.2019 27.701 31.3131 27.1341C31.5227 26.0672 30.9378 25.3308 30.4175 24.9563C31.8927 23.5536 31.6575 21.9966 30.2427 20.6582Z" fill="black"/>
<path d="M10.1128 23.5528C10.0572 23.8455 9.97163 24.5572 10.3554 24.5983C10.4122 24.6038 10.4695 24.5918 10.5194 24.564C10.5693 24.5362 10.6096 24.4938 10.6348 24.4425C10.6482 24.4151 10.9763 23.7675 12.0038 23.7544C12.6899 23.75 13.3678 23.604 13.995 23.3256C14.3411 23.1654 14.7301 23.1225 15.1029 23.2035C15.4757 23.2845 15.8118 23.4849 16.0603 23.7743C16.8279 24.6774 18.6743 27.2001 18.6761 29.1296C18.6532 30.8497 18.6235 31.9597 18.6232 31.9707C18.6212 32.0444 18.6486 32.1159 18.6993 32.1694C18.75 32.223 18.82 32.2542 18.8937 32.2561C18.9674 32.2581 19.0389 32.2308 19.0924 32.18C19.1459 32.1293 19.1771 32.0594 19.1791 31.9857C19.1791 31.9747 19.2092 30.8612 19.2321 29.137C19.2415 27.0398 17.3386 24.4257 16.4826 23.4126C16.1564 23.0315 15.7148 22.7673 15.2247 22.6601C14.7347 22.5528 14.2231 22.6085 13.7675 22.8185C13.2096 23.0655 12.6068 23.1948 11.9966 23.1982C11.3931 23.2062 10.9652 23.3896 10.6731 23.598C10.8043 23.0935 11.198 22.5418 11.963 22.2764C13.2707 21.8227 13.548 21.3012 13.5903 21.2012C13.6052 21.1656 13.6124 21.1272 13.6117 21.0886C13.611 21.0501 13.6023 21.012 13.5862 20.977C13.57 20.9419 13.5468 20.9106 13.518 20.8849C13.4891 20.8593 13.4553 20.8399 13.4186 20.828C12.2507 20.4566 12.0382 19.5436 12.0114 19.0576C12.8309 19.3163 13.5675 19.7868 14.1469 20.4215C14.1838 20.4644 14.2329 20.495 14.2877 20.5094C14.3424 20.5238 14.4002 20.5212 14.4535 20.5021C14.5067 20.483 14.5529 20.4481 14.586 20.4022C14.619 20.3563 14.6374 20.3014 14.6387 20.2448C14.6387 20.239 14.6466 19.6413 14.9867 18.4745C15.1125 18.059 15.1441 17.6206 15.0792 17.1914C15.9227 18.108 15.7905 19.2889 15.4796 20.1967C15.3772 20.4926 15.3659 20.8124 15.4472 21.1147C15.5286 21.4171 15.6988 21.6881 15.9358 21.8926C17.0723 22.8701 18.0211 24.0466 18.7355 25.3645C18.8634 25.6144 19.264 25.5197 19.2587 25.2338C19.2596 22.4088 19.219 19.8315 19.1377 17.5736C19.1154 16.9265 18.8565 16.31 18.4101 15.8409C17.9637 15.3719 17.3608 15.0828 16.7156 15.0285C16.4715 15.0074 16.1695 15.0077 15.9485 14.9106C15.6416 14.7873 15.1741 14.4928 14.9226 13.8053C15.3486 14.1251 15.8665 14.2986 16.3991 14.3002C17.5044 14.3002 18.3703 14.324 18.628 14.6288C18.6687 14.6754 18.7238 14.707 18.7845 14.7189C18.8452 14.7307 18.9081 14.7221 18.9634 14.6943C19.0187 14.6665 19.0631 14.6211 19.0898 14.5653C19.1165 14.5095 19.1239 14.4465 19.1108 14.386C19.1064 14.3669 18.7203 12.6147 19.8476 10.8517C19.9785 11.1981 20.1434 11.5306 20.34 11.8443C20.5814 12.2902 20.704 12.7906 20.696 13.2976C20.6934 13.315 20.6926 13.3326 20.6935 13.3502C20.6746 13.7422 20.5542 14.1226 20.3441 14.4541C20.3127 14.5055 20.2988 14.5658 20.3045 14.6258C20.3102 14.6858 20.3352 14.7424 20.3758 14.787C20.4163 14.8316 20.4702 14.862 20.5294 14.8734C20.5886 14.8849 20.6499 14.8768 20.7041 14.8506C20.8343 14.7853 23.6352 13.4165 25.318 15.3673C25.0429 15.2788 24.7633 15.2049 24.4804 15.146C22.3537 14.6608 20.1748 16.3728 20.1476 18.5548C20.0675 21.0026 19.9596 25.6853 20.1365 29.5445C20.1384 29.5863 20.1497 29.627 20.1696 29.6638C20.1894 29.7006 20.2173 29.7324 20.2512 29.7569C20.285 29.7814 20.324 29.798 20.3651 29.8053C20.4062 29.8127 20.4485 29.8107 20.4888 29.7995C22.9664 29.109 23.2234 27.3262 23.2332 27.2504C23.2397 27.1997 23.2321 27.1483 23.2113 27.1016C23.1905 27.055 23.1572 27.015 23.1152 26.986C21.7614 26.0533 21.7874 24.5719 21.9756 23.6394C22.1304 24.0077 22.3626 24.4124 22.7009 24.7025C23.307 25.222 23.3843 25.8325 23.3871 25.8566C23.3942 25.9164 23.4204 25.9723 23.4618 26.016C23.5033 26.0596 23.5577 26.0887 23.6171 26.0989C23.6764 26.1091 23.7375 26.0998 23.7911 26.0725C23.8447 26.0451 23.8881 26.0011 23.9147 25.9471C24.7364 24.2142 25.7646 23.8233 26.209 23.7355C26.3616 24.7264 26.24 25.354 26.0147 25.8266C25.699 26.4669 25.2066 26.635 25.1723 26.646C25.1099 26.6656 25.0563 26.7066 25.0211 26.7617C24.9858 26.8169 24.9711 26.8827 24.9795 26.9476C24.9879 27.0125 25.0189 27.0723 25.0671 27.1167C25.1152 27.161 25.1775 27.187 25.2428 27.19C27.1693 27.2843 28.625 27.7627 28.751 29.2554C28.2768 29.0013 27.401 28.6757 26.1375 28.7789C25.5803 28.8239 25.1614 28.7237 24.8937 28.4807C24.7043 28.3005 24.5895 28.0559 24.572 27.7951C24.572 27.7262 24.5464 27.6598 24.5003 27.6087C24.4542 27.5576 24.3907 27.5255 24.3222 27.5185C24.2538 27.5115 24.1851 27.5302 24.1296 27.5709C24.0741 27.6116 24.0357 27.6715 24.0218 27.7389C23.4863 30.6051 20.3235 29.5527 20.3022 32.0041C20.3419 32.3632 20.8761 32.3191 20.8561 31.9565C20.8537 31.9224 20.8085 31.1157 21.8269 30.6998C22.8507 30.282 23.8082 29.8007 24.3124 28.6595C24.7286 29.2105 25.3333 29.3911 26.1824 29.3326C27.8955 29.194 28.7941 29.9397 28.8019 29.9463C28.8376 29.9766 28.8803 29.9975 28.9262 30.007C28.972 30.0165 29.0195 30.0144 29.0643 30.0008C29.1091 29.9873 29.1498 29.9627 29.1826 29.9293C29.2155 29.8959 29.2394 29.8548 29.2523 29.8098C29.6131 28.1871 28.2692 26.8967 26.0784 26.6947C26.2596 26.5103 26.4094 26.2975 26.5218 26.0647C26.8213 25.7431 27.1857 25.4888 27.591 25.3188C27.9264 25.174 27.7198 24.6714 27.3796 24.8046C27.1766 24.8886 26.9821 24.9916 26.7985 25.1122C26.8633 24.5334 26.8334 23.9479 26.71 23.3787C26.6978 23.3169 26.6651 23.2611 26.6171 23.2204C26.5692 23.1797 26.5088 23.1565 26.4459 23.1545C26.3787 23.1524 24.9102 23.1315 23.7229 25.1243C23.5621 24.8013 23.3374 24.5141 23.0626 24.2803C22.4977 23.7959 22.2872 22.8315 22.2531 22.6576C22.2682 22.4367 22.4204 21.0579 23.8774 20.8256C24.0499 20.7931 24.2272 20.7958 24.3987 20.8333C24.5701 20.8709 24.7323 20.9427 24.8754 21.0443C24.9151 21.079 25.1399 21.2946 25.1902 21.7431C25.2378 22.1063 25.7772 22.0441 25.7427 21.6812C25.7128 21.3659 25.5976 21.0647 25.4095 20.8099C25.6709 20.5156 26.2842 19.9343 27.1308 19.8232C27.2039 19.8137 27.2702 19.7754 27.3151 19.717C27.3601 19.6585 27.3799 19.5846 27.3703 19.5115C27.3607 19.4384 27.3225 19.3721 27.264 19.3272C27.2056 19.2823 27.1317 19.2625 27.0586 19.272C26.0124 19.4093 25.2857 20.1043 24.978 20.4573C24.6126 20.2683 24.1951 20.2049 23.7901 20.2771C22.2282 20.5261 21.7438 21.8863 21.6988 22.6155C21.5434 23.0158 20.5829 25.7523 22.6461 27.3326C22.5379 27.7033 22.1274 28.6422 20.6761 29.1579C20.5223 25.3905 20.6258 20.9367 20.7031 18.5731C20.7262 16.7282 22.5693 15.2793 24.3676 15.6904C24.9017 15.8 25.4218 15.969 25.9183 16.1943C25.971 16.2201 26.0305 16.2286 26.0883 16.2185C26.1461 16.2085 26.1992 16.1804 26.2401 16.1383C26.2809 16.0962 26.3074 16.0423 26.3158 15.9842C26.3241 15.9261 26.3138 15.8669 26.2865 15.815C26.0603 15.3748 25.7559 14.9795 25.3882 14.6483C26.5091 13.8794 26.9341 12.7692 26.5849 11.4985C26.0281 9.47152 24.2978 9.25401 23.5877 9.25314C23.4406 6.94885 21.8027 5.43653 19.1229 5.79658C18.7623 5.84717 18.8255 6.38701 19.1902 6.34842C20.2514 6.19499 21.5415 6.42783 22.1696 7.14372C23.0781 8.08372 23.0401 9.51949 23.0396 9.53338C23.0409 9.54649 23.0404 9.55935 23.0408 9.57253C23.0558 9.91816 22.9914 10.2626 22.8525 10.5795C22.8371 10.6131 22.8284 10.6494 22.8272 10.6863C22.8259 10.7233 22.832 10.7601 22.8452 10.7947C22.8583 10.8293 22.8782 10.8609 22.9037 10.8876C22.9292 10.9144 22.9598 10.9358 22.9937 10.9506C23.0276 10.9654 23.0641 10.9733 23.1011 10.9738C23.1381 10.9743 23.1748 10.9674 23.2091 10.9536C23.2434 10.9397 23.2745 10.9192 23.3008 10.8931C23.327 10.867 23.3478 10.836 23.3619 10.8018C23.499 10.4856 23.5784 10.1475 23.5963 9.8033C24.1681 9.79481 25.5836 9.95172 26.0489 11.6457C26.3539 12.7554 25.9709 13.6468 24.9117 14.2947C23.8864 13.6101 22.2362 13.6818 21.1231 14.0858C21.1969 13.8499 21.2395 13.6054 21.2497 13.3584C21.3753 12.8184 21.9116 12.2662 22.417 11.9485C22.4773 11.9061 22.5183 11.8414 22.531 11.7688C22.5436 11.6962 22.5269 11.6215 22.4845 11.5612C22.3773 11.4061 22.1703 11.4157 22.0384 11.5339C21.6923 11.7587 21.3879 12.0419 21.1387 12.3708C21.0664 12.087 20.9581 11.8137 20.8163 11.5576C20.29 10.6991 20.2467 10.1946 20.2466 10.1923C20.2425 10.1367 20.2219 10.0836 20.1875 10.0398C20.153 9.99591 20.1063 9.96337 20.0532 9.9463C20.0001 9.92923 19.9431 9.92841 19.8896 9.94395C19.836 9.95949 19.7883 9.99068 19.7526 10.0335C19.1763 10.7405 18.7794 11.5763 18.5959 12.4698C18.4048 12.2063 18.1449 12.0005 17.8447 11.8748C17.4476 11.7203 17.1094 11.4444 16.8782 11.0864C16.6991 10.7695 16.2218 11.0272 16.3895 11.3512C16.6809 11.8249 17.1195 12.1901 17.6382 12.3909C18.1966 12.6143 18.4323 13.2968 18.4836 13.4688C18.48 13.6348 18.4836 13.7856 18.4921 13.9175C18.011 13.7598 17.3194 13.744 16.3991 13.744C15.3997 13.744 14.8227 12.9679 14.7262 12.827C14.3757 11.8391 14.4195 10.3798 16.1677 10.1032C16.2065 10.096 16.2433 10.0808 16.2757 10.0584C16.3082 10.036 16.3355 10.0069 16.3559 9.9732C16.3762 9.93946 16.3892 9.90178 16.394 9.86265C16.3987 9.82352 16.3951 9.78383 16.3833 9.74621C16.3801 9.7358 16.0643 8.69217 16.6458 7.96039C16.8681 7.67165 16.4431 7.33161 16.2105 7.61448C15.656 8.31243 15.7072 9.17317 15.7848 9.61804C13.8555 10.0752 13.7933 11.9225 14.2026 13.0139C14.36 14.8355 15.3888 15.4633 16.3524 15.5594C17.5192 15.5287 18.5478 16.399 18.5822 17.5934C18.6536 19.5708 18.6933 21.7947 18.7013 24.2164C18.0322 23.1946 17.2241 22.271 16.3001 21.4723C16.147 21.3401 16.037 21.165 15.9845 20.9696C15.932 20.7742 15.9393 20.5676 16.0056 20.3764C16.3701 19.3123 16.6753 17.36 14.675 16.1646C14.074 15.241 12.5785 14.0774 11.0277 15.1063C10.417 14.8486 8.14088 14.0772 6.86862 16.2278C6.68907 16.5445 7.15339 16.8234 7.347 16.5108C8.54143 14.4919 10.7991 15.605 10.9235 15.6684C10.9413 15.6783 11.4714 15.9781 11.6033 16.5261C11.6952 16.8805 12.2238 16.7513 12.1437 16.3958C12.0474 16.0276 11.842 15.6971 11.5545 15.4477C12.8359 14.7696 13.9892 16.091 14.2545 16.5357C14.8952 17.5327 14.3434 18.3963 14.1469 19.6381C13.6869 19.2323 12.8754 18.6538 11.8002 18.4319C11.7631 18.4243 11.7247 18.4243 11.6876 18.432C11.6504 18.4397 11.6152 18.4549 11.5842 18.4768C11.5531 18.4986 11.5269 18.5266 11.507 18.5589C11.4872 18.5913 11.4742 18.6274 11.4689 18.6649C11.3772 19.3082 11.5731 20.5921 12.8612 21.2051C12.0108 21.8618 10.995 21.7201 10.3242 22.9787C9.54361 23.062 8.54683 22.9673 8.05591 22.1051C7.51654 21.1579 7.88064 20.5328 8.09839 20.2787C8.44362 20.4661 8.81805 20.5939 9.20587 20.6566C9.2421 20.6629 9.27921 20.6619 9.31506 20.6537C9.35091 20.6456 9.38478 20.6304 9.41472 20.609C9.44465 20.5877 9.47005 20.5606 9.48945 20.5294C9.50884 20.4981 9.52185 20.4633 9.52771 20.427C9.53357 20.3907 9.53218 20.3536 9.5236 20.3179C9.51502 20.2821 9.49944 20.2484 9.47774 20.2188C9.45605 20.1891 9.42869 20.164 9.39723 20.1449C9.36577 20.1259 9.33085 20.1133 9.29449 20.1079C8.9091 20.0489 8.54048 19.9093 8.21274 19.6982C8.20782 19.6949 7.72333 19.3646 7.56323 18.9233C7.53777 18.8544 7.48611 18.7985 7.41953 18.7676C7.35295 18.7367 7.27687 18.7334 7.20787 18.7584C7.13887 18.7834 7.08256 18.8347 7.05123 18.9011C7.0199 18.9674 7.01608 19.0435 7.04063 19.1127C7.17186 19.4362 7.37813 19.7238 7.64241 19.9519C7.26449 20.4153 6.94795 21.2832 7.57284 22.3806C8.02708 23.2233 9.01488 23.6306 10.1128 23.5528Z" fill="black"/>
<path d="M12.5715 17.8867C12.8154 17.6061 12.4047 17.2361 12.1506 17.5082C11.907 17.7888 12.3181 18.1587 12.5715 17.8867Z" fill="black"/>
<path d="M29.0298 20.0699C29.2738 19.7893 28.8631 19.4193 28.6093 19.6915C28.3652 19.972 28.7763 20.3421 29.0298 20.0699Z" fill="black"/>
<path d="M17.6269 6.79094C17.8709 6.51038 17.4601 6.1404 17.2065 6.41254C16.9624 6.6931 17.3735 7.063 17.6269 6.79094Z" fill="black"/>
<path d="M7.05415 17.4873C6.77359 17.2432 6.40361 17.654 6.67568 17.9081C6.95632 18.1518 7.32646 17.7407 7.05415 17.4873Z" fill="black"/>
</g>
<defs>
<clipPath id="clip0_100_434">
<rect width="27" height="27" fill="white" transform="translate(5.5 5.5)"/>
</clipPath>
</defs>
</svg>
