<svg width="38" height="38" viewBox="0 0 38 38" fill="none" xmlns="http://www.w3.org/2000/svg">
<rect width="38" height="38" rx="19" fill="#E4E4E4"/>
<g clip-path="url(#clip0_100_425)">
<path d="M25.5566 32.4999H8.12462C7.82172 32.4989 7.52215 32.4367 7.24382 32.3172C6.96548 32.1978 6.7141 32.0234 6.50469 31.8045C6.31007 31.606 6.15808 31.3698 6.05804 31.1105C5.95801 30.8511 5.91204 30.574 5.92296 30.2962C5.94758 29.7692 6.17002 29.2707 6.54589 28.9004C6.9274 28.5065 7.21361 28.0305 7.38258 27.5088C7.55155 26.9871 7.59877 26.4336 7.52063 25.8909C7.32356 24.3063 7.21258 22.7121 7.18819 21.1155C7.17584 20.1704 7.19149 19.229 7.23475 18.3173C7.2401 18.2055 7.28964 18.1004 7.37247 18.0252C7.41348 17.9879 7.46143 17.9591 7.51358 17.9404C7.56572 17.9216 7.62105 17.9134 7.6764 17.916C7.73175 17.9187 7.78603 17.9322 7.83615 17.9558C7.88627 17.9794 7.93124 18.0127 7.96851 18.0537C8.00577 18.0947 8.03459 18.1427 8.05332 18.1948C8.07205 18.247 8.08033 18.3023 8.07768 18.3577C8.03483 19.2521 8.01959 20.1762 8.03194 21.1036C8.0558 22.6693 8.16459 24.2326 8.35783 25.7866C8.45263 26.45 8.39512 27.1262 8.18968 27.764C7.98424 28.4018 7.63625 28.9844 7.17211 29.4677C7.16675 29.4731 7.14038 29.4994 7.13462 29.5048C6.91199 29.7255 6.7804 30.0218 6.7659 30.335C6.76066 30.4986 6.78882 30.6615 6.84868 30.8139C6.90853 30.9663 6.99882 31.1048 7.11403 31.2211C7.24461 31.3578 7.4014 31.4668 7.57503 31.5416C7.74867 31.6163 7.93558 31.6553 8.12462 31.6562H25.5566C25.6685 31.6562 25.7758 31.7006 25.8549 31.7798C25.9341 31.8589 25.9785 31.9662 25.9785 32.0781C25.9785 32.19 25.9341 32.2973 25.8549 32.3764C25.7758 32.4555 25.6685 32.4999 25.5566 32.4999Z" fill="black"/>
<path d="M26.0716 23.8981C26.0613 23.8981 26.051 23.8977 26.0407 23.8969C25.9854 23.8929 25.9315 23.8781 25.882 23.8533C25.8325 23.8284 25.7883 23.7941 25.7521 23.7522C25.7158 23.7103 25.6882 23.6617 25.6708 23.6091C25.6534 23.5565 25.6465 23.501 25.6505 23.4457C25.7045 22.6976 25.7383 21.909 25.7507 21.1028C25.763 20.1737 25.7474 19.2501 25.7045 18.3577C25.7015 18.3021 25.7094 18.2465 25.728 18.194C25.7465 18.1415 25.7752 18.0932 25.8125 18.0519C25.8498 18.0106 25.8949 17.977 25.9452 17.9532C25.9955 17.9294 26.05 17.9157 26.1056 17.9131C26.1612 17.9104 26.2168 17.9188 26.2692 17.9377C26.3215 17.9566 26.3696 17.9857 26.4107 18.0232C26.4517 18.0608 26.485 18.1062 26.5084 18.1566C26.5319 18.2071 26.5451 18.2617 26.5474 18.3173C26.5911 19.2266 26.6067 20.168 26.5944 21.1151C26.5816 21.9383 26.547 22.7425 26.4918 23.5067C26.4841 23.613 26.4365 23.7124 26.3586 23.785C26.2806 23.8576 26.1781 23.898 26.0716 23.8981Z" fill="black"/>
<path d="M25.409 19H8.37374C7.94765 18.9995 7.53915 18.83 7.23786 18.5287C6.93656 18.2274 6.76709 17.8189 6.7666 17.3928V14.7009C6.76709 14.2748 6.93656 13.8663 7.23786 13.565C7.53915 13.2637 7.94765 13.0942 8.37374 13.0938H25.409C25.8352 13.0941 26.2438 13.2636 26.5452 13.5649C26.8465 13.8662 27.0161 14.2747 27.0166 14.7009V17.3928C27.0161 17.819 26.8465 18.2276 26.5452 18.5289C26.2438 18.8302 25.8352 18.9996 25.409 19ZM8.37374 13.9375C8.17134 13.9377 7.97728 14.0182 7.83416 14.1613C7.69104 14.3044 7.61055 14.4985 7.61035 14.7009V17.3928C7.61055 17.5952 7.69104 17.7893 7.83416 17.9324C7.97728 18.0756 8.17134 18.1561 8.37374 18.1562H25.409C25.6115 18.1561 25.8056 18.0756 25.9488 17.9325C26.092 17.7894 26.1726 17.5953 26.1729 17.3928V14.7009C26.1726 14.4985 26.092 14.3044 25.9488 14.1613C25.8056 14.0181 25.6115 13.9377 25.409 13.9375H8.37374Z" fill="black"/>
<path d="M11.4077 27.0156C11.3523 27.0157 11.2974 27.0048 11.2462 26.9836C11.195 26.9624 11.1485 26.9313 11.1093 26.8921C11.0702 26.853 11.0391 26.8064 11.0179 26.7552C10.9967 26.704 10.9858 26.6492 10.9858 26.5938V20.6875C10.9858 20.5756 11.0303 20.4683 11.1094 20.3892C11.1885 20.3101 11.2958 20.2656 11.4077 20.2656C11.5196 20.2656 11.6269 20.3101 11.706 20.3892C11.7851 20.4683 11.8296 20.5756 11.8296 20.6875V26.5938C11.8296 26.6492 11.8187 26.704 11.7975 26.7552C11.7764 26.8064 11.7453 26.853 11.7061 26.8921C11.6669 26.9313 11.6204 26.9624 11.5692 26.9836C11.518 27.0048 11.4631 27.0157 11.4077 27.0156Z" fill="black"/>
<path d="M13.939 27.8594C13.8836 27.8594 13.8287 27.8485 13.7775 27.8273C13.7263 27.8061 13.6798 27.7751 13.6406 27.7359C13.6014 27.6967 13.5703 27.6502 13.5491 27.599C13.5279 27.5478 13.5171 27.4929 13.5171 27.4375V21.9531C13.5171 21.8412 13.5615 21.7339 13.6407 21.6548C13.7198 21.5757 13.8271 21.5312 13.939 21.5312C14.0509 21.5312 14.1582 21.5757 14.2373 21.6548C14.3164 21.7339 14.3608 21.8412 14.3608 21.9531V27.4375C14.3609 27.4929 14.35 27.5478 14.3288 27.599C14.3076 27.6502 14.2765 27.6967 14.2373 27.7359C14.1982 27.7751 14.1516 27.8061 14.1004 27.8273C14.0492 27.8485 13.9944 27.8594 13.939 27.8594Z" fill="black"/>
<path d="M15.2046 23.2188H10.1421C10.0302 23.2188 9.9229 23.1743 9.84378 23.0952C9.76466 23.0161 9.72021 22.9088 9.72021 22.7969C9.72021 22.685 9.76466 22.5777 9.84378 22.4986C9.9229 22.4194 10.0302 22.375 10.1421 22.375H15.2046C15.3165 22.375 15.4238 22.4194 15.5029 22.4986C15.582 22.5777 15.6265 22.685 15.6265 22.7969C15.6265 22.9088 15.582 23.0161 15.5029 23.0952C15.4238 23.1743 15.3165 23.2188 15.2046 23.2188Z" fill="black"/>
<path d="M15.2046 25.3281H10.1421C10.0302 25.3281 9.9229 25.2837 9.84378 25.2046C9.76466 25.1254 9.72021 25.0181 9.72021 24.9062C9.72021 24.7944 9.76466 24.6871 9.84378 24.6079C9.9229 24.5288 10.0302 24.4844 10.1421 24.4844H15.2046C15.3165 24.4844 15.4238 24.5288 15.5029 24.6079C15.582 24.6871 15.6265 24.7944 15.6265 24.9062C15.6265 25.0181 15.582 25.1254 15.5029 25.2046C15.4238 25.2837 15.3165 25.3281 15.2046 25.3281Z" fill="black"/>
<path d="M13.5166 13.9375C13.4612 13.9375 13.4063 13.9266 13.3551 13.9055C13.3039 13.8843 13.2574 13.8532 13.2182 13.814C13.179 13.7748 13.148 13.7283 13.1268 13.6771C13.1056 13.6259 13.0947 13.571 13.0947 13.5156V10.9844C13.0944 10.7072 13.0395 10.4328 12.9331 10.1768C12.8267 9.92081 12.671 9.68831 12.4747 9.49257C12.3476 9.36502 12.2034 9.25576 12.0462 9.16792C11.7253 8.97675 11.3589 8.87557 10.9854 8.875C10.4261 8.87566 9.88997 9.09811 9.49452 9.49355C9.09908 9.88899 8.87663 10.4251 8.87598 10.9844V13.5156C8.87598 13.6275 8.83153 13.7348 8.75241 13.8139C8.6733 13.8931 8.56599 13.9375 8.4541 13.9375C8.34221 13.9375 8.23491 13.8931 8.15579 13.8139C8.07667 13.7348 8.03223 13.6275 8.03223 13.5156V10.9844C8.03317 10.2014 8.34461 9.45086 8.89822 8.89725C9.45184 8.34363 10.2024 8.0322 10.9854 8.03125C11.5061 8.03125 12.0174 8.17112 12.4656 8.43625C12.6884 8.56089 12.8927 8.71606 13.0725 8.89726C13.347 9.17113 13.5647 9.49645 13.7133 9.85458C13.8619 10.2127 13.9384 10.5966 13.9385 10.9844V13.5156C13.9385 13.571 13.9276 13.6259 13.9064 13.6771C13.8852 13.7283 13.8542 13.7748 13.815 13.814C13.7758 13.8532 13.7293 13.8843 13.6781 13.9055C13.6269 13.9266 13.572 13.9375 13.5166 13.9375Z" fill="black"/>
<path d="M17.3135 11.1319C17.2581 11.1319 17.2032 11.121 17.152 11.0998C17.1008 11.0786 17.0543 11.0475 17.0151 11.0084C16.9759 10.9692 16.9449 10.9227 16.9237 10.8715C16.9025 10.8203 16.8916 10.7654 16.8916 10.71V8.45312C16.8916 8.16707 16.8318 7.88418 16.7161 7.62255C16.5254 7.17602 16.1862 6.80911 15.756 6.58392C15.3258 6.35874 14.831 6.2891 14.3553 6.38681C13.8797 6.48452 13.4524 6.74356 13.1458 7.1201C12.8392 7.49664 12.6721 7.96755 12.6729 8.45312V8.79919C12.6729 8.91108 12.6284 9.01838 12.5493 9.0975C12.4702 9.17662 12.3629 9.22106 12.251 9.22106C12.1391 9.22106 12.0318 9.17662 11.9527 9.0975C11.8736 9.01838 11.8291 8.91108 11.8291 8.79919V8.45312C11.8273 7.77292 12.0607 7.11301 12.4897 6.58518C12.9187 6.05734 13.517 5.69405 14.1833 5.55684C14.8495 5.41963 15.5426 5.51695 16.1453 5.83229C16.748 6.14764 17.2231 6.66164 17.4903 7.2872C17.6522 7.65456 17.7356 8.05166 17.7354 8.45312V10.71C17.7354 10.7654 17.7245 10.8203 17.7033 10.8715C17.6821 10.9227 17.6511 10.9692 17.6119 11.0084C17.5727 11.0476 17.5262 11.0786 17.475 11.0998C17.4238 11.121 17.3689 11.1319 17.3135 11.1319Z" fill="black"/>
<path d="M23.6041 13.9375C23.5788 13.9376 23.5536 13.9353 23.5287 13.9309C23.4186 13.911 23.321 13.8481 23.2572 13.7562C23.1934 13.6643 23.1686 13.5508 23.1884 13.4407C23.2093 13.3262 23.2198 13.2101 23.2197 13.0938C23.2194 12.6581 23.0841 12.2332 22.8324 11.8776C22.5806 11.522 22.2249 11.2531 21.814 11.108C21.5887 11.0251 21.3504 10.9833 21.1104 10.9844H18.1572C17.9194 10.9831 17.6832 11.0241 17.4597 11.1055C17.3368 11.1484 17.2186 11.2039 17.1071 11.2712C16.786 11.4552 16.5191 11.7205 16.3332 12.0405C16.1472 12.3605 16.0488 12.7237 16.0479 13.0938C16.0478 13.2101 16.0583 13.3262 16.0792 13.4407C16.0991 13.5508 16.0744 13.6643 16.0106 13.7563C15.9467 13.8482 15.849 13.9111 15.7389 13.9309C15.6287 13.9508 15.5152 13.9261 15.4233 13.8623C15.3313 13.7985 15.2685 13.7008 15.2486 13.5906C15.2188 13.4267 15.2039 13.2604 15.2041 13.0938C15.2051 12.5764 15.3422 12.0683 15.6015 11.6206C15.8608 11.1728 16.2332 10.8011 16.6815 10.5428C16.8381 10.4485 17.004 10.3707 17.1767 10.3108C17.4909 10.1966 17.8229 10.139 18.1572 10.1407H21.1104C21.4481 10.1393 21.7833 10.1982 22.1004 10.3145C22.6745 10.5184 23.1714 10.895 23.5229 11.3927C23.8744 11.8903 24.0632 12.4845 24.0635 13.0938C24.0637 13.2604 24.0488 13.4267 24.019 13.5906C24.0013 13.6879 23.9502 13.7758 23.8744 13.8392C23.7985 13.9026 23.7029 13.9374 23.6041 13.9375Z" fill="black"/>
<path d="M25.3289 13.9375C25.2735 13.9376 25.2186 13.9267 25.1675 13.9055C25.1163 13.8843 25.0697 13.8532 25.0306 13.814C24.9914 13.7749 24.9603 13.7283 24.9391 13.6771C24.9179 13.6259 24.907 13.5711 24.9071 13.5157V10.9844C24.9062 10.4252 24.6836 9.88923 24.2883 9.49384C23.8929 9.09845 23.3568 8.87592 22.7977 8.87503C22.5598 8.87376 22.3237 8.91477 22.1002 8.99615C21.7454 9.12117 21.4304 9.3387 21.1878 9.62625C20.9452 9.9138 20.7839 10.2609 20.7204 10.6317C20.7115 10.6865 20.6918 10.739 20.6625 10.7861C20.6333 10.8333 20.595 10.8742 20.5499 10.9065C20.5048 10.9388 20.4538 10.9619 20.3997 10.9745C20.3457 10.9871 20.2897 10.9889 20.2349 10.9798C20.1802 10.9707 20.1278 10.9508 20.0807 10.9215C20.0337 10.8921 19.9929 10.8537 19.9606 10.8085C19.9284 10.7633 19.9055 10.7122 19.893 10.6581C19.8806 10.604 19.879 10.548 19.8882 10.4933C19.9759 9.97489 20.2005 9.4893 20.5388 9.08673C20.877 8.68417 21.3166 8.37925 21.8122 8.20349C22.1279 8.08807 22.4616 8.02976 22.7977 8.03128C23.5806 8.03223 24.3312 8.34366 24.8848 8.89728C25.4384 9.45089 25.7499 10.2015 25.7508 10.9844V13.5157C25.7508 13.5711 25.7399 13.6259 25.7188 13.6771C25.6976 13.7283 25.6665 13.7749 25.6273 13.814C25.5881 13.8532 25.5416 13.8843 25.4904 13.9055C25.4392 13.9267 25.3843 13.9376 25.3289 13.9375Z" fill="black"/>
<path d="M21.9542 9.02252C21.8988 9.02256 21.8439 9.01167 21.7927 8.99048C21.7415 8.96929 21.695 8.93821 21.6558 8.89903C21.6167 8.85985 21.5856 8.81333 21.5644 8.76213C21.5432 8.71093 21.5323 8.65606 21.5323 8.60065V8.45316C21.5331 7.96794 21.3662 7.49735 21.06 7.12093C20.7538 6.74452 20.3271 6.48536 19.8519 6.38727C19.3767 6.28918 18.8822 6.35816 18.452 6.58257C18.0218 6.80698 17.6822 7.17304 17.4907 7.61888C17.4468 7.72182 17.3638 7.80308 17.26 7.84481C17.1561 7.88653 17.0399 7.8853 16.937 7.84137C16.8341 7.79745 16.7528 7.71443 16.7111 7.61059C16.6694 7.50674 16.6706 7.39058 16.7145 7.28764C16.983 6.66382 17.4585 6.1517 18.0607 5.83768C18.6629 5.52367 19.3549 5.42697 20.0201 5.56391C20.6853 5.70085 21.2829 6.06305 21.7121 6.58939C22.1413 7.11573 22.3758 7.77401 22.3761 8.45316V8.60065C22.3761 8.65606 22.3652 8.71093 22.344 8.76213C22.3228 8.81333 22.2918 8.85985 22.2526 8.89903C22.2134 8.93821 22.1669 8.96929 22.1157 8.99048C22.0645 9.01167 22.0096 9.02256 21.9542 9.02252Z" fill="black"/>
<path d="M9.29785 12.6719H8.4541C8.34221 12.6719 8.23491 12.6274 8.15579 12.5483C8.07667 12.4692 8.03223 12.3619 8.03223 12.25C8.03223 12.1381 8.07667 12.0308 8.15579 11.9517C8.23491 11.8726 8.34221 11.8281 8.4541 11.8281H9.29785C9.40974 11.8281 9.51705 11.8726 9.59616 11.9517C9.67528 12.0308 9.71973 12.1381 9.71973 12.25C9.71973 12.3619 9.67528 12.4692 9.59616 12.5483C9.51705 12.6274 9.40974 12.6719 9.29785 12.6719Z" fill="black"/>
<path d="M11.8291 11.4062H10.9854C10.8735 11.4062 10.7662 11.3618 10.687 11.2827C10.6079 11.2036 10.5635 11.0963 10.5635 10.9844C10.5635 10.8725 10.6079 10.7652 10.687 10.6861C10.7662 10.6069 10.8735 10.5625 10.9854 10.5625H11.8291C11.941 10.5625 12.0483 10.6069 12.1274 10.6861C12.2065 10.7652 12.251 10.8725 12.251 10.9844C12.251 11.0963 12.2065 11.2036 12.1274 11.2827C12.0483 11.3618 11.941 11.4062 11.8291 11.4062Z" fill="black"/>
<path d="M15.626 8.45312H14.7822C14.6703 8.45312 14.563 8.40868 14.4839 8.32956C14.4048 8.25044 14.3604 8.14314 14.3604 8.03125C14.3604 7.91936 14.4048 7.81206 14.4839 7.73294C14.563 7.65382 14.6703 7.60938 14.7822 7.60938H15.626C15.7379 7.60938 15.8452 7.65382 15.9243 7.73294C16.0034 7.81206 16.0479 7.91936 16.0479 8.03125C16.0479 8.14314 16.0034 8.25044 15.9243 8.32956C15.8452 8.40868 15.7379 8.45312 15.626 8.45312Z" fill="black"/>
<path d="M18.1572 13.9375C18.1018 13.9375 18.0469 13.9266 17.9957 13.9055C17.9445 13.8843 17.898 13.8532 17.8588 13.814C17.8197 13.7748 17.7886 13.7283 17.7674 13.6771C17.7462 13.6259 17.7353 13.571 17.7354 13.5156V12.6719C17.7354 12.56 17.7798 12.4527 17.8589 12.3736C17.938 12.2944 18.0453 12.25 18.1572 12.25C18.2691 12.25 18.3764 12.2944 18.4555 12.3736C18.5347 12.4527 18.5791 12.56 18.5791 12.6719V13.5156C18.5791 13.571 18.5682 13.6259 18.5471 13.6771C18.5259 13.7283 18.4948 13.7748 18.4556 13.814C18.4164 13.8532 18.3699 13.8843 18.3187 13.9055C18.2675 13.9266 18.2126 13.9375 18.1572 13.9375Z" fill="black"/>
<path d="M19.8447 12.25C19.7893 12.25 19.7344 12.2391 19.6832 12.218C19.632 12.1968 19.5855 12.1657 19.5463 12.1265C19.5072 12.0873 19.4761 12.0408 19.4549 11.9896C19.4337 11.9384 19.4228 11.8835 19.4229 11.8281V10.5625C19.4229 10.4506 19.4673 10.3433 19.5464 10.2642C19.6255 10.1851 19.7328 10.1406 19.8447 10.1406C19.9566 10.1406 20.0639 10.1851 20.143 10.2642C20.2222 10.3433 20.2666 10.4506 20.2666 10.5625V11.8281C20.2666 11.8835 20.2557 11.9384 20.2346 11.9896C20.2134 12.0408 20.1823 12.0873 20.1431 12.1265C20.1039 12.1657 20.0574 12.1968 20.0062 12.218C19.955 12.2391 19.9001 12.25 19.8447 12.25Z" fill="black"/>
<path d="M18.1572 9.71875H17.3135C17.2016 9.71875 17.0943 9.6743 17.0152 9.59519C16.936 9.51607 16.8916 9.40876 16.8916 9.29688C16.8916 9.18499 16.936 9.07768 17.0152 8.99856C17.0943 8.91945 17.2016 8.875 17.3135 8.875H18.1572C18.2691 8.875 18.3764 8.91945 18.4555 8.99856C18.5347 9.07768 18.5791 9.18499 18.5791 9.29688C18.5791 9.40876 18.5347 9.51607 18.4555 9.59519C18.3764 9.6743 18.2691 9.71875 18.1572 9.71875Z" fill="black"/>
<path d="M20.2666 8.03125H19.4229C19.311 8.03125 19.2037 7.9868 19.1245 7.90769C19.0454 7.82857 19.001 7.72126 19.001 7.60938C19.001 7.49749 19.0454 7.39018 19.1245 7.31106C19.2037 7.23195 19.311 7.1875 19.4229 7.1875H20.2666C20.3785 7.1875 20.4858 7.23195 20.5649 7.31106C20.644 7.39018 20.6885 7.49749 20.6885 7.60938C20.6885 7.72126 20.644 7.82857 20.5649 7.90769C20.4858 7.9868 20.3785 8.03125 20.2666 8.03125Z" fill="black"/>
<path d="M25.3291 11.4062H24.4854C24.3735 11.4062 24.2662 11.3618 24.187 11.2827C24.1079 11.2036 24.0635 11.0963 24.0635 10.9844C24.0635 10.8725 24.1079 10.7652 24.187 10.6861C24.2662 10.6069 24.3735 10.5625 24.4854 10.5625H25.3291C25.441 10.5625 25.5483 10.6069 25.6274 10.6861C25.7065 10.7652 25.751 10.8725 25.751 10.9844C25.751 11.0963 25.7065 11.2036 25.6274 11.2827C25.5483 11.3618 25.441 11.4062 25.3291 11.4062Z" fill="black"/>
<path d="M28.9151 32.5H25.5591C24.7199 32.5 23.9151 32.1666 23.3218 31.5733C22.7284 30.9799 22.395 30.1751 22.395 29.3359C22.395 28.4968 22.7284 27.692 23.3218 27.0986C23.9151 26.5052 24.7199 26.1719 25.5591 26.1719H28.9151C29.7543 26.1719 30.5591 26.5052 31.1525 27.0986C31.7459 27.692 32.0792 28.4968 32.0792 29.3359C32.0792 30.1751 31.7459 30.9799 31.1525 31.5733C30.5591 32.1666 29.7543 32.5 28.9151 32.5ZM25.5591 27.0156C24.9437 27.0156 24.3535 27.2601 23.9184 27.6952C23.4832 28.1304 23.2388 28.7206 23.2388 29.3359C23.2388 29.9513 23.4832 30.5415 23.9184 30.9766C24.3535 31.4118 24.9437 31.6562 25.5591 31.6562H28.9151C29.5305 31.6562 30.1207 31.4118 30.5559 30.9766C30.991 30.5415 31.2355 29.9513 31.2355 29.3359C31.2355 28.7206 30.991 28.1304 30.5559 27.6952C30.1207 27.2601 29.5305 27.0156 28.9151 27.0156H25.5591Z" fill="black"/>
<path d="M24.4854 27.2349C24.4299 27.2349 24.3751 27.224 24.3239 27.2028C24.2727 27.1816 24.2262 27.1505 24.187 27.1114C24.1478 27.0722 24.1167 27.0257 24.0955 26.9745C24.0743 26.9233 24.0634 26.8684 24.0635 26.813V25.961C24.0647 25.3585 24.2375 24.7689 24.5617 24.261C24.8858 23.7532 25.348 23.3483 25.8939 23.0936C26.376 22.8704 26.9065 22.7721 27.4365 22.8076C27.9665 22.8432 28.4791 23.0115 28.927 23.2971C29.375 23.5827 29.7439 23.9763 29.9998 24.4419C30.2557 24.9074 30.3905 25.4298 30.3916 25.961V26.8047C30.3916 26.9166 30.3472 27.0239 30.268 27.1031C30.1889 27.1822 30.0816 27.2266 29.9697 27.2266C29.8578 27.2266 29.7505 27.1822 29.6714 27.1031C29.5923 27.0239 29.5479 26.9166 29.5479 26.8047V25.961C29.5489 25.6566 29.4892 25.355 29.3723 25.074C29.2553 24.7929 29.0835 24.538 28.8668 24.3242C28.5428 23.9995 28.1298 23.7782 27.68 23.6884C27.2302 23.5985 26.7639 23.644 26.34 23.8193C25.9161 23.9945 25.5537 24.2915 25.2987 24.6728C25.0436 25.054 24.9074 25.5023 24.9072 25.961V26.813C24.9073 26.8684 24.8964 26.9233 24.8752 26.9745C24.854 27.0257 24.8229 27.0722 24.7837 27.1114C24.7446 27.1505 24.698 27.1816 24.6468 27.2028C24.5956 27.224 24.5408 27.2349 24.4854 27.2349Z" fill="black"/>
<path d="M25.7511 25.75H24.5596C24.4477 25.75 24.3404 25.7056 24.2613 25.6264C24.1821 25.5473 24.1377 25.44 24.1377 25.3281C24.1377 25.2162 24.1821 25.1089 24.2613 25.0298C24.3404 24.9507 24.4477 24.9062 24.5596 24.9062H25.7511C25.8629 24.9062 25.9703 24.9507 26.0494 25.0298C26.1285 25.1089 26.1729 25.2162 26.1729 25.3281C26.1729 25.44 26.1285 25.5473 26.0494 25.6264C25.9703 25.7056 25.8629 25.75 25.7511 25.75Z" fill="black"/>
<path d="M28.2822 25.3281H27.4385C27.3266 25.3281 27.2193 25.2837 27.1402 25.2046C27.061 25.1254 27.0166 25.0181 27.0166 24.9062C27.0166 24.7944 27.061 24.6871 27.1402 24.6079C27.2193 24.5288 27.3266 24.4844 27.4385 24.4844H28.2822C28.3941 24.4844 28.5014 24.5288 28.5805 24.6079C28.6597 24.6871 28.7041 24.7944 28.7041 24.9062C28.7041 25.0181 28.6597 25.1254 28.5805 25.2046C28.5014 25.2837 28.3941 25.3281 28.2822 25.3281Z" fill="black"/>
<path d="M25.751 32.5C25.6956 32.5 25.6407 32.4891 25.5895 32.468C25.5383 32.4468 25.4918 32.4157 25.4526 32.3765C25.4134 32.3373 25.3823 32.2908 25.3612 32.2396C25.34 32.1884 25.3291 32.1335 25.3291 32.0781V30.8125C25.3291 30.7006 25.3735 30.5933 25.4527 30.5142C25.5318 30.4351 25.6391 30.3906 25.751 30.3906C25.8629 30.3906 25.9702 30.4351 26.0493 30.5142C26.1284 30.5933 26.1729 30.7006 26.1729 30.8125V32.0781C26.1729 32.1335 26.162 32.1884 26.1408 32.2396C26.1196 32.2908 26.0885 32.3373 26.0494 32.3765C26.0102 32.4157 25.9637 32.4468 25.9125 32.468C25.8613 32.4891 25.8064 32.5 25.751 32.5Z" fill="black"/>
<path d="M27.4385 27.8594C27.3831 27.8594 27.3282 27.8485 27.277 27.8273C27.2258 27.8061 27.1793 27.7751 27.1401 27.7359C27.1009 27.6967 27.0698 27.6502 27.0487 27.599C27.0275 27.5478 27.0166 27.4929 27.0166 27.4375V26.5938C27.0166 26.4819 27.061 26.3746 27.1402 26.2954C27.2193 26.2163 27.3266 26.1719 27.4385 26.1719C27.5504 26.1719 27.6577 26.2163 27.7368 26.2954C27.8159 26.3746 27.8604 26.4819 27.8604 26.5938V27.4375C27.8604 27.4929 27.8495 27.5478 27.8283 27.599C27.8071 27.6502 27.776 27.6967 27.7369 27.7359C27.6977 27.7751 27.6512 27.8061 27.6 27.8273C27.5488 27.8485 27.4939 27.8594 27.4385 27.8594Z" fill="black"/>
<path d="M28.7041 30.8125C28.6487 30.8125 28.5938 30.8016 28.5426 30.7805C28.4914 30.7593 28.4449 30.7282 28.4057 30.689C28.3665 30.6498 28.3355 30.6033 28.3143 30.5521C28.2931 30.5009 28.2822 30.446 28.2822 30.3906V29.5469C28.2822 29.435 28.3267 29.3277 28.4058 29.2486C28.4849 29.1694 28.5922 29.125 28.7041 29.125C28.816 29.125 28.9233 29.1694 29.0024 29.2486C29.0815 29.3277 29.126 29.435 29.126 29.5469V30.3906C29.126 30.446 29.1151 30.5009 29.0939 30.5521C29.0727 30.6033 29.0417 30.6498 29.0025 30.689C28.9633 30.7282 28.9168 30.7593 28.8656 30.7805C28.8144 30.8016 28.7595 30.8125 28.7041 30.8125Z" fill="black"/>
<path d="M24.9072 29.125C24.8518 29.125 24.7969 29.1141 24.7457 29.093C24.6945 29.0718 24.648 29.0407 24.6088 29.0015C24.5697 28.9623 24.5386 28.9158 24.5174 28.8646C24.4962 28.8134 24.4853 28.7585 24.4854 28.7031V27.8594C24.4854 27.7475 24.5298 27.6402 24.6089 27.5611C24.688 27.4819 24.7953 27.4375 24.9072 27.4375C25.0191 27.4375 25.1264 27.4819 25.2055 27.5611C25.2847 27.6402 25.3291 27.7475 25.3291 27.8594V28.7031C25.3291 28.7585 25.3182 28.8134 25.2971 28.8646C25.2759 28.9158 25.2448 28.9623 25.2056 29.0015C25.1664 29.0407 25.1199 29.0718 25.0687 29.093C25.0175 29.1141 24.9626 29.125 24.9072 29.125Z" fill="black"/>
<path d="M21.5322 28.7031H18.1572C18.0453 28.7031 17.938 28.6587 17.8589 28.5796C17.7798 28.5004 17.7354 28.3931 17.7354 28.2812C17.7354 28.1694 17.7798 28.0621 17.8589 27.9829C17.938 27.9038 18.0453 27.8594 18.1572 27.8594H21.5322C21.6441 27.8594 21.7514 27.9038 21.8305 27.9829C21.9097 28.0621 21.9541 28.1694 21.9541 28.2812C21.9541 28.3931 21.9097 28.5004 21.8305 28.5796C21.7514 28.6587 21.6441 28.7031 21.5322 28.7031Z" fill="black"/>
<path d="M20.2666 30.3906C20.2112 30.3907 20.1563 30.3798 20.1051 30.3586C20.0539 30.3374 20.0074 30.3063 19.9682 30.2671C19.929 30.228 19.898 30.1814 19.8768 30.1302C19.8556 30.079 19.8447 30.0242 19.8447 29.9688V26.1719C19.8447 26.06 19.8892 25.9527 19.9683 25.8736C20.0474 25.7944 20.1547 25.75 20.2666 25.75C20.3785 25.75 20.4858 25.7944 20.5649 25.8736C20.644 25.9527 20.6885 26.06 20.6885 26.1719V29.9688C20.6885 30.0242 20.6776 30.079 20.6564 30.1302C20.6352 30.1814 20.6042 30.228 20.565 30.2671C20.5258 30.3063 20.4793 30.3374 20.4281 30.3586C20.3769 30.3798 20.322 30.3907 20.2666 30.3906Z" fill="black"/>
<path d="M22.376 23.2188C22.3206 23.2188 22.2657 23.2079 22.2145 23.1867C22.1633 23.1655 22.1168 23.1344 22.0776 23.0953C22.0384 23.0561 22.0073 23.0096 21.9862 22.9584C21.965 22.9072 21.9541 22.8523 21.9541 22.7969V20.2656C21.9541 20.1537 21.9985 20.0464 22.0777 19.9673C22.1568 19.8882 22.2641 19.8438 22.376 19.8438C22.4879 19.8438 22.5952 19.8882 22.6743 19.9673C22.7534 20.0464 22.7979 20.1537 22.7979 20.2656V22.7969C22.7979 22.8523 22.787 22.9072 22.7658 22.9584C22.7446 23.0096 22.7135 23.0561 22.6744 23.0953C22.6352 23.1344 22.5887 23.1655 22.5375 23.1867C22.4863 23.2079 22.4314 23.2188 22.376 23.2188Z" fill="black"/>
<path d="M23.6416 21.9531H19.001C18.8891 21.9531 18.7818 21.9087 18.7027 21.8296C18.6235 21.7504 18.5791 21.6431 18.5791 21.5312C18.5791 21.4194 18.6235 21.3121 18.7027 21.2329C18.7818 21.1538 18.8891 21.1094 19.001 21.1094H23.6416C23.7535 21.1094 23.8608 21.1538 23.9399 21.2329C24.019 21.3121 24.0635 21.4194 24.0635 21.5312C24.0635 21.6431 24.019 21.7504 23.9399 21.8296C23.8608 21.9087 23.7535 21.9531 23.6416 21.9531Z" fill="black"/>
</g>
<defs>
<clipPath id="clip0_100_425">
<rect width="27" height="27" fill="white" transform="translate(5.5 5.5)"/>
</clipPath>
</defs>
</svg>
