<svg width="38" height="38" viewBox="0 0 38 38" fill="none" xmlns="http://www.w3.org/2000/svg">
<rect width="38" height="38" rx="19" fill="#E4E4E4"/>
<g clip-path="url(#clip0_100_444)">
<path d="M31.702 11.6557C31.4185 11.3799 31.0844 11.1755 30.7211 11.051C31.7292 10.0219 31.7228 8.36454 30.7017 7.34355C29.6822 6.32404 28.0282 6.31597 26.9989 7.31966C26.8739 6.96176 26.671 6.63248 26.3986 6.35247C25.9074 5.84796 25.2493 5.56488 24.5458 5.55539C24.5335 5.55528 24.5213 5.55518 24.5089 5.55518C23.8187 5.55518 23.1676 5.81959 22.672 6.30205C22.1675 6.79311 21.8845 7.45113 21.8751 8.15165L21.8368 10.3556C19.8479 10.1113 17.7702 10.7507 16.2467 12.2742C14.823 13.6979 12.0876 17.3799 9.88386 20.8389C7.86351 24.0101 5.46304 28.2537 5.50043 30.4619C5.51108 31.09 5.70404 31.5836 6.07402 31.9293C6.44153 32.2727 6.93501 32.4449 7.57473 32.4449C8.32361 32.4448 9.27278 32.209 10.4542 31.7357C12.0129 31.1113 13.9619 30.0856 16.2469 28.6869C20.3119 26.1989 24.4534 23.1166 25.7712 21.7988C27.2921 20.2778 27.932 18.2043 27.6911 16.2184L29.9 16.18C30.6039 16.1705 31.262 15.8875 31.753 15.383C32.2441 14.8786 32.5093 14.213 32.4997 13.509C32.4899 12.8049 32.2067 12.1467 31.702 11.6557ZM24.5289 20.5565C23.3148 21.7705 19.3999 24.6814 15.507 27.0796C13.3695 28.3964 11.4691 29.4128 10.0112 30.0189C8.01259 30.8498 7.38805 30.6887 7.28506 30.6489C7.24831 30.5377 7.12196 29.9109 7.97082 27.9267C8.49785 26.6948 9.31301 25.1534 10.3464 23.4303L11.6526 24.7364C11.8242 24.908 12.049 24.9938 12.2738 24.9938C12.4985 24.9938 12.7234 24.908 12.8949 24.7364C13.238 24.3934 13.238 23.8371 12.8949 23.4941L11.295 21.8942C11.9472 20.8666 12.6212 19.8577 13.2805 18.9103L15.3797 21.0094C15.5512 21.181 15.776 21.2668 16.0008 21.2668C16.2256 21.2668 16.4505 21.181 16.622 21.0094C16.9651 20.6664 16.9651 20.1102 16.622 19.7671L14.3135 17.4587C15.1142 16.359 15.8598 15.3947 16.4765 14.6523L19.1067 17.2824C19.2782 17.4539 19.503 17.5397 19.7278 17.5397C19.9526 17.5397 20.1775 17.4539 20.349 17.2824C20.6921 16.9393 20.6921 16.3831 20.349 16.0401L17.6615 13.3526C19.6128 11.5776 22.6445 11.6321 24.529 13.5165C26.4698 15.4574 26.4698 18.6156 24.5289 20.5565ZM30.4941 14.1576C30.3304 14.3258 30.111 14.4201 29.8729 14.4233L27.235 14.4692C26.9068 13.6703 26.4191 12.922 25.7713 12.2742C25.1261 11.629 24.3813 11.1427 23.5861 10.8145L23.6318 8.17871C23.635 7.94409 23.7294 7.72472 23.8975 7.56103C24.0656 7.39745 24.289 7.31107 24.5221 7.31223C24.7566 7.31539 24.9759 7.40979 25.1397 7.57806C25.3026 7.74539 25.3909 7.96566 25.3883 8.19853L25.3621 9.29947C25.3535 9.65854 25.5643 9.98654 25.8945 10.1279C26.2246 10.2693 26.6075 10.1955 26.8614 9.94151L28.217 8.58592C28.5595 8.24341 29.1168 8.24341 29.4594 8.58592C29.8019 8.92848 29.8019 9.48578 29.4594 9.82829L28.0937 11.1938C27.8399 11.4477 27.766 11.8306 27.9073 12.1607C28.0487 12.4908 28.3762 12.7019 28.7357 12.6932L29.8568 12.6668C30.0893 12.6648 30.3096 12.7523 30.4769 12.915C30.6452 13.0788 30.7396 13.2984 30.7429 13.5332C30.7461 13.7677 30.6578 13.9895 30.4941 14.1576Z" fill="black"/>
</g>
<defs>
<clipPath id="clip0_100_444">
<rect width="27" height="27" fill="white" transform="translate(5.5 5.5)"/>
</clipPath>
</defs>
</svg>
