<svg width="38" height="38" viewBox="0 0 38 38" fill="none" xmlns="http://www.w3.org/2000/svg">
<rect width="38" height="38" rx="19" fill="#E4E4E4"/>
<path d="M25.9945 20.7988C27.3737 20.7988 28.6726 20.2625 29.6468 19.2883C29.6833 19.2554 29.7052 19.208 29.7052 19.1569C29.7052 19.1059 29.687 19.0584 29.6505 19.0256C28.6763 18.0477 27.3774 17.5077 25.9945 17.5077C25.9945 17.5077 25.9945 17.5077 25.9909 17.5077C25.2721 17.5077 24.5788 17.6573 23.9403 17.9346L24.5278 17.3472C25.8778 17.329 27.1475 16.7963 28.1071 15.8403C29.0849 14.8661 29.6213 13.5672 29.6213 12.1807C29.6213 12.0786 29.5447 12.0056 29.4352 11.9983C28.056 11.9983 26.7571 12.5346 25.7829 13.5088C24.8233 14.4684 24.2906 15.7382 24.2724 17.0918L23.6886 17.6756C23.9659 17.0371 24.1118 16.3438 24.1118 15.625C24.1118 14.2459 23.5718 12.9469 22.594 11.9691C22.521 11.8961 22.4042 11.9034 22.3313 11.9727C21.3534 12.9506 20.8171 14.2495 20.8171 15.6287C20.8171 15.7017 20.8244 15.771 20.828 15.844C20.5909 15.4061 20.288 14.9975 19.9268 14.6363C19.8538 14.5633 19.7371 14.5706 19.6641 14.6399C18.6863 15.6177 18.1499 16.9167 18.1499 18.2959C18.1499 18.3688 18.1572 18.4382 18.1609 18.5111C17.9237 18.0733 17.6209 17.6646 17.2597 17.3034C17.1867 17.2304 17.0699 17.2377 16.997 17.3071C16.0191 18.2849 15.4828 19.5838 15.4828 20.963C15.4828 21.036 15.4901 21.1053 15.4937 21.1783C15.2565 20.7404 14.9537 20.3318 14.5925 19.9706C14.5195 19.8976 14.4028 19.9049 14.3298 19.9742C13.352 20.9521 12.8156 22.251 12.8156 23.6302C12.8156 23.7031 12.8229 23.7725 12.8265 23.8454C12.5894 23.4076 12.2865 22.999 11.9253 22.6377C11.8524 22.5648 11.7356 22.5721 11.6626 22.6414C10.6848 23.6192 10.1484 24.9181 10.1484 26.2973C10.1484 27.6181 10.6447 28.8587 11.5422 29.8183L10.7395 30.621C10.6665 30.694 10.6665 30.8071 10.7395 30.88C10.7614 30.9019 10.7906 30.9165 10.8198 30.9238C10.838 30.9494 10.8636 30.9749 10.8964 30.9859C10.9183 30.9968 10.9438 31.0004 10.9657 31.0004C11.0387 31.0004 11.1044 30.9567 11.1336 30.8873L11.192 30.7487C11.2029 30.7231 11.2065 30.6976 11.2065 30.6721L11.8049 30.0737C12.7645 30.9713 14.0051 31.4675 15.3259 31.4675H15.3295C16.7087 31.4675 18.0076 30.9311 18.9891 29.946C19.0584 29.873 19.0584 29.7599 18.9855 29.6906C18.6242 29.3257 18.2156 29.0265 17.7778 28.7894C17.8507 28.793 17.9201 28.8003 17.993 28.8003H17.9967C19.3759 28.8003 20.6748 28.264 21.6526 27.2861C21.6891 27.2533 21.7074 27.2059 21.7074 27.1548C21.7074 27.1037 21.6891 27.0599 21.6526 27.0234C21.2914 26.6586 20.8828 26.3594 20.4449 26.1222C20.5179 26.1259 20.5872 26.1331 20.6602 26.1331H20.6638C22.043 26.1331 23.342 25.5968 24.3234 24.6117C24.3928 24.5387 24.3928 24.4256 24.3198 24.3563C23.9586 23.9914 23.5499 23.6922 23.1121 23.455C23.1851 23.4587 23.2544 23.466 23.3274 23.466H23.331C24.7102 23.466 26.0091 22.9296 26.9906 21.9445C27.0599 21.8715 27.0599 21.7584 26.987 21.6891C26.6257 21.3242 26.2171 21.025 25.7793 20.7879C25.8486 20.7915 25.9215 20.7988 25.9945 20.7988ZM25.9945 17.8726C27.173 17.8726 28.2859 18.2995 29.1615 19.0694H24.6372C24.0753 19.0621 23.5134 19.0402 22.9151 18.9964C23.7798 18.2703 24.8561 17.8726 25.9945 17.8726ZM27.848 15.5813C26.9833 16.446 25.8486 16.9386 24.6336 16.9823C24.6336 16.9787 24.6336 16.9787 24.6336 16.975L29.2528 12.3704C29.209 13.5854 28.7128 14.7165 27.848 15.5813ZM23.747 15.6214C23.747 16.7634 23.3492 17.8434 22.6232 18.7045C22.5794 18.1061 22.5575 17.5442 22.5502 16.9823V12.458C23.3201 13.3337 23.747 14.4429 23.747 15.6214ZM22.2145 19.146L21.0214 20.3391C21.2987 19.7006 21.4447 19.0073 21.4447 18.2886C21.4447 18.2156 21.4374 18.1463 21.4337 18.0733C21.6417 18.46 21.908 18.8176 22.2145 19.146ZM21.9226 21.7365C21.3753 21.7292 20.8317 21.7073 20.2515 21.6636C21.1126 20.9375 22.189 20.5398 23.331 20.5398H23.3347C24.5132 20.5398 25.6224 20.9667 26.498 21.7365H21.9226ZM21.0798 18.2886C21.0798 19.4269 20.6821 20.5033 19.956 21.368C19.9122 20.766 19.8903 20.2004 19.883 19.6313V15.1215C20.6529 16.0009 21.0798 17.11 21.0798 18.2886ZM19.5474 21.8132L18.3542 23.0063C18.6315 22.3677 18.7775 21.6745 18.7775 20.9557C18.7775 20.8827 18.7702 20.8134 18.7665 20.7404C18.9782 21.1272 19.2409 21.4848 19.5474 21.8132ZM19.3138 24.4C18.7483 24.3927 18.1828 24.3709 17.5807 24.3271C18.4418 23.601 19.5182 23.2033 20.6602 23.2033H20.6638C21.8424 23.2033 22.9515 23.6302 23.8272 24.4H19.3138ZM18.4126 20.9557C18.4126 22.0977 18.0149 23.1741 17.2888 24.0388C17.2451 23.4332 17.2232 22.864 17.2159 22.2911V17.7923C17.9857 18.6644 18.4126 19.7772 18.4126 20.9557ZM16.8802 24.4803L15.6871 25.6734C15.9644 25.0349 16.1103 24.3417 16.1103 23.6229C16.1103 23.5499 16.103 23.4806 16.0994 23.4076C16.311 23.7944 16.5737 24.1519 16.8802 24.4803ZM16.6357 27.0672C16.0738 27.0599 15.512 27.038 14.9136 26.9942C15.7747 26.2681 16.851 25.8704 17.993 25.8704H17.9967C19.1752 25.8704 20.2844 26.2973 21.1601 27.0672H16.6357ZM15.7455 23.6229C15.7455 24.7613 15.3478 25.8376 14.6217 26.7023C14.5779 26.0894 14.556 25.5165 14.5487 24.94V20.4559C15.3186 21.3315 15.7455 22.4444 15.7455 23.6229ZM14.213 27.1475L13.0199 28.3406C13.2972 27.7021 13.4432 27.0088 13.4432 26.29C13.4432 26.2171 13.4359 26.1477 13.4322 26.0748C13.6438 26.4615 13.9065 26.8191 14.213 27.1475ZM14.0124 29.7344C13.4359 29.7271 12.863 29.7052 12.2501 29.6614C13.1111 28.939 14.1875 28.5376 15.3295 28.5376H15.3332C16.5117 28.5376 17.6209 28.9645 18.5002 29.7344H14.0124ZM13.0783 26.29C13.0783 27.4284 12.6806 28.5048 11.9545 29.3695C11.9107 28.7529 11.8888 28.1764 11.8815 27.5926V23.123C12.6551 23.9987 13.0783 25.1115 13.0783 26.29ZM15.3295 28.1727C14.6107 28.1727 13.9138 28.3223 13.2753 28.596L14.4684 27.4029C14.7968 27.7094 15.1544 27.9757 15.5448 28.1837C15.4755 28.1837 15.4025 28.1727 15.3295 28.1727ZM17.9967 25.5092C17.2742 25.5092 16.581 25.6588 15.9425 25.9361L17.1392 24.7394C17.4676 25.0459 17.8252 25.3122 18.212 25.5202C18.139 25.5165 18.0697 25.5092 17.9967 25.5092ZM20.6638 22.8421C19.9414 22.8421 19.2482 22.9917 18.6097 23.269L19.8028 22.0759C20.1311 22.3823 20.4887 22.6487 20.8755 22.8567C20.8061 22.8494 20.7368 22.8421 20.6638 22.8421ZM23.331 20.1749C22.6122 20.1749 21.9153 20.3245 21.2768 20.5982L22.4699 19.405C22.7983 19.7115 23.1559 19.9779 23.5463 20.1859C23.4733 20.1822 23.404 20.1749 23.331 20.1749Z" fill="black"/>
<path d="M8.96275 22.8822C8.89342 22.853 8.8095 22.8749 8.75842 22.926C8.74018 22.9442 8.72923 22.9625 8.71829 22.9844C7.9995 24.6372 8.20748 26.571 9.25464 28.0268C9.29112 28.0779 9.34585 28.1034 9.40423 28.1034C9.44072 28.1034 9.4772 28.0925 9.51004 28.0706C9.59031 28.0122 9.61221 27.8991 9.55018 27.8152C9.50639 27.7532 9.46991 27.6875 9.42977 27.6255L9.79829 23.7542C9.86031 23.7615 9.92599 23.736 9.96248 23.6813C10.0209 23.601 10.0026 23.4842 9.91869 23.4259C9.6195 23.2069 9.29842 23.0245 8.96275 22.8822Z" fill="black"/>
<path d="M10.225 23.1266C10.3235 23.0974 10.3782 22.9989 10.349 22.9004C10.3271 22.8237 10.3125 22.7508 10.2943 22.6741L11.2977 20.339C11.6516 20.6054 11.9727 20.9155 12.2354 21.2658C12.2938 21.346 12.4105 21.3643 12.4908 21.3023C12.5346 21.2694 12.5601 21.2183 12.5601 21.1673C12.6148 21.1052 12.6258 21.0104 12.5747 20.941C12.5346 20.8863 12.5054 20.8279 12.4652 20.7696L12.9906 17.026C13.5124 17.4602 13.9356 18.0039 14.2275 18.6205C14.2713 18.7117 14.3808 18.7519 14.472 18.7081C14.534 18.6789 14.5669 18.6205 14.5742 18.5585C14.669 18.6387 14.7602 18.719 14.8624 18.792C14.8952 18.8175 14.9354 18.8285 14.9719 18.8285C15.0266 18.8285 15.0813 18.8029 15.1178 18.7555C15.1798 18.6752 15.1616 18.5621 15.0813 18.5001C15.0339 18.4673 14.9938 18.4271 14.95 18.3906L14.8296 17.0771C14.9646 17.4091 15.0959 17.7229 15.1908 17.9382C15.22 18.0075 15.2893 18.0477 15.3586 18.0477C15.3842 18.0477 15.4097 18.044 15.4316 18.0331C15.5228 17.9929 15.5666 17.8835 15.5265 17.7923C15.3221 17.3252 14.9536 16.4167 14.7128 15.811L14.5085 13.5817C15.4061 14.3443 16.0117 15.4279 16.1686 16.6174C16.1832 16.7159 16.2708 16.7889 16.3729 16.7743C16.4715 16.7597 16.5444 16.6685 16.5298 16.57C16.4642 16.0701 16.3219 15.5885 16.1212 15.1397C16.4569 15.4243 16.8363 15.6614 17.2413 15.8548L17.1939 15.9643C17.1538 16.0555 17.1975 16.165 17.2888 16.2051C17.3106 16.216 17.3362 16.2197 17.3617 16.2197C17.4311 16.2197 17.5004 16.1796 17.5296 16.1102L17.6427 15.8475C17.6427 15.8439 17.6463 15.8439 17.65 15.8402V15.8366C18.179 14.6143 19.2116 13.6583 20.4777 13.2169C20.5725 13.184 20.6236 13.0782 20.5908 12.9833C20.5579 12.8885 20.4521 12.8374 20.3573 12.8702C19.6093 13.1329 18.9379 13.5635 18.3906 14.1181L18.73 13.33C19.9815 12.8155 20.9666 11.8523 21.5066 10.6081C22.0575 9.34199 22.0794 7.93726 21.5686 6.64564C21.5321 6.55442 21.4263 6.50699 21.3315 6.54347C20.0471 7.05064 19.0365 8.02847 18.4855 9.29455C17.9455 10.5387 17.9163 11.9143 18.3979 13.1767L18.0732 13.9283C18.0951 13.2351 17.9747 12.5382 17.712 11.8741C17.2012 10.5898 16.2234 9.5828 14.9573 9.0355C14.8624 8.99537 14.7566 9.0428 14.7165 9.13766C14.1692 10.4037 14.1473 11.8085 14.6544 13.0928C14.6836 13.1658 14.7201 13.2351 14.7529 13.3081C14.3698 12.9797 13.9356 12.706 13.465 12.4981C13.3956 12.4689 13.3081 12.4908 13.2534 12.5455C13.2388 12.5601 13.2278 12.5783 13.2205 12.5966C12.6294 13.9648 12.6659 15.4644 13.2388 16.7487C12.8556 16.4277 12.4288 16.1577 11.9617 15.957C11.907 15.9314 11.8413 15.9424 11.7902 15.9752C11.7574 15.9971 11.7319 16.03 11.7173 16.0664C11.1408 17.4055 11.1663 18.9233 11.7501 20.2259C11.367 19.9012 10.9365 19.6202 10.4658 19.4159C10.4111 19.3904 10.3454 19.4013 10.2943 19.4341C10.2615 19.456 10.2359 19.4889 10.2213 19.5254C9.75065 20.62 9.67403 21.8532 10.0061 22.9952C10.0279 23.0755 10.1009 23.1266 10.1812 23.1266C10.1885 23.1339 10.2067 23.1302 10.225 23.1266ZM21.1709 10.4658C20.6856 11.5859 19.81 12.4616 18.6971 12.9505L21.295 6.96307C21.6963 8.10874 21.6562 9.34564 21.1709 10.4658ZM17.369 12.0128C17.8178 13.1475 17.8215 14.3881 17.38 15.5191L14.9755 9.45145C16.0738 9.9732 16.9202 10.8781 17.369 12.0128Z" fill="black"/>
</svg>
