<svg width="16" height="16" viewBox="0 0 16 16" fill="none" xmlns="http://www.w3.org/2000/svg">
<path d="M7.99979 0.999999C8.24173 1 8.48352 1.01236 8.72421 1.03702L8.77536 0.539642C8.08587 0.468897 7.38994 0.492924 6.70697 0.611054L6.7926 1.10367C7.19129 1.03463 7.59517 0.999942 7.99979 0.999999Z" fill="black"/>
<path d="M3.89644 2.3277L3.60301 1.92285C2.64151 2.61765 1.85878 3.53087 1.31925 4.58735C0.779729 5.64382 0.498845 6.81334 0.499725 7.9996C0.496452 9.15348 0.762146 10.2922 1.27572 11.3255L1.72372 11.1035C1.24451 10.1392 0.996616 9.07645 0.999725 7.9996C0.998833 6.89234 1.26099 5.8007 1.76461 4.81459C2.26823 3.82848 2.99889 2.97612 3.89644 2.3277Z" fill="black"/>
<path d="M8.24133 14.9958L8.25824 15.4955C8.96161 15.472 9.65816 15.3495 10.3273 15.1316L10.1723 14.6562C9.54777 14.8596 8.89773 14.9739 8.24133 14.9958Z" fill="black"/>
<path d="M3.49976 7.75H3.99976V13.5H3.49976V7.75Z" fill="black"/>
<path d="M4.99976 7.75H5.49976V13.5H4.99976V7.75Z" fill="black"/>
<path d="M6.49976 7.75H6.99976V13.5H6.49976V7.75Z" fill="black"/>
<path d="M15.3581 8.24127L10.8523 6.07385C10.673 5.98787 10.4669 5.97652 10.2793 6.04229C10.0916 6.10805 9.9377 6.24556 9.8513 6.42465L8.49976 9.23445V6.75C8.49938 6.41859 8.36756 6.10087 8.13322 5.86653C7.89888 5.63219 7.58116 5.50038 7.24976 5.5H6.24976V1.5C6.24976 1.23478 6.1444 0.98043 5.95686 0.792893C5.76933 0.605357 5.51497 0.5 5.24976 0.5C4.98454 0.5 4.73019 0.605357 4.54265 0.792893C4.35511 0.98043 4.24976 1.23478 4.24976 1.5V5.5H3.24976C2.91835 5.50038 2.60063 5.63219 2.36629 5.86653C2.13195 6.10087 2.00013 6.41859 1.99976 6.75V13.25C2.00006 13.5067 2.07928 13.7572 2.22668 13.9674C2.37408 14.1776 2.58254 14.3374 2.82381 14.4252C2.77029 14.5364 2.74506 14.6592 2.75035 14.7825C2.75564 14.9058 2.7913 15.0259 2.85415 15.1322C2.917 15.2385 3.00511 15.3275 3.11065 15.3916C3.2162 15.4556 3.33591 15.4926 3.45918 15.4993C3.58245 15.506 3.70546 15.4821 3.8173 15.4298C3.92914 15.3775 4.02634 15.2985 4.10029 15.1996C4.17424 15.1008 4.22265 14.9852 4.24122 14.8632C4.25979 14.7411 4.24795 14.6164 4.20675 14.5H6.29276C6.2516 14.6164 6.23979 14.7411 6.25838 14.8631C6.27697 14.9851 6.32539 15.1006 6.39933 15.1994C6.47328 15.2983 6.57047 15.3773 6.68228 15.4295C6.79409 15.4818 6.91707 15.5057 7.04031 15.499C7.16355 15.4923 7.28324 15.4553 7.38876 15.3913C7.49428 15.3273 7.58238 15.2382 7.64523 15.132C7.70808 15.0258 7.74374 14.9057 7.74906 14.7824C7.75438 14.6591 7.72918 14.5364 7.6757 14.4252C7.87223 14.3534 8.0477 14.2337 8.18614 14.0769C8.32459 13.92 8.42162 13.7311 8.4684 13.5272L11.9987 15.2253C12.0283 15.2395 12.0604 15.2478 12.0932 15.2497C12.126 15.2515 12.1588 15.2469 12.1898 15.236C12.2208 15.2252 12.2493 15.2083 12.2738 15.1864C12.2983 15.1645 12.3182 15.138 12.3324 15.1084L15.4751 8.57492C15.5038 8.51517 15.5076 8.44645 15.4857 8.38388C15.4638 8.32131 15.4179 8.27001 15.3581 8.24127ZM10.5276 6.49979C10.565 6.49978 10.6019 6.50821 10.6356 6.52444L14.9161 8.58347L14.6994 9.03406L10.4188 6.97507C10.3592 6.94628 10.3133 6.89503 10.2914 6.83253C10.2695 6.77004 10.2732 6.70139 10.3018 6.64164L10.3019 6.64139C10.3224 6.59893 10.3544 6.56311 10.3943 6.53806C10.4343 6.51301 10.4805 6.49975 10.5276 6.49979ZM4.74976 1.5C4.74976 1.36739 4.80243 1.24021 4.8962 1.14645C4.98997 1.05268 5.11715 1 5.24976 1C5.38236 1 5.50954 1.05268 5.60331 1.14645C5.69708 1.24021 5.74976 1.36739 5.74976 1.5V5.5H4.74976V1.5ZM3.74976 14.75C3.74976 14.7994 3.73509 14.8478 3.70762 14.8889C3.68015 14.93 3.64111 14.962 3.59543 14.981C3.54975 14.9999 3.49948 15.0048 3.45098 14.9952C3.40249 14.9855 3.35794 14.9617 3.32298 14.9268C3.28802 14.8918 3.26421 14.8473 3.25456 14.7988C3.24491 14.7503 3.24986 14.7 3.26879 14.6543C3.28771 14.6086 3.31975 14.5696 3.36086 14.5421C3.40198 14.5147 3.45031 14.5 3.49976 14.5C3.56604 14.5001 3.62958 14.5264 3.67645 14.5733C3.72332 14.6202 3.74968 14.6837 3.74976 14.75ZM6.99976 15C6.95031 15 6.90198 14.9853 6.86086 14.9579C6.81975 14.9304 6.78771 14.8914 6.76879 14.8457C6.74986 14.8 6.74491 14.7497 6.75456 14.7012C6.76421 14.6527 6.78802 14.6082 6.82298 14.5732C6.85794 14.5383 6.90249 14.5145 6.95098 14.5048C6.99948 14.4952 7.04975 14.5001 7.09543 14.519C7.14111 14.538 7.18015 14.57 7.20762 14.6111C7.23509 14.6522 7.24976 14.7006 7.24976 14.75C7.24968 14.8163 7.22332 14.8798 7.17645 14.9267C7.12958 14.9736 7.06604 14.9999 6.99976 15ZM7.24976 14H3.24976C3.05091 13.9998 2.86028 13.9207 2.71968 13.7801C2.57907 13.6395 2.49998 13.4488 2.49976 13.25V6.75C2.49998 6.55116 2.57907 6.36052 2.71968 6.21992C2.86028 6.07932 3.05091 6.00023 3.24976 6H4.24976V7.25H4.74976V6H5.74976V7.25H6.24976V6H7.24976C7.4486 6.00023 7.63923 6.07932 7.77983 6.21992C7.92044 6.36052 7.99953 6.55116 7.99976 6.75V10.2739L7.14211 12.0569C7.09941 12.1457 7.07462 12.242 7.06914 12.3403C7.06366 12.4387 7.07761 12.5371 7.11018 12.6301C7.14275 12.723 7.19331 12.8087 7.25897 12.8821C7.32464 12.9555 7.40412 13.0152 7.49287 13.0579L7.99784 13.3008C7.98477 13.4904 7.9003 13.668 7.76147 13.7977C7.62264 13.9275 7.43978 13.9998 7.24976 14ZM11.9902 14.6664L7.70961 12.6074C7.64986 12.5786 7.60398 12.5273 7.58205 12.4647C7.56013 12.4022 7.56396 12.3334 7.5927 12.2737L9.99543 7.27851C10.0554 7.33898 10.1253 7.38874 10.2021 7.42563L14.4826 9.48462L11.9902 14.6664Z" fill="black"/>
<path d="M12.013 8.85163C11.7011 8.70162 11.3517 8.64747 11.009 8.69601C10.6664 8.74456 10.3458 8.89363 10.0878 9.12438C9.82987 9.35512 9.64613 9.65717 9.55984 9.99234C9.47355 10.3275 9.48858 10.6807 9.60304 11.0074C9.7175 11.334 9.92624 11.6193 10.2029 11.8273C10.4795 12.0353 10.8116 12.1566 11.1571 12.1759C11.5027 12.1951 11.8462 12.1115 12.1442 11.9355C12.4423 11.7595 12.6814 11.4991 12.8314 11.1873C13.0321 10.7689 13.0586 10.2881 12.9052 9.8502C12.7517 9.41234 12.4309 9.05322 12.013 8.85163ZM12.4666 10.7343L12.0183 10.5187C12.1185 10.2424 12.1677 9.95023 12.1635 9.65635L12.1622 9.56971C12.3065 9.72274 12.41 9.90961 12.4632 10.1131C12.5164 10.3166 12.5175 10.5303 12.4666 10.7343ZM10.9124 11.2257L10.8465 11.2766L10.8452 11.1934C10.8423 10.9771 10.8757 10.762 10.9441 10.5568L11.348 10.7511C11.2304 10.9326 11.0831 11.093 10.9124 11.2257ZM11.1608 10.1063C11.2784 9.92477 11.4256 9.76434 11.5964 9.63169L11.6623 9.58069L11.6636 9.66397C11.6665 9.8802 11.6331 10.0954 11.5647 10.3005L11.1608 10.1063ZM11.2564 9.17875C11.2904 9.17875 11.3245 9.18061 11.3586 9.18343L11.2903 9.2363C11.0581 9.4165 10.8606 9.63733 10.7072 9.88807L10.2595 9.6727C10.3764 9.51922 10.5272 9.3948 10.7002 9.30913C10.8731 9.22345 11.0634 9.17883 11.2564 9.17875ZM10.0421 10.1229L10.4905 10.3386C10.3903 10.6149 10.3411 10.9071 10.3453 11.201L10.3466 11.2885C10.202 11.1354 10.0983 10.9484 10.045 10.7447C9.9918 10.541 9.99078 10.3272 10.0421 10.1229ZM11.15 11.6741L11.2185 11.621C11.4507 11.4408 11.6482 11.22 11.8016 10.9693L12.2498 11.1849C12.1222 11.3521 11.9546 11.4845 11.7624 11.57C11.5702 11.6555 11.3596 11.6913 11.15 11.6741Z" fill="black"/>
<path d="M8.82092 12.5859L9.03741 12.1355L11.2899 13.218L11.0734 13.6684L8.82092 12.5859Z" fill="black"/>
<path d="M11.3015 3.94801C11.1551 3.80191 10.9566 3.71986 10.7498 3.71986C10.5429 3.71986 10.3444 3.80191 10.198 3.94801C10.1454 4.00051 10.0741 4.02999 9.99976 4.02999C9.92543 4.02999 9.85414 4.00051 9.80153 3.94801L9.73903 3.88551C9.41008 3.55734 8.96441 3.37305 8.49976 3.37305C8.03511 3.37305 7.58943 3.55734 7.26048 3.88551C7.19357 3.95279 7.11398 4.00613 7.02631 4.04244C6.93864 4.07876 6.84464 4.09732 6.74976 4.09706V4.59706C6.91033 4.5975 7.0694 4.56609 7.21775 4.50464C7.3661 4.4432 7.50079 4.35294 7.61403 4.23909C7.84912 4.00452 8.16766 3.87279 8.49976 3.87279C8.83185 3.87279 9.15039 4.00452 9.38548 4.23909L9.44798 4.30159C9.59445 4.44769 9.79288 4.52974 9.99976 4.52974C10.2066 4.52974 10.4051 4.44769 10.5515 4.30159C10.6041 4.24908 10.6754 4.21958 10.7498 4.21958C10.8241 4.21958 10.8954 4.24908 10.948 4.30159L11.4088 4.76237C12.3049 5.66346 13.5082 6.19291 14.7779 6.24479C14.8855 6.66156 14.9542 7.08737 14.9834 7.5168L15.4822 7.4828C15.4161 6.49204 15.152 5.52457 14.7057 4.63759L14.2588 4.86201C14.4005 5.14422 14.5229 5.43572 14.625 5.7345C13.5431 5.64867 12.5276 5.17841 11.7623 4.4088L11.3015 3.94801Z" fill="black"/>
<path d="M9.1194 1.71332L13.2835 4.25802C13.427 4.34617 13.596 4.38331 13.7632 4.36341C13.9305 4.34352 14.0861 4.26776 14.2049 4.14841L15.1765 3.17679C15.2234 3.1299 15.2498 3.06631 15.2498 3C15.2498 2.93369 15.2234 2.8701 15.1765 2.82321L14.6765 2.32321C14.6357 2.28236 14.5819 2.25692 14.5244 2.25123C14.4669 2.24554 14.4092 2.25994 14.3611 2.29199L13.7498 2.69952L12.6083 1.93857L13.1998 1.14999C13.2359 1.10185 13.2534 1.0423 13.2491 0.982268C13.2449 0.922239 13.2191 0.865764 13.1765 0.823211L12.9265 0.573211C12.8894 0.536112 12.8416 0.511628 12.7898 0.503226C12.738 0.494824 12.6849 0.502931 12.638 0.526399L11.2607 1.21503L10.7979 0.937315C10.5589 0.793582 10.2787 0.734001 10.002 0.768072C9.72522 0.802144 9.46784 0.927907 9.27089 1.1253L9.07298 1.32321C9.04624 1.34995 9.02591 1.38242 9.01353 1.41815C9.00115 1.45389 8.99704 1.49197 9.00151 1.52953C9.00598 1.56709 9.01891 1.60314 9.03933 1.63497C9.05975 1.66681 9.08713 1.69359 9.1194 1.71332ZM10.5406 1.36609L11.1211 1.71438C11.1572 1.73602 11.1981 1.7482 11.2402 1.74981C11.2822 1.75142 11.3239 1.74241 11.3616 1.7236L12.6143 1.0972L12.0498 1.85C12.0294 1.8772 12.0147 1.90827 12.0067 1.94132C11.9988 1.97437 11.9976 2.0087 12.0033 2.04221C12.0091 2.07572 12.0216 2.1077 12.0401 2.13621C12.0586 2.16472 12.0828 2.18915 12.1111 2.208L13.6111 3.208C13.6522 3.23538 13.7004 3.24998 13.7498 3.24998C13.7991 3.24998 13.8474 3.23538 13.8884 3.208L14.4679 2.82168L14.6462 3L13.8513 3.79486C13.8117 3.83464 13.7599 3.85989 13.7041 3.86652C13.6484 3.87315 13.592 3.86077 13.5442 3.83139L9.65188 1.45276C9.77107 1.34478 9.92186 1.27805 10.0819 1.26244C10.242 1.24683 10.4028 1.28317 10.5406 1.36609Z" fill="black"/>
</svg>
