<svg width="16" height="16" viewBox="0 0 16 16" fill="none" xmlns="http://www.w3.org/2000/svg">
<g clip-path="url(#clip0_134_6634)">
<path d="M15.0606 9.88661C14.6689 9.32005 14.1351 8.87748 13.5102 8.59967V5.76855C13.7971 5.70326 14.012 5.44664 14.012 5.14033V4.71192C14.012 4.35642 13.7228 4.06717 13.3673 4.06717H10.6299C10.2744 4.06717 9.98513 4.35642 9.98513 4.71192V5.14033C9.98513 5.44664 10.2001 5.70326 10.4869 5.76855V8.59967C10.1114 8.76664 9.76904 8.99352 9.47038 9.27067V6.84395C9.47038 6.7697 9.4327 6.70051 9.37035 6.66023C9.30798 6.61992 9.22945 6.61401 9.16173 6.64455L5.39313 8.34345C5.31473 8.3788 5.26429 8.45683 5.26429 8.54286V11.2112H3.97745V5.55967C3.97745 5.43886 3.87951 5.34092 3.7587 5.34092H1.77776C1.65695 5.34092 1.55901 5.43886 1.55901 5.55967V11.2112H0.499634C0.378821 11.2112 0.280884 11.3091 0.280884 11.43V15.5C0.280884 15.6209 0.378821 15.7188 0.499634 15.7188H11.9986C14.0497 15.7188 15.7184 14.0501 15.7184 11.999C15.7184 11.2395 15.4909 10.5091 15.0606 9.88661ZM10.4226 5.14033V4.71192C10.4226 4.59764 10.5156 4.50467 10.6299 4.50467H13.3673C13.4815 4.50467 13.5745 4.59764 13.5745 4.71192V5.14033C13.5745 5.25461 13.4815 5.34758 13.3673 5.34758H10.6299C10.5156 5.34758 10.4226 5.25461 10.4226 5.14033ZM10.7865 8.94817C10.8698 8.91505 10.9244 8.83451 10.9244 8.74489V5.78508H13.0728V8.74489C13.0728 8.83451 13.1274 8.91505 13.2107 8.94817C13.7471 9.16145 14.2021 9.50192 14.5481 9.92695C13.4489 9.66867 12.8525 9.85264 12.2735 10.0319C11.6044 10.239 10.97 10.4351 9.47042 9.92973V9.90111C9.81363 9.48814 10.261 9.15711 10.7865 8.94817ZM5.70179 10.5135H7.70451C7.82532 10.5135 7.92326 10.4156 7.92326 10.2948C7.92326 10.174 7.82532 10.076 7.70451 10.076H5.70179V9.38661H7.70451C7.82532 9.38661 7.92326 9.28867 7.92326 9.16786C7.92326 9.04705 7.82532 8.94911 7.70451 8.94911H5.70179V8.68417L9.03288 7.18248V9.75426C9.00001 9.79767 8.9677 9.84158 8.93657 9.88658C8.65776 10.2899 8.4647 10.7387 8.36288 11.2112H5.70176L5.70179 10.5135ZM1.99651 5.77842H3.53995V6.31423H2.51479C2.39398 6.31423 2.29604 6.41217 2.29604 6.53298C2.29604 6.6538 2.39398 6.75173 2.51479 6.75173H3.53995V11.2112H1.99651V5.77842ZM0.718384 12.5862H4.78401C4.90482 12.5862 5.00276 12.4883 5.00276 12.3675C5.00276 12.2467 4.90482 12.1487 4.78401 12.1487H0.718384V11.6487H8.2957C8.28488 11.7646 8.27876 11.8814 8.27876 11.999C8.27876 12.0038 8.27891 12.0085 8.27895 12.0134H6.27295C6.15213 12.0134 6.0542 12.1113 6.0542 12.2321V15.2813H0.718384V12.5862ZM6.49173 15.2813V13.5778H7.70198C7.82279 13.5778 7.92073 13.4799 7.92073 13.359C7.92073 13.2382 7.82279 13.1403 7.70198 13.1403H6.49173V12.4509H8.30629C8.45554 13.6776 9.20429 14.722 10.2499 15.2813H6.49173ZM11.9986 15.2813C10.1887 15.2813 8.71626 13.8089 8.71626 11.999C8.71626 11.3815 8.88588 10.7967 9.18935 10.2956C10.0173 10.5875 10.6212 10.6872 11.1053 10.6872C11.6358 10.6872 12.0226 10.5675 12.4028 10.4498C13.0262 10.2568 13.6163 10.0748 14.9121 10.4809C15.1499 10.9386 15.2809 11.4562 15.2809 11.999C15.2809 13.8089 13.8084 15.2813 11.9986 15.2813ZM12.525 1.90842C12.6674 1.44936 12.7903 1.05289 12.5342 0.609421C12.4738 0.504796 12.5097 0.371015 12.6143 0.310608C12.7189 0.250171 12.8527 0.286046 12.9131 0.390671C13.2648 0.999765 13.0938 1.55133 12.9429 2.03798C12.8116 2.46133 12.6983 2.82698 12.9131 3.19905C12.9735 3.30367 12.9377 3.43745 12.833 3.49786C12.7986 3.51776 12.761 3.5272 12.7239 3.5272C12.6483 3.5272 12.5747 3.48798 12.5342 3.4178C12.2238 2.88008 12.3838 2.36386 12.525 1.90842ZM11.0474 1.90842C11.1897 1.44936 11.3126 1.05289 11.0566 0.609421C10.9962 0.504796 11.032 0.371015 11.1366 0.310608C11.2413 0.250171 11.3751 0.286046 11.4354 0.390671C11.7871 0.999765 11.6161 1.55133 11.4652 2.03795C11.334 2.46133 11.2206 2.82695 11.4354 3.19901C11.4959 3.30364 11.46 3.43742 11.3554 3.49783C11.3209 3.51773 11.2833 3.52717 11.2462 3.52717C11.1706 3.52717 11.0971 3.48795 11.0566 3.41776C10.7461 2.88008 10.9062 2.36386 11.0474 1.90842ZM2.75798 4.76839C3.20263 4.76839 3.60913 4.55401 3.85948 4.19795C4.17201 4.2928 4.51376 4.27086 4.81167 4.13633C5.18223 4.48276 5.67351 4.67848 6.18435 4.67848C6.81295 4.67848 7.39392 4.39048 7.77329 3.8993C7.92357 3.95536 8.08376 3.98451 8.24523 3.98451C8.98845 3.98451 9.5931 3.37986 9.5931 2.63667C9.5931 1.89345 8.98845 1.2888 8.24523 1.2888C8.06888 1.2888 7.89501 1.3233 7.73342 1.38958C7.35335 0.92964 6.78732 0.660108 6.18438 0.660108C5.94195 0.660108 5.70682 0.702358 5.48323 0.78589C5.18785 0.467265 4.76845 0.281327 4.33032 0.281327C3.4646 0.281327 2.76029 0.98564 2.76029 1.85136C2.76029 1.92592 2.76548 1.99986 2.77579 2.07283C2.76988 2.07276 2.76395 2.0727 2.75801 2.0727C2.01479 2.0727 1.41017 2.67736 1.41017 3.42055C1.41017 4.16373 2.01476 4.76839 2.75798 4.76839ZM2.75798 2.51017C2.84307 2.51017 2.92723 2.52186 3.00813 2.54492C3.08779 2.5677 3.17351 2.54339 3.22945 2.48226C3.28541 2.42114 3.30201 2.33367 3.27238 2.2563C3.22288 2.12711 3.19779 1.99083 3.19779 1.85133C3.19779 1.22686 3.70582 0.718796 4.33032 0.718796C4.6886 0.718796 5.02966 0.891296 5.24263 1.18026C5.30473 1.26448 5.41776 1.29295 5.51238 1.24817C5.72326 1.14826 5.94935 1.09761 6.18438 1.09761C6.70651 1.09761 7.19332 1.35608 7.4866 1.78901C7.55163 1.88498 7.6802 1.91355 7.77976 1.8542C7.92004 1.77055 8.08101 1.72633 8.24523 1.72633C8.7472 1.72633 9.1556 2.1347 9.1556 2.6367C9.1556 3.13867 8.74723 3.54705 8.24523 3.54705C8.09104 3.54705 7.93873 3.5078 7.80473 3.43355C7.70341 3.37736 7.57576 3.41001 7.51379 3.50795C7.22354 3.96695 6.72657 4.24101 6.18435 4.24101C5.73948 4.24101 5.31354 4.0512 5.01573 3.72023C4.94463 3.64123 4.82704 3.6247 4.73692 3.6812C4.47526 3.84523 4.13979 3.8642 3.86138 3.73073C3.75395 3.67926 3.62507 3.72317 3.57148 3.82955C3.41563 4.1388 3.10391 4.33092 2.75795 4.33092C2.25598 4.33092 1.8476 3.92255 1.8476 3.42055C1.84763 2.91855 2.25601 2.51017 2.75798 2.51017ZM14.0083 11.4356C14.0083 11.6096 13.8664 11.7515 13.6924 11.7515C13.5185 11.7515 13.3766 11.6096 13.3766 11.4356C13.3766 11.2616 13.5185 11.1198 13.6924 11.1198C13.8664 11.1198 14.0083 11.2616 14.0083 11.4356ZM10.7778 13.1601C10.7778 13.3341 10.6359 13.476 10.462 13.476C10.288 13.476 10.1461 13.3341 10.1461 13.1601C10.1461 12.9862 10.288 12.8443 10.462 12.8443C10.6359 12.8443 10.7778 12.9862 10.7778 13.1601ZM13.4215 13.8074C13.4215 13.9292 13.3222 14.0285 13.2004 14.0285C13.0786 14.0285 12.9793 13.9292 12.9793 13.8074C12.9793 13.6856 13.0786 13.5863 13.2004 13.5863C13.3222 13.5863 13.4215 13.6856 13.4215 13.8074ZM10.2798 11.4526C10.158 11.4526 10.0587 11.3533 10.0587 11.2315C10.0587 11.1098 10.158 11.0105 10.2798 11.0105C10.4016 11.0105 10.5009 11.1098 10.5009 11.2315C10.5009 11.3533 10.4016 11.4526 10.2798 11.4526ZM12.2594 12.2292C12.2594 12.351 12.1601 12.4503 12.0384 12.4503C11.9166 12.4503 11.8173 12.351 11.8173 12.2292C11.8173 12.1075 11.9166 12.0081 12.0384 12.0081C12.1601 12.0081 12.2594 12.1075 12.2594 12.2292Z" fill="black"/>
</g>
<defs>
<clipPath id="clip0_134_6634">
<rect width="16" height="16" fill="white" transform="translate(-0.000366211)"/>
</clipPath>
</defs>
</svg>
