<svg width="16" height="16" viewBox="0 0 16 16" fill="none" xmlns="http://www.w3.org/2000/svg">
<g clip-path="url(#clip0_134_6605)">
<path d="M15.7653 10.6333H15.2703C15.5599 10.3438 15.7392 9.94404 15.7392 9.5032C15.7392 9.03413 15.5361 8.61163 15.2134 8.31891V7.17116C15.2134 6.52004 14.6837 5.99032 14.0325 5.99032H13.9514V4.92885H13.9589C14.1404 4.92885 14.2879 4.78126 14.2879 4.59985V4.15816C14.2879 3.97673 14.1403 3.82913 13.9589 3.82913H13.2753C12.9721 3.82913 12.7254 4.07582 12.7254 4.37901V5.99035H12.0741L11.3756 3.00451C11.6054 2.93976 11.7745 2.72876 11.7745 2.47854V2.17285C11.7745 1.87132 11.5291 1.62598 11.2276 1.62598H6.17373C5.8722 1.62598 5.62685 1.87132 5.62685 2.17285V2.47854C5.62685 2.77654 5.86654 3.0192 6.1632 3.02488V5.93554L5.15148 4.92382C5.0777 4.85007 4.97957 4.80941 4.87523 4.80941C4.77085 4.80941 4.67276 4.85007 4.59901 4.92382L1.38188 8.14091H0.407384C0.191165 8.14091 0.0152588 8.31682 0.0152588 8.53304V8.85198V9.17876V10.0064C0.0152588 10.1359 0.120165 10.2408 0.249634 10.2408C0.379103 10.2408 0.484009 10.1359 0.484009 10.0064V9.41313H1.22395V10.0064C1.22395 10.1359 1.32885 10.2408 1.45832 10.2408C1.58779 10.2408 1.6927 10.1359 1.6927 10.0064V9.41313H2.3717V10.0064C2.3717 10.1359 2.4766 10.2408 2.60607 10.2408C2.73554 10.2408 2.84045 10.1359 2.84045 10.0064V9.41313H3.58038V10.0064C3.58038 10.1359 3.68529 10.2408 3.81476 10.2408C3.94423 10.2408 4.04913 10.1359 4.04913 10.0064V9.17876V8.85198V8.53304C4.04913 8.31682 3.87323 8.14091 3.65701 8.14091H3.14973L3.54098 7.74966C3.63251 7.6581 3.63251 7.50973 3.54098 7.4182C3.44941 7.3267 3.30104 7.3267 3.20951 7.4182L2.48682 8.14091H2.04482L4.87523 5.31051L5.0962 5.53145L3.9972 6.63045C3.90566 6.72201 3.90566 6.87038 3.9972 6.96191C4.08876 7.05341 4.23713 7.05338 4.32867 6.96191L4.87523 6.41535L5.29476 6.83488C5.23148 6.95895 5.24013 7.11057 5.32148 7.22676C5.26241 7.34291 5.21235 7.46385 5.17198 7.58751C4.99338 7.61904 4.85729 7.77535 4.85729 7.96285V8.78773C4.85729 8.97523 4.99338 9.13154 5.17198 9.16307C5.21235 9.28679 5.26248 9.40769 5.32148 9.52382C5.21745 9.67241 5.23173 9.8792 5.36429 10.0118L5.94754 10.5951C5.96176 10.6093 5.97698 10.6219 5.99273 10.6334H0.234009C0.10454 10.6334 -0.000366211 10.7383 -0.000366211 10.8677C-0.000366211 10.9972 0.10454 11.1021 0.234009 11.1021H15.7653C15.8947 11.1021 15.9996 10.9972 15.9996 10.8677C15.9996 10.7383 15.8947 10.6333 15.7653 10.6333ZM3.58035 8.60966V8.94438H0.484009V8.60966H3.58035ZM13.1942 4.37898C13.1942 4.33423 13.2306 4.29785 13.2754 4.29785H13.8192V4.46007H13.717C13.5876 4.46007 13.4827 4.56498 13.4827 4.69445V5.99029H13.1942V4.37898ZM11.5927 5.99029H8.9876V3.02538H10.8991L11.5927 5.99029ZM6.0956 2.47851V2.17282C6.0956 2.12973 6.13063 2.0947 6.17373 2.0947H11.2276C11.2707 2.0947 11.3058 2.12973 11.3058 2.17282V2.47851C11.3058 2.5216 11.2707 2.55663 11.2276 2.55663H6.17373C6.13063 2.55663 6.0956 2.52157 6.0956 2.47851ZM7.80679 4.23051C7.67732 4.23051 7.57241 4.33541 7.57241 4.46488V5.64848H7.17167C6.98417 5.64848 6.82785 5.78457 6.79632 5.96316C6.74088 5.98126 6.6861 6.0016 6.63195 6.02354V3.02538H7.57241V3.3542C7.57241 3.48366 7.67732 3.58857 7.80679 3.58857C7.93626 3.58857 8.04117 3.48366 8.04117 3.3542V3.02538H8.51885V5.99032H8.44976C8.42388 5.98095 8.39798 5.97176 8.37182 5.96323C8.34285 5.79904 8.20832 5.67107 8.04113 5.65141V4.46488C8.04117 4.33541 7.93626 4.23051 7.80679 4.23051ZM5.20673 6.08388L5.4277 5.86291L5.83395 6.26916L5.61298 6.49013L5.20673 6.08388ZM8.5626 10.1978C8.44123 10.2631 8.31279 10.3164 8.18085 10.356C8.04707 10.3962 7.94938 10.5025 7.91892 10.6333H7.24926C7.21879 10.5026 7.12113 10.3962 6.98741 10.356C6.85541 10.3164 6.72695 10.2631 6.60557 10.1979C6.48251 10.1317 6.33816 10.1377 6.22416 10.2087L5.75067 9.7352C5.8216 9.6212 5.82773 9.47685 5.76151 9.35379C5.69617 9.23229 5.64295 9.10388 5.60332 8.97195C5.56307 8.8382 5.45676 8.74057 5.32604 8.7101V8.04045C5.45673 8.00998 5.56307 7.91232 5.60332 7.77854C5.64295 7.6467 5.69617 7.51826 5.76151 7.39676C5.82776 7.27366 5.82163 7.12932 5.75067 7.01532L6.22413 6.54185C6.33813 6.61282 6.48242 6.61895 6.60554 6.55273C6.72707 6.48735 6.85551 6.43413 6.98735 6.39451C7.1211 6.35432 7.21879 6.24798 7.24926 6.11723H7.91892C7.94938 6.24801 8.04707 6.35435 8.18082 6.39451C8.3127 6.43413 8.4411 6.48735 8.56257 6.5527C8.6857 6.61895 8.82998 6.61282 8.94401 6.54185L9.41751 7.01535C9.34657 7.12932 9.34045 7.27366 9.40663 7.39676C9.47195 7.51813 9.52517 7.64657 9.56485 7.77854C9.60504 7.91232 9.71138 8.00998 9.84213 8.04045V8.7101C9.71135 8.74054 9.60501 8.83823 9.56485 8.97195C9.52517 9.10398 9.47195 9.23241 9.40663 9.35379C9.34045 9.47688 9.34657 9.62123 9.41751 9.7352L8.94401 10.2087C8.82995 10.1378 8.68563 10.1317 8.5626 10.1978ZM9.17538 10.6333C9.19113 10.6218 9.20635 10.6093 9.22054 10.595L9.80388 10.0117C9.92704 9.88851 9.94788 9.70126 9.86673 9.5561H11.1246C11.2541 9.5561 11.359 9.4512 11.359 9.32173C11.359 9.19226 11.2541 9.08735 11.1246 9.08735H10.1645C10.2534 9.01751 10.3109 8.90929 10.3109 8.78769V7.96285C10.3109 7.77535 10.1748 7.61904 9.99617 7.58751C9.95576 7.46373 9.90566 7.34282 9.8467 7.22676C9.95076 7.07816 9.93648 6.87138 9.80385 6.73876L9.52417 6.45907H14.0326C14.3686 6.45907 14.6509 6.69316 14.7253 7.00679H14.3332C14.03 7.00679 13.7833 7.25348 13.7833 7.55666V7.94498C13.2077 8.07685 12.7496 8.51998 12.5966 9.08735H12.2184C12.0889 9.08735 11.984 9.19226 11.984 9.32173C11.984 9.4512 12.0889 9.5561 12.2184 9.5561H12.5428C12.5565 9.97591 12.7324 10.3554 13.0104 10.6333H9.17538ZM14.7446 7.47554V8.02323C14.5909 7.9602 14.4252 7.92063 14.252 7.9086V7.55663C14.252 7.51188 14.2884 7.47551 14.3331 7.47551H14.7446V7.47554ZM14.1403 10.6333C13.5172 10.6333 13.0102 10.1264 13.0102 9.5032C13.0102 8.88004 13.5172 8.37304 14.1403 8.37304C14.7635 8.37304 15.2704 8.88004 15.2704 9.5032C15.2704 10.1264 14.7635 10.6333 14.1403 10.6333Z" fill="black"/>
<path d="M7.58409 6.81445C6.72365 6.81445 6.02362 7.51445 6.02362 8.37492C6.02362 9.23539 6.72362 9.93542 7.58409 9.93542C8.44456 9.93542 9.14459 9.23539 9.14459 8.37492C9.14459 7.51445 8.44453 6.81445 7.58409 6.81445ZM7.58409 9.46664C6.98212 9.46664 6.49237 8.97689 6.49237 8.37489C6.49237 7.77292 6.98212 7.28317 7.58409 7.28317C8.18609 7.28317 8.67584 7.77292 8.67584 8.37489C8.67584 8.97692 8.18609 9.46664 7.58409 9.46664Z" fill="black"/>
<path d="M7.58405 7.51953C7.11233 7.51953 6.72858 7.90328 6.72858 8.375C6.72858 8.84672 7.11233 9.2305 7.58405 9.2305C8.05576 9.2305 8.43955 8.84672 8.43955 8.375C8.43955 7.90328 8.05576 7.51953 7.58405 7.51953ZM7.58405 8.76175C7.37083 8.76175 7.19733 8.58825 7.19733 8.375C7.19733 8.16178 7.37083 7.98828 7.58405 7.98828C7.7973 7.98828 7.9708 8.16178 7.9708 8.375C7.9708 8.58825 7.7973 8.76175 7.58405 8.76175Z" fill="black"/>
<path d="M14.1403 8.83691C13.773 8.83691 13.4741 9.13576 13.4741 9.50313C13.4741 9.87048 13.773 10.1693 14.1403 10.1693C14.5077 10.1693 14.8066 9.87048 14.8066 9.50313C14.8066 9.13579 14.5077 8.83691 14.1403 8.83691ZM14.1403 9.7006C14.0315 9.7006 13.9429 9.61204 13.9429 9.50316C13.9429 9.39429 14.0315 9.3057 14.1403 9.3057C14.2492 9.3057 14.3378 9.39429 14.3378 9.50316C14.3378 9.61204 14.2492 9.7006 14.1403 9.7006Z" fill="black"/>
<path d="M2.43784 12.9629H1.99896C1.86949 12.9629 1.76459 13.0678 1.76459 13.1973C1.76459 13.3267 1.86949 13.4316 1.99896 13.4316H2.43787C2.56734 13.4316 2.67224 13.3267 2.67224 13.1973C2.67224 13.0678 2.56731 12.9629 2.43784 12.9629Z" fill="black"/>
<path d="M4.31275 13.9053H3.87384C3.74437 13.9053 3.63947 14.0102 3.63947 14.1396C3.63947 14.2691 3.74437 14.374 3.87384 14.374H4.31275C4.44222 14.374 4.54712 14.2691 4.54712 14.1396C4.54712 14.0102 4.44218 13.9053 4.31275 13.9053Z" fill="black"/>
<path d="M6.29203 12.9629H5.85309C5.72362 12.9629 5.61871 13.0678 5.61871 13.1973C5.61871 13.3267 5.72362 13.4316 5.85309 13.4316H6.29203C6.42149 13.4316 6.5264 13.3267 6.5264 13.1973C6.5264 13.0678 6.42149 12.9629 6.29203 12.9629Z" fill="black"/>
<path d="M8.16697 13.9053H7.72803C7.59856 13.9053 7.49365 14.0102 7.49365 14.1396C7.49365 14.2691 7.59856 14.374 7.72803 14.374H8.16697C8.29643 14.374 8.40134 14.2691 8.40134 14.1396C8.40134 14.0102 8.2964 13.9053 8.16697 13.9053Z" fill="black"/>
<path d="M10.1462 12.9629H9.70721C9.57775 12.9629 9.47284 13.0678 9.47284 13.1973C9.47284 13.3267 9.57775 13.4316 9.70721 13.4316H10.1462C10.2756 13.4316 10.3805 13.3267 10.3805 13.1973C10.3805 13.0678 10.2756 12.9629 10.1462 12.9629Z" fill="black"/>
<path d="M12.0211 13.9053H11.5822C11.4527 13.9053 11.3478 14.0102 11.3478 14.1396C11.3478 14.2691 11.4527 14.374 11.5822 14.374H12.0211C12.1506 14.374 12.2555 14.2691 12.2555 14.1396C12.2555 14.0102 12.1505 13.9053 12.0211 13.9053Z" fill="black"/>
<path d="M14.0003 12.9629H13.5614C13.4319 12.9629 13.327 13.0678 13.327 13.1973C13.327 13.3267 13.4319 13.4316 13.5614 13.4316H14.0003C14.1298 13.4316 14.2347 13.3267 14.2347 13.1973C14.2347 13.0678 14.1298 12.9629 14.0003 12.9629Z" fill="black"/>
<path d="M15.237 11.9941C14.9925 11.9941 14.8819 11.9368 14.7417 11.8642C14.5766 11.7786 14.3895 11.6816 14.0308 11.6816C13.6722 11.6816 13.4851 11.7786 13.32 11.8642C13.1798 11.9368 13.0691 11.9941 12.8247 11.9941C12.5803 11.9941 12.4696 11.9368 12.3294 11.8642C12.1643 11.7786 11.9772 11.6816 11.6185 11.6816C11.2598 11.6816 11.0726 11.7786 10.9076 11.8642C10.7674 11.9368 10.6567 11.9941 10.4122 11.9941C10.1678 11.9941 10.0571 11.9368 9.91696 11.8642C9.75186 11.7786 9.56474 11.6816 9.20605 11.6816C8.84739 11.6816 8.66027 11.7786 8.49518 11.8642C8.35508 11.9368 8.24439 11.9941 7.99999 11.9941C7.75558 11.9941 7.64486 11.9368 7.50471 11.8642C7.33961 11.7786 7.15249 11.6816 6.7938 11.6816C6.43511 11.6816 6.24796 11.7786 6.08286 11.8642C5.94271 11.9368 5.83202 11.9941 5.58755 11.9941C5.34308 11.9941 5.23243 11.9368 5.09224 11.8642C4.92711 11.7786 4.73999 11.6816 4.38127 11.6816C4.02258 11.6816 3.83543 11.7786 3.67033 11.8642C3.53018 11.9368 3.41949 11.9941 3.17502 11.9941C2.93055 11.9941 2.81983 11.9368 2.67964 11.8642C2.51452 11.7786 2.32733 11.6816 1.96861 11.6816C1.60989 11.6816 1.42274 11.7786 1.25761 11.8642C1.11746 11.9368 1.00674 11.9941 0.762207 11.9941C0.632738 11.9941 0.527832 12.099 0.527832 12.2285C0.527832 12.358 0.632738 12.4629 0.762207 12.4629C1.12093 12.4629 1.30811 12.3659 1.47324 12.2804C1.61339 12.2078 1.72411 12.1504 1.96861 12.1504C2.21311 12.1504 2.32383 12.2078 2.46402 12.2804C2.62914 12.3659 2.8163 12.4629 3.17502 12.4629C3.53371 12.4629 3.72086 12.3659 3.88596 12.2804C4.02611 12.2078 4.1368 12.1504 4.38127 12.1504C4.62574 12.1504 4.73643 12.2078 4.87661 12.2804C5.04174 12.3659 5.22886 12.4629 5.58755 12.4629C5.94624 12.4629 6.13339 12.3659 6.29849 12.2804C6.43864 12.2078 6.54933 12.1504 6.7938 12.1504C7.03821 12.1504 7.14893 12.2077 7.28908 12.2804C7.45418 12.3659 7.6413 12.4629 7.99999 12.4629C8.35864 12.4629 8.54577 12.3659 8.71086 12.2804C8.85096 12.2077 8.96164 12.1504 9.20605 12.1504C9.45046 12.1504 9.56118 12.2077 9.70133 12.2804C9.86643 12.3659 10.0536 12.4629 10.4122 12.4629C10.7709 12.4629 10.9581 12.3659 11.1232 12.2804C11.2633 12.2078 11.374 12.1504 11.6185 12.1504C11.8629 12.1504 11.9736 12.2077 12.1138 12.2804C12.2789 12.3659 12.466 12.4629 12.8247 12.4629C13.1834 12.4629 13.3705 12.3659 13.5356 12.2804C13.6757 12.2077 13.7864 12.1504 14.0308 12.1504C14.2753 12.1504 14.3859 12.2077 14.5261 12.2804C14.6912 12.3659 14.8783 12.4629 15.237 12.4629C15.3664 12.4629 15.4713 12.358 15.4713 12.2285C15.4713 12.099 15.3664 11.9941 15.237 11.9941Z" fill="black"/>
<path d="M10.9268 7.71387C10.7973 7.71387 10.6924 7.81877 10.6924 7.94824V8.59409C10.6924 8.72355 10.7973 8.82846 10.9268 8.82846C11.0562 8.82846 11.1611 8.72355 11.1611 8.59409V7.94824C11.1611 7.81877 11.0562 7.71387 10.9268 7.71387Z" fill="black"/>
<path d="M11.6143 7.71387C11.4848 7.71387 11.3799 7.81877 11.3799 7.94824V8.59409C11.3799 8.72355 11.4848 8.82846 11.6143 8.82846C11.7437 8.82846 11.8486 8.72355 11.8486 8.59409V7.94824C11.8486 7.81877 11.7437 7.71387 11.6143 7.71387Z" fill="black"/>
<path d="M12.3018 8.82846C12.4312 8.82846 12.5361 8.72355 12.5361 8.59409V7.94824C12.5361 7.81877 12.4312 7.71387 12.3018 7.71387C12.1723 7.71387 12.0674 7.81877 12.0674 7.94824V8.59409C12.0674 8.72355 12.1723 8.82846 12.3018 8.82846Z" fill="black"/>
</g>
<defs>
<clipPath id="clip0_134_6605">
<rect width="16" height="16" fill="white" transform="translate(-0.000366211)"/>
</clipPath>
</defs>
</svg>
