<svg width="50" height="50" viewBox="0 0 50 50" fill="none" xmlns="http://www.w3.org/2000/svg">
<rect width="49.6643" height="49.6643" rx="8.7643" fill="#E9E7FD"/>
<path d="M24.2863 38.2225C21.3169 38.2225 18.8847 37.6069 16.9896 36.3757C15.0945 35.1444 13.99 33.2856 13.6762 30.799L18.2751 30.636C18.601 31.9638 19.289 32.9657 20.3392 33.6416C21.4014 34.3055 22.7111 34.6375 24.2682 34.6375C25.1976 34.6375 26.0486 34.4806 26.8212 34.1667C27.5937 33.8529 28.2093 33.4183 28.668 32.8631C29.1267 32.3078 29.356 31.6681 29.356 30.9438C29.356 29.8937 29.0301 29.0849 28.3783 28.5176C27.7385 27.9382 26.7306 27.4856 25.3546 27.1597L20.9548 26.1095C18.9993 25.6629 17.4362 24.8783 16.2653 23.7557C15.0945 22.6211 14.497 21.1002 14.4728 19.193C14.4608 17.6117 14.8772 16.2357 15.7221 15.0648C16.5792 13.8819 17.7561 12.9706 19.2528 12.3308C20.7496 11.679 22.4455 11.3531 24.3406 11.3531C26.2357 11.3531 27.8713 11.7031 29.2474 12.4032C30.6234 13.0913 31.6857 14.0147 32.434 15.1735C33.1824 16.3322 33.5626 17.6057 33.5747 18.9938L29.1025 19.1387C28.8973 17.7988 28.4326 16.7668 27.7084 16.0425C26.9841 15.3062 25.8736 14.9381 24.3768 14.9381C23.6526 14.9381 22.9766 15.0226 22.349 15.1916C21.7213 15.3606 21.1721 15.608 20.7013 15.9339C20.2306 16.2598 19.8624 16.6582 19.5968 17.1289C19.3313 17.5876 19.1985 18.1127 19.1985 18.7041C19.1985 19.5491 19.4882 20.219 20.0676 20.7139C20.6591 21.1967 21.7334 21.6615 23.2905 22.1081L27.5635 23.2307C29.869 23.8221 31.5227 24.7878 32.5246 26.1276C33.5385 27.4675 34.0455 29.0608 34.0455 30.9076C34.0455 32.3682 33.6411 33.6477 32.8324 34.7461C32.0236 35.8325 30.883 36.6835 29.4103 37.2991C27.9498 37.9147 26.2418 38.2225 24.2863 38.2225ZM22.2584 41.4635V36.774H26.1512V41.4635H22.2584ZM22.4033 12.5481V7.85861H26.3142V12.5481H22.4033Z" fill="#264CC8"/>
</svg>
