<svg width="312" height="299" viewBox="0 0 312 299" fill="none" xmlns="http://www.w3.org/2000/svg">
<g opacity="0.8">
<path d="M149.991 172.334C149.991 172.334 146.534 174.117 145.502 175.282C144.469 176.446 144.231 178.848 144.231 178.848C144.231 178.848 140.353 178.416 139.442 177.556C138.53 176.696 136.174 177.556 136.174 177.556C136.174 177.556 136.775 180.686 135.563 181.59C135.281 181.789 134.936 181.877 134.594 181.835C133.43 181.762 132.053 180.676 131.685 180.44C131.2 180.135 128.418 180.013 128.418 180.013C128.284 180.821 128.04 181.607 127.69 182.346C127.206 183.206 125.552 183.162 125.552 183.162L124.476 181.978L123.749 183.943C123.749 183.943 125.203 184.803 124.961 186.031C124.719 187.259 123.264 185.539 122.658 186.276C122.052 187.013 123.87 187.382 123.264 189.715C122.658 192.049 120.84 190.575 120.84 190.575C119.758 190.747 118.663 190.829 117.568 190.821C115.629 190.821 111.266 188.856 109.084 188.487C106.903 188.119 104.115 191.066 104.115 191.066L102.418 192.049V193.891C103.655 194.656 104.83 195.518 105.933 196.47C106.903 197.453 109.084 197.084 109.084 197.084C109.084 197.084 110.902 199.909 111.144 202.12C111.387 204.331 114.417 207.524 114.417 207.524L114.902 209.489C114.902 209.489 120.113 212.191 119.507 213.788C118.901 215.385 116.72 213.911 116.72 213.911C116.72 213.911 114.902 214.648 114.174 214.279C113.447 213.911 113.811 208.998 113.811 208.998L110.902 204.331L105.327 203.103L101.327 204.699C101.327 204.699 99.7519 203.225 99.2671 203.225C98.7823 203.225 99.2671 201.26 97.8127 200.523C96.3583 199.787 93.9344 201.506 93.9344 201.506L93.4496 204.822C93.4496 204.822 92.2376 202.611 90.7832 203.962C89.3289 205.313 91.9952 206.787 92.48 208.138C92.9648 209.489 92.3588 210.472 92.1164 211.823C91.874 213.174 92.48 216.49 91.5104 217.718C90.5408 218.946 88.1169 217.35 88.1169 217.35L87.3897 219.069C87.3897 219.069 89.0865 221.157 88.2381 222.14C87.3897 223.122 87.3897 221.771 84.3598 221.771C81.3298 221.771 80.9662 223.122 78.7847 223.614C76.6031 224.105 73.5732 219.438 64.7257 223.614C55.8783 227.789 57.4539 232.579 55.8783 235.65C54.3027 238.72 52.1212 237.615 49.4548 239.089C46.7885 240.563 46.6043 254.073 47.8793 258.494C50.5456 261.688 48.97 264.144 48.97 264.144L49.8184 270.531L52.3636 274.215C53.9391 274.215 54.5451 273.355 55.5147 273.478C56.4843 273.601 55.7571 275.689 54.5451 276.18C53.3332 276.672 50.788 277.654 50.788 279.619C50.788 281.584 49.7796 281.584 49.7796 281.584C49.7796 281.584 1.62053 277.492 1.13574 277.816C0.650951 278.14 1.62053 37.6304 1.62053 37.6304L121.529 0.573242C121.698 0.725538 121.897 0.892573 122.125 1.06452C122.125 1.06452 120.671 2.96577 120.671 4.62137C120.671 6.27698 120.545 8.36983 120.123 9.59802C119.701 10.8262 117.335 13.8918 116.181 15.739C115.028 17.5862 113.515 20.2195 112.851 23.1082C112.187 25.9969 111.518 26.4832 111.576 27.9571C111.634 29.4309 111.993 30.045 111.576 30.6591C111.159 31.2732 110.306 30.4773 110.005 31.396C109.705 32.3147 107.455 37.4731 107.397 38.0922C107.339 38.7112 107.581 39.4383 107.397 39.9295C107.213 40.4208 106.791 39.5021 106.369 40.976C105.947 42.4498 104.546 45.9526 104.609 48.7136C104.672 51.4746 104.973 53.3807 105.884 55.223C106.796 57.0653 108.182 59.3989 108.551 61.1822C108.776 62.0647 108.815 62.9852 108.667 63.8843H107.698L105.337 68.178C105.337 68.178 104.852 72.6634 105.337 73.5231C105.995 75.0854 106.404 76.7436 106.549 78.4359C106.549 79.5413 106.064 83.7172 106.549 85.0682C107.033 86.4192 110.185 90.4722 110.185 92.5602V103.123C110.185 104.596 112.487 107.299 112.487 108.65V111.474C112.487 111.474 109.821 109.632 109.457 114.176C109.094 118.721 109.7 118.966 110.427 120.44L114.902 129.534C114.902 129.534 119.143 128.428 118.78 132.481C118.78 132.481 115.144 133.096 113.69 133.832C112.235 134.569 109.448 135.798 108.72 138.868C108.293 140.649 107.969 142.453 107.751 144.272C107.751 144.272 110.054 147.343 119.628 148.202C129.203 149.062 131.869 148.202 131.869 148.202C131.869 148.202 133.202 151.641 135.142 151.887C137.081 152.133 140.353 151.027 140.353 151.027L141.201 151.921H144.595C144.595 151.921 145.807 152.437 145.807 154.378V157.355H148.609C148.861 158.048 149.094 158.701 149.264 159.202C149.807 160.853 149.991 172.334 149.991 172.334ZM130.715 5.90361V9.72084C130.715 9.72084 128.902 11.568 128.66 11.7498C128.418 11.9316 128.66 15.2526 128.66 15.2526L127.87 15.4344L127.506 17.0311L126.415 18.1364V20.9613L125.751 22.0667L125.446 27.7164C125.446 27.7164 123.085 29.313 122.959 29.4997C122.833 29.6864 123.022 37.0506 123.085 38.8929C123.148 40.7352 124.413 41.2265 124.413 41.2265L124.297 43.5011C124.297 43.5011 121.446 45.7119 120.661 48.5957C119.876 51.4795 121.204 56.6379 121.325 58.9764C121.446 61.3149 122.125 68.3107 122.125 68.3107L117.51 72.177H113.36C112.325 71.7341 111.321 71.2203 110.354 70.6393C108.963 69.7845 105.327 68.1829 105.327 68.1829L107.688 63.8892H108.657C108.806 62.9902 108.766 62.0696 108.541 61.1871C108.173 59.4038 106.781 57.0702 105.875 55.2279C104.968 53.3856 104.663 51.4795 104.6 48.7185C104.537 45.9575 105.933 42.4547 106.36 40.9809C106.786 39.507 107.203 40.4257 107.387 39.9344C107.572 39.4432 107.329 38.7062 107.387 38.0971C107.445 37.4879 109.69 32.3196 109.995 31.4009C110.301 30.4823 111.144 31.2781 111.566 30.664C111.988 30.0499 111.629 29.4358 111.566 27.962C111.503 26.4882 112.177 25.9969 112.841 23.1131C113.505 20.2293 115.023 17.5813 116.172 15.7439C117.321 13.9065 119.691 10.8311 120.113 9.60293C120.535 8.37474 120.661 6.28189 120.661 4.62629C120.661 2.97068 122.115 1.06943 122.115 1.06943C123.807 2.35167 127.065 4.15957 130.715 5.90361Z" fill="#355CBF" stroke="white" stroke-width="0.245639"/>
<path d="M242.343 97.4137C242.343 99.3788 242.28 102.572 241.489 104.419C240.699 106.267 240.52 108.408 240.462 110.806C240.404 113.203 240.277 116.392 239.371 117.129C238.464 117.866 236.583 117.497 235.977 118.603C235.371 119.708 236.22 121.978 235.43 122.901C234.639 123.825 232.763 123.638 232.763 123.638C232.763 123.638 232.463 126.645 231.978 127.446C231.493 128.246 230.16 128.797 229.675 130.148C229.19 131.499 228.885 132.481 228.827 132.668C228.022 133.459 226.979 133.955 225.865 134.078C224.464 134.142 212.043 133.768 212.043 133.768C212.043 133.768 210.041 132.727 209.008 133.768C207.976 134.81 206.89 136.78 206.042 137.025C205.193 137.271 202.949 137.025 202.949 137.025L201.009 136.411L195.318 137.826C195.318 137.826 193.558 141.383 192.104 141.57C190.649 141.756 187.741 141.02 187.741 141.02L185.622 143.289L182.287 144.822C182.287 144.822 181.986 142.366 181.196 142.552C180.406 142.739 180.469 144.331 180.469 144.331L178.772 143.903L178.287 144.822L177.012 145.249V147.278C175.301 145.436 174.21 146.212 173.245 146.704C173.089 146.786 172.927 146.857 172.761 146.915C171.665 147.278 168.747 147.278 168.819 146.915C169.367 144.213 167.85 143.781 167.85 143.781C167.85 143.781 166.395 143.658 164.679 143.348C162.963 143.039 160.757 142.857 159.347 143.348C158.038 143.716 156.699 143.962 155.347 144.085C155.347 144.085 155.163 145.009 154.62 147.278C154.484 147.919 154.191 148.515 153.767 149.009C153.343 149.504 152.803 149.882 152.196 150.108V151.887C150.257 151.641 147.891 152.319 147.59 153.238C147.382 153.881 147.998 155.728 148.56 157.35H145.758V154.372C145.758 152.437 144.546 151.916 144.546 151.916H141.152L140.304 151.022C140.304 151.022 137.032 152.127 135.092 151.882C133.153 151.636 131.82 148.197 131.82 148.197C131.82 148.197 129.154 149.057 119.579 148.197C110.005 147.337 107.702 144.267 107.702 144.267C107.92 142.448 108.244 140.643 108.671 138.863C109.399 135.792 112.186 134.564 113.64 133.827C115.095 133.09 118.779 132.481 118.779 132.481C119.143 128.428 114.901 129.533 114.901 129.533L110.417 120.445C109.689 118.971 109.083 118.725 109.447 114.181C109.811 109.637 112.477 111.479 112.477 111.479V108.654C112.477 107.303 110.174 104.601 110.174 103.127V92.5648C110.174 90.4768 107.023 86.4238 106.538 85.0728C106.053 83.7218 106.538 79.5459 106.538 78.4405C106.394 76.7482 105.984 75.09 105.326 73.5277C104.842 72.668 105.326 68.1826 105.326 68.1826C105.326 68.1826 108.962 69.7842 110.354 70.639C111.32 71.22 112.324 71.7338 113.359 72.1767H117.509L122.124 68.3104C122.124 68.3104 121.446 61.3048 121.324 58.9761C121.203 56.6474 119.87 51.4792 120.66 48.5954C121.45 45.7116 124.296 43.5008 124.296 43.5008L124.413 41.2262C124.413 41.2262 123.142 40.7349 123.084 38.8926C123.026 37.0504 122.842 29.6812 122.958 29.4994C123.074 29.3176 125.445 27.7161 125.445 27.7161L125.751 22.0664L126.415 20.961V18.1361L127.505 17.0308L127.869 15.4341L128.659 15.2523C128.659 15.2523 128.417 11.9313 128.659 11.7495C128.902 11.5678 130.715 9.72055 130.715 9.72055V5.90332C134.135 7.55749 137.65 9.0044 141.24 10.2364C148.191 12.5257 157.965 18.0133 160.311 20.2241C162.658 22.4348 212.504 64.7683 215.655 67.1411C218.806 69.514 232.138 79.9979 233.675 82.1251C234.615 83.427 239.686 87.3277 243.492 90.1673C243.579 90.2312 242.343 95.4486 242.343 97.4137Z" fill="#355CBF" stroke="white" stroke-width="0.245639"/>
<path d="M150.99 199.879C150.621 199.488 150.204 199.146 149.749 198.862C148.779 198.435 147.141 200.09 145.745 200.277C144.348 200.464 140.654 198.862 139.263 198.435C137.872 198.007 133.688 192.171 131.87 190.147C130.551 188.673 127.264 185.047 125.568 183.161C125.568 183.161 127.221 183.205 127.705 182.345C128.055 181.606 128.3 180.82 128.433 180.012C128.433 180.012 131.215 180.135 131.7 180.439C132.073 180.675 133.45 181.761 134.609 181.834C134.609 181.834 136.185 185.725 136.301 185.907C136.417 186.089 138.967 185.784 140 186.217C141.032 186.649 144.959 189.036 144.959 189.036V192.849L147.141 193.949V195.119C147.141 195.119 147.626 195.119 148.295 195.222C149.448 195.379 151.116 195.752 151.504 196.651C152.091 198.017 151.063 199.756 150.99 199.879Z" fill="#355CBF" stroke="white" stroke-width="0.245639"/>
<path d="M311 146.891C311 146.891 302.409 161.182 294.938 173.661L292.762 170.679L269.429 160.789L266.888 165.52L252.156 157.35L234.344 161.438C234.344 161.438 222.099 181.978 221.982 184.744C221.866 187.51 223.374 197.144 223.679 198.618C223.985 200.091 225.919 203.53 225.919 203.53C225.919 203.53 225.851 205.923 225.87 208.08L202.406 193.646C202.406 193.646 200.652 189.838 201.98 186.154C203.308 182.469 208.651 179.212 208.651 179.212C208.651 179.212 207.982 177.247 205.073 177.311L203.318 172.462L201.481 171.971L199.798 173.995L197.258 170.988L196.773 163.865C196.773 163.865 195.319 162.882 195.319 158.642C195.319 154.403 195.983 152.683 195.983 152.683L195.741 149.392L197.374 146.729L199.314 145.255L198.649 142.121L200.768 139.546L201.01 136.412L202.949 137.026C202.949 137.026 205.194 137.272 206.042 137.026C206.891 136.78 207.982 134.815 209.009 133.769C210.037 132.722 212.044 133.769 212.044 133.769C212.044 133.769 224.464 134.142 225.866 134.078C226.98 133.956 228.023 133.46 228.828 132.668C228.886 132.482 229.191 131.499 229.676 130.148C230.161 128.797 231.494 128.247 231.979 127.446C232.464 126.645 232.764 123.639 232.764 123.639C232.764 123.639 234.645 123.825 235.43 122.902C236.216 121.978 235.372 119.709 235.978 118.603C236.584 117.498 238.465 117.866 239.372 117.129C240.278 116.392 240.404 113.199 240.463 110.807C240.521 108.414 240.705 106.257 241.49 104.42C242.276 102.583 242.344 99.3794 242.344 97.4143C242.344 95.4492 243.58 90.2318 243.492 90.168C245.916 91.966 247.817 93.3416 247.817 93.3416L283.042 136.658L296.131 134.53L300.659 142.224L311 146.891Z" fill="#E0E0E0" stroke="white" stroke-width="0.245639"/>
<path d="M216.997 228.439C216.479 229.23 216.163 229.815 216.163 229.815L214.476 233.484C214.423 233.271 214.328 233.07 214.197 232.894C214.066 232.718 213.903 232.569 213.715 232.458C212.828 231.804 211.858 233.278 210.322 233.278C208.785 233.278 208.867 230.984 207.98 230.9C207.093 230.817 207.898 231.637 207.578 232.296C207.258 232.954 206.608 232.05 205.799 232.212C204.989 232.374 206.123 232.949 205.639 234.015C205.154 235.081 204.829 234.177 204.019 234.423C203.21 234.668 203.699 235.489 202.647 235.651C201.595 235.813 202.163 234.177 201.193 234.015C200.223 233.853 200.286 235.405 200.122 236.304C199.957 237.203 202.226 238.024 200.606 239.665C199.879 240.156 200.044 238.928 199.152 238.599C198.26 238.269 195.274 241.384 195.274 241.384C194.425 240.156 191.662 240.505 189.965 237.984C189.785 237.558 189.478 237.198 189.087 236.956C188.696 236.714 188.241 236.601 187.784 236.633C186.993 236.633 186.329 235.528 186.203 234.3C186.077 233.072 189.238 234.118 189.965 233.136C190.692 232.153 188.811 230.188 188.811 230.188L188.869 227.422C188.869 227.422 188.627 227.113 187.721 225.884C186.814 224.656 187.478 223.492 188.869 223.556C190.261 223.62 190.809 223.556 191.051 222.082C191.293 220.608 188.753 219.684 187.357 219.134C187.23 219.084 187.107 219.025 186.989 218.957C186.989 218.957 186.688 214.958 188.69 214.221C190.692 213.484 193.538 214.993 197.184 213.951C199.569 215.15 203.001 215.793 205.294 217.287C207.84 218.947 208.988 224.72 210.2 226.867C211.412 229.014 216.997 228.439 216.997 228.439Z" fill="#355CBF" stroke="white" stroke-width="0.245639"/>
<path d="M181.076 200.956C181.318 202.793 178.53 206.232 178.53 206.232C175.316 206.723 174.167 206.114 174.167 206.144C174.167 206.173 172.407 202.857 172.407 202.857C172.407 202.857 170.468 205.377 169.198 204.331C167.928 203.285 168.772 201.138 167.686 200.401C166.6 199.664 161.926 200.401 161.926 200.401L161.141 197.576H159.26L158.474 196.407H157.078L156.72 195.016C157.088 194.756 157.364 194.382 157.505 193.95C158.232 192.113 156.23 190.02 156.351 186.827C156.472 183.633 153.059 181.118 152.958 179.153C152.949 178.203 152.842 177.256 152.638 176.328L153.787 176.883L155.663 180.194C156.329 180.302 156.99 180.447 157.641 180.627C157.864 180.75 159.541 181.835 159.541 181.835C159.702 181.558 159.958 181.351 160.26 181.253C160.563 181.155 160.89 181.173 161.18 181.305C162.207 181.796 162.27 183.943 162.27 183.943C162.74 183.98 163.21 183.892 163.635 183.687C164.06 183.483 164.425 183.17 164.694 182.779L165.543 185.171H167.259C171.016 189.593 173.198 195.979 173.198 195.979C174.656 194.746 176.24 193.675 177.924 192.786C180.47 191.494 181.09 193.646 181.09 193.646C181.09 193.646 178.773 194.751 178.53 195.856C178.288 196.962 180.833 199.109 181.076 200.956Z" fill="#355CBF" stroke="white" stroke-width="0.245639"/>
<path d="M174.144 206.124L172.399 202.832C172.399 202.832 170.46 205.338 169.2 204.306C167.939 203.274 168.763 201.113 167.697 200.376C166.63 199.639 161.928 200.376 161.928 200.376L161.152 197.526H159.261L158.486 196.347H157.08L156.74 194.972C156.013 195.414 155.044 195.021 154.171 194.628C152.959 194.087 151.311 192.073 151.311 192.073L148.693 193.351L148.256 195.168C149.42 195.316 151.068 195.709 151.456 196.593C152.038 197.969 151.02 199.688 150.923 199.835C152.571 201.457 155.141 204.453 155.092 205.436C155.044 206.32 154.85 207.155 154.559 207.942C154.559 207.942 159.698 213.739 159.892 213.739C160.085 213.739 161.346 215.605 161.346 215.605L175.841 214.819C177.005 212.068 178.071 209.317 178.314 206.222C175.26 206.713 174.193 206.124 174.144 206.124Z" fill="#355CBF" stroke="white" stroke-width="0.245639"/>
<path d="M196.442 213.542C194.067 212.068 192.176 211.921 190.043 210.398C187.91 208.875 187.037 208.482 184.953 207.942C182.868 207.401 181.753 205.731 178.553 206.222C178.505 206.222 178.456 206.222 178.359 206.222C178.117 209.268 177.05 212.068 175.887 214.82H175.984C175.984 214.82 178.941 216.293 179.184 216.097C179.765 215.36 180.299 214.623 180.783 213.837C180.783 213.837 184.031 214.82 184.468 215.949C184.953 217.227 185.874 218.258 186.989 218.946C186.989 218.946 186.698 214.967 188.685 214.23C190.673 213.493 193.533 215.016 197.169 213.984C196.927 213.837 196.685 213.69 196.442 213.542Z" fill="#355CBF" stroke="white" stroke-width="0.245639"/>
<path d="M266.156 205.986C266.699 206.787 266.762 209.243 266.883 212.191C267.004 215.139 264.159 219.069 260.702 222.572C257.246 226.074 258.099 226.374 257.551 227.239C257.003 228.103 243.25 227.543 241.553 228.035C239.856 228.526 239.129 232.456 239.129 232.456C239.129 232.456 238.222 230.737 236.947 230.55C235.672 230.363 233.617 233.93 233.617 233.93C233.617 233.93 231.193 233.743 230.524 233.93C229.855 234.117 229.675 236.327 230.524 237.615C231.372 238.902 231.13 238.474 233.859 238.784C236.589 239.093 235.25 241.79 234.038 243.451C232.826 245.111 233.248 247.381 234.038 248.118C234.829 248.855 235.798 246.58 236.584 246.762C237.369 246.944 236.341 248.727 236.584 249.651C236.826 250.574 238.649 253.277 238.649 253.277C238.507 253.563 238.423 253.875 238.402 254.195C238.28 256.529 242.644 261.564 242.765 262.547C242.833 263.282 242.833 264.022 242.765 264.758C242.765 264.758 241.189 264.881 240.583 265.495C239.972 266.188 239.399 266.914 238.867 267.671C238.717 267.134 238.463 266.634 238.12 266.197C237.553 265.539 236.986 266.934 236.181 266.934C235.377 266.934 235.454 265.784 234.16 264.64C232.865 263.495 231.818 263.819 231.009 263.328C230.199 262.837 230.926 261.609 229.714 259.811C228.502 258.012 227.213 259.398 226.403 258.661C225.593 257.924 226.805 256.288 226.403 255.468C226.001 254.647 225.109 255.468 223.654 254.485C222.2 253.503 223.654 252.358 222.282 249.818C220.91 247.278 218.346 249.223 217.778 247.853C217.211 246.482 218.002 246.566 218.079 245.396C218.157 244.227 217.759 244.497 217.032 244.168C216.305 243.839 216.547 243.186 215.578 241.55C214.608 239.914 215.413 239.422 215.093 238.273C214.772 237.268 214.609 236.219 214.608 235.163C214.603 234.602 214.559 234.042 214.477 233.488L216.164 229.818C216.164 229.818 216.479 229.233 216.998 228.442C217.584 227.546 218.258 226.711 219.01 225.952C220.644 224.355 220.401 223.313 221.191 220.916C221.982 218.519 224.28 217.723 225.433 216.003C226.587 214.284 226.039 212.319 225.918 210.049C225.889 209.484 225.875 208.796 225.87 208.084C225.87 205.927 225.918 203.535 225.918 203.535C225.918 203.535 223.979 200.096 223.678 198.622C223.378 197.148 221.856 187.509 221.982 184.748C222.108 181.987 234.344 161.442 234.344 161.442L252.155 157.354L266.888 165.524C266.951 167.062 264.159 169.946 263.432 171.297C262.704 172.648 263.732 173.999 263.063 175.35C262.394 176.701 261.187 179.216 262.641 183.392C264.096 187.568 262.704 193.837 263.611 196.843C264.517 199.85 264.702 205.131 264.702 205.131C264.99 205.163 265.268 205.256 265.518 205.403C265.769 205.55 265.986 205.749 266.156 205.986Z" fill="#355CBF" stroke="white" stroke-width="0.245639"/>
<path d="M281.913 215.346L285.389 224.514C285.2 224.872 284.929 225.178 284.598 225.407C284.267 225.635 283.886 225.779 283.489 225.825C282.155 225.948 279.247 224.843 277.913 225.825C276.58 226.808 274.641 229.387 272.217 229.633C269.793 229.878 266.884 228.159 264.824 228.773C262.764 229.387 261.309 231.475 254.037 230.37C254.037 230.37 255.734 232.949 254.037 233.563C252.341 234.177 246.038 232.212 246.038 232.212C246.038 232.212 246.402 235.897 246.038 237.493C245.675 239.09 243.614 242.16 243.614 242.16C243.614 242.16 244.584 247.442 243.614 248.67C242.776 249.731 239.576 251.347 238.65 253.278C238.65 253.278 236.827 250.576 236.585 249.652C236.342 248.729 237.37 246.95 236.585 246.764C235.799 246.577 234.83 248.857 234.04 248.12C233.249 247.383 232.828 245.108 234.04 243.452C235.252 241.797 236.585 239.09 233.86 238.785C231.136 238.481 231.373 238.903 230.525 237.616C229.676 236.329 229.856 234.118 230.525 233.932C231.194 233.745 233.618 233.932 233.618 233.932C233.618 233.932 235.673 230.37 236.948 230.552C238.223 230.733 239.13 232.458 239.13 232.458C239.13 232.458 239.857 228.527 241.554 228.036C243.251 227.545 257.004 228.095 257.552 227.24C258.1 226.385 257.247 226.071 260.703 222.573C264.16 219.075 267.006 215.14 266.884 212.192C266.763 209.245 266.7 206.788 266.157 205.988C265.987 205.75 265.77 205.551 265.519 205.404C265.269 205.257 264.991 205.165 264.703 205.133C264.703 205.133 264.519 199.847 263.612 196.84C262.705 193.833 264.097 187.565 262.642 183.389C261.188 179.213 262.4 176.698 263.064 175.347C263.728 173.996 262.706 172.645 263.433 171.294C264.16 169.943 266.952 167.059 266.889 165.521L269.43 160.79L292.763 170.679L294.939 173.662C289.204 183.237 284.129 191.75 284.095 191.927C281.186 200.932 281.913 215.346 281.913 215.346Z" fill="#355CBF" stroke="white" stroke-width="0.245639"/>
<path d="M304.697 291.656L291.283 298.204C290.963 298.371 274.48 278.062 274.48 278.062L271.813 276.18L257.997 275.198L254.438 277.816C254.187 279.063 253.863 280.293 253.469 281.501C253.342 281.893 253.336 282.314 253.452 282.709C253.569 283.104 253.801 283.454 254.118 283.712C254.214 283.8 254.291 283.908 254.343 284.028C254.396 284.148 254.423 284.278 254.423 284.409C254.423 284.541 254.396 284.671 254.343 284.791C254.291 284.911 254.214 285.019 254.118 285.107C253.391 285.76 252.422 283.55 251.452 283.304C250.903 283.17 250.401 282.885 250.001 282.48C249.602 282.075 249.32 281.566 249.188 281.01C248.946 279.781 249.915 278.475 249.755 276.917C249.595 275.36 248.059 275.606 246.522 275.198C244.985 274.79 244.743 273.97 243.613 272.825C242.483 271.68 242.401 272.825 241.514 272.741C240.627 272.658 239.41 269.632 239.167 268.728C239.075 268.379 238.978 268.02 238.867 267.671C239.399 266.915 239.972 266.188 240.583 265.495C241.189 264.881 242.765 264.758 242.765 264.758C242.833 264.023 242.833 263.283 242.765 262.547C242.643 261.565 238.28 256.529 238.401 254.196C238.423 253.876 238.507 253.563 238.649 253.277C239.575 251.346 242.774 249.73 243.613 248.669C244.583 247.441 243.613 242.159 243.613 242.159C243.613 242.159 245.673 239.089 246.037 237.492C246.401 235.896 246.037 232.211 246.037 232.211C246.037 232.211 252.339 234.176 254.036 233.562C255.733 232.948 254.036 230.369 254.036 230.369C261.308 231.474 262.762 229.386 264.823 228.772C266.883 228.158 269.792 229.877 272.216 229.632C274.64 229.386 276.579 226.807 277.912 225.824C279.245 224.842 282.154 225.947 283.487 225.824C283.885 225.778 284.266 225.634 284.597 225.406C284.928 225.177 285.199 224.871 285.388 224.513L287.404 227.952C287.404 227.952 272.783 235.812 272.458 236.058C272.133 236.303 277.064 245.559 277.791 247.357C278.518 249.155 286.517 260.376 287.569 262.179L304.697 291.656Z" fill="#355CBF" stroke="white" stroke-width="0.245639"/>
<path d="M225.434 215.998C224.28 217.718 221.982 218.514 221.192 220.911C220.402 223.308 220.644 224.35 219.011 225.947C218.259 226.706 217.585 227.541 216.999 228.437C216.999 228.437 211.433 229.017 210.212 226.865C208.99 224.713 207.851 218.946 205.305 217.285C203.007 215.812 199.58 215.148 197.195 213.95C196.938 213.822 196.71 213.684 196.458 213.542C194.097 212.068 192.216 211.945 190.034 210.407C187.853 208.87 187.004 208.506 184.944 207.951C182.884 207.396 181.735 205.74 178.521 206.232C178.521 206.232 181.308 202.793 181.066 200.955C180.823 199.118 178.278 196.961 178.521 195.856C178.763 194.75 181.08 193.645 181.08 193.645L186.985 192.785C186.985 192.785 189.123 187.995 189.734 186.708C190.345 185.421 189.186 183.451 189.186 183.451L186.166 184.37C186.166 184.37 186.166 180.322 184.042 178.966C184.042 178.966 184.711 178.293 185.56 175.836C186.408 173.38 185.196 171.596 184.925 169.941C184.653 168.285 186.108 168.531 187.378 168.467C188.648 168.403 188.347 166.438 187.984 165.274C187.62 164.109 185.56 164.782 184.59 164.537C183.621 164.291 182.714 162.817 182.229 161.712C181.744 160.607 181.803 151.582 181.803 151.582L177.013 147.278V145.249L178.288 144.822L178.773 143.903L180.469 144.331C180.469 144.331 180.406 142.739 181.197 142.552C181.987 142.365 182.287 144.822 182.287 144.822L185.623 143.289L187.741 141.019C187.741 141.019 190.65 141.756 192.104 141.57C193.559 141.383 195.319 137.826 195.319 137.826L201.01 136.411L200.768 139.545L198.649 142.12L199.313 145.254L197.374 146.728L195.74 149.391L195.983 152.682C195.983 152.682 195.319 154.402 195.319 158.641C195.319 162.881 196.773 163.864 196.773 163.864L197.258 170.987L199.798 173.994L201.48 171.97L203.318 172.461L205.073 177.31C207.981 177.246 208.65 179.211 208.65 179.211C208.65 179.211 203.318 182.468 201.98 186.153C200.642 189.838 202.406 193.645 202.406 193.645L225.87 208.079C225.87 208.791 225.87 209.479 225.919 210.044C226.04 212.314 226.588 214.279 225.434 215.998Z" fill="#355CBF" stroke="white" stroke-width="0.245639"/>
<path d="M187.378 168.468C186.108 168.532 184.654 168.286 184.925 169.942C185.196 171.598 186.408 173.381 185.56 175.837C184.712 178.294 184.043 178.967 184.043 178.967C181.924 177.621 178.046 181.241 178.046 181.241H175.864C175.816 180.667 175.651 180.108 175.38 179.601C175.108 179.094 174.737 178.649 174.289 178.294C172.713 176.943 170.41 178.603 169.441 177.311C168.471 176.019 168.83 171.971 168.83 171.971C168.83 171.971 164.951 168.778 164.161 166.135C163.371 163.491 165.499 163 165.858 162.573C166.217 162.145 165.921 160.976 165.921 160.976C166.546 161.008 167.172 161.008 167.797 160.976C168.524 160.917 170.042 159.748 170.042 159.748C170.232 159.965 170.466 160.138 170.727 160.255C170.989 160.372 171.273 160.43 171.559 160.426C172.254 160.39 172.949 160.39 173.644 160.426C173.116 159.725 172.773 158.9 172.645 158.028C172.587 156.859 173.983 155.818 174.041 155.631C173.959 155.127 173.826 154.633 173.644 154.157C173.644 154.157 172.587 153.794 172.403 152.192C172.219 150.591 174.89 150.473 174.89 150.473L173.498 148.694L174.342 148.39L173.241 146.705C174.211 146.213 175.297 145.437 177.008 147.279L181.798 151.583C181.798 151.583 181.74 160.608 182.225 161.713C182.709 162.818 183.616 164.292 184.586 164.538C185.555 164.784 187.616 164.111 187.979 165.275C188.343 166.439 188.648 168.404 187.378 168.468Z" fill="#355CBF" stroke="white" stroke-width="0.245639"/>
<path d="M163.381 174.977C163.381 174.486 162.411 173.995 162.896 173.503C163.866 172.03 164.835 171.538 166.29 172.03C164.641 170.752 164.738 169.524 165.126 167.952C164.738 167.362 164.399 166.724 164.205 166.134C163.43 163.481 165.514 162.99 165.902 162.597C166.29 162.204 165.95 161.025 165.95 161.025C166.581 161.074 167.211 161.074 167.841 161.025C168.568 160.976 170.071 159.797 170.071 159.797C170.459 160.239 170.992 160.485 171.574 160.485C172.253 160.435 172.98 160.435 173.659 160.485C173.125 159.797 172.786 158.962 172.641 158.077C172.592 156.898 173.998 155.867 174.046 155.67C173.95 155.179 173.853 154.688 173.659 154.196C173.659 154.196 172.592 153.803 172.398 152.231C172.204 150.659 174.871 150.512 174.871 150.512L173.465 148.743L174.289 148.448L173.174 146.778C173.028 146.876 172.835 146.925 172.689 146.974C171.574 147.318 168.665 147.318 168.762 146.974C169.296 144.272 167.793 143.83 167.793 143.83C167.793 143.83 166.338 143.683 164.641 143.388C162.896 143.093 160.715 142.897 159.309 143.388C158 143.732 156.642 144.027 155.333 144.125C155.333 144.125 155.14 145.058 154.606 147.318C154.315 148.645 153.394 149.676 152.182 150.168V151.936C150.243 151.691 147.868 152.378 147.577 153.312C147.334 153.951 147.965 155.817 148.546 157.439C148.789 158.126 149.031 158.814 149.177 159.306C149.71 160.976 149.904 172.423 149.904 172.423C150.001 174.633 152.57 176.402 152.57 176.402L153.734 176.942L155.624 180.234C156.303 180.332 156.933 180.48 157.612 180.676C157.854 180.774 159.503 181.904 159.503 181.904C159.842 181.315 160.521 181.118 161.151 181.364C162.169 181.855 162.218 184.017 162.218 184.017C162.751 184.066 163.284 183.919 163.72 183.673C162.993 180.725 164.787 177.876 163.381 174.977Z" fill="#355CBF" stroke="white" stroke-width="0.245639"/>
<path d="M189.269 183.426L186.263 184.359C186.263 184.359 186.263 180.282 184.13 178.955C181.997 177.629 178.119 181.215 178.119 181.215H175.937C175.84 180.036 175.258 179.004 174.386 178.267C172.786 176.892 170.508 178.562 169.538 177.285C168.568 176.007 168.908 171.93 168.908 171.93C168.908 171.93 166.581 170.014 165.126 167.901C164.738 169.473 164.641 170.751 166.29 171.979C164.835 171.488 163.866 171.979 162.896 173.453C162.411 173.944 163.381 174.435 163.381 174.927C164.787 177.825 162.993 180.675 163.817 183.573C164.157 183.377 164.496 183.082 164.738 182.738L165.611 185.145H167.308C171.089 189.567 173.222 195.953 173.222 195.953C174.677 194.725 176.277 193.644 177.973 192.76C180.494 191.483 181.124 193.644 181.124 193.644L187.039 192.76C187.039 192.76 189.172 187.946 189.802 186.668C190.336 185.391 189.269 183.426 189.269 183.426Z" fill="#D8D8D8" stroke="white" stroke-width="0.245639"/>
<path d="M157.504 193.95C157.363 194.382 157.088 194.756 156.719 195.016C155.977 195.473 155.027 195.08 154.169 194.687C152.957 194.137 151.318 192.113 151.318 192.113L148.715 193.4L148.293 195.223C147.634 195.134 147.139 195.119 147.139 195.119V193.95L144.958 192.85V189.037C144.958 189.037 141.021 186.645 139.989 186.218C138.956 185.79 136.416 186.09 136.29 185.908C136.164 185.726 134.598 181.835 134.598 181.835C134.94 181.877 135.285 181.79 135.567 181.59C136.779 180.686 136.178 177.556 136.178 177.556C136.178 177.556 138.539 176.697 139.446 177.556C140.352 178.416 144.235 178.848 144.235 178.848C144.235 178.848 144.478 176.451 145.506 175.282C146.533 174.112 149.995 172.334 149.995 172.334C150.111 174.545 152.661 176.328 152.661 176.328C152.865 177.256 152.972 178.203 152.981 179.153C153.063 181.118 156.476 183.633 156.375 186.827C156.273 190.02 158.231 192.113 157.504 193.95Z" fill="#355CBF" stroke="white" stroke-width="0.245639"/>
</g>
</svg>
