<svg width="17" height="17" viewBox="0 0 17 17" fill="none" xmlns="http://www.w3.org/2000/svg">
<g clip-path="url(#clip0_162_708)">
<path d="M8.05344 1.52051C8.29538 1.52051 8.53717 1.53286 8.77786 1.55753L8.82901 1.06015C8.13952 0.989405 7.44359 1.01343 6.76062 1.13156L6.84625 1.62418C7.24494 1.55513 7.64882 1.52045 8.05344 1.52051Z" fill="black"/>
<path d="M3.95021 2.8482L3.65678 2.44336C2.69528 3.13815 1.91255 4.05138 1.37302 5.10786C0.833501 6.16433 0.552617 7.33384 0.553497 8.52011C0.550224 9.67399 0.815918 10.8127 1.3295 11.846L1.7775 11.6241C1.29828 10.6597 1.05039 9.59696 1.0535 8.52011C1.05261 7.41284 1.31476 6.32121 1.81838 5.3351C2.322 4.34899 3.05267 3.49663 3.95021 2.8482Z" fill="black"/>
<path d="M8.29504 15.5163L8.31195 16.016C9.01532 15.9925 9.71187 15.87 10.381 15.6521L10.226 15.1768C9.60148 15.3801 8.95144 15.4944 8.29504 15.5163Z" fill="black"/>
<path d="M3.55347 8.27051H4.05347V14.0205H3.55347V8.27051Z" fill="black"/>
<path d="M5.05347 8.27051H5.55347V14.0205H5.05347V8.27051Z" fill="black"/>
<path d="M6.55347 8.27051H7.05347V14.0205H6.55347V8.27051Z" fill="black"/>
<path d="M15.4118 8.76178L10.906 6.59436C10.7267 6.50838 10.5206 6.49703 10.333 6.56279C10.1453 6.62856 9.99141 6.76607 9.90501 6.94516L8.55347 9.75496V7.27051C8.55309 6.9391 8.42127 6.62138 8.18693 6.38704C7.9526 6.1527 7.63487 6.02088 7.30347 6.02051H6.30347V2.02051C6.30347 1.75529 6.19811 1.50094 6.01057 1.3134C5.82304 1.12586 5.56868 1.02051 5.30347 1.02051C5.03825 1.02051 4.7839 1.12586 4.59636 1.3134C4.40882 1.50094 4.30347 1.75529 4.30347 2.02051V6.02051H3.30347C2.97206 6.02088 2.65434 6.1527 2.42 6.38704C2.18566 6.62138 2.05384 6.9391 2.05347 7.27051V13.7705C2.05377 14.0272 2.13299 14.2777 2.28039 14.4879C2.42779 14.6981 2.63625 14.8579 2.87752 14.9457C2.824 15.0569 2.79877 15.1797 2.80406 15.303C2.80935 15.4263 2.84501 15.5465 2.90786 15.6527C2.97071 15.759 3.05882 15.8481 3.16436 15.9121C3.26991 15.9761 3.38962 16.0131 3.51289 16.0198C3.63616 16.0265 3.75917 16.0026 3.87101 15.9503C3.98285 15.8981 4.08005 15.819 4.154 15.7201C4.22795 15.6213 4.27636 15.5057 4.29493 15.3837C4.3135 15.2616 4.30166 15.1369 4.26046 15.0205H6.34647C6.30531 15.1369 6.2935 15.2616 6.31209 15.3836C6.33069 15.5056 6.3791 15.6211 6.45304 15.72C6.52699 15.8188 6.62418 15.8978 6.73599 15.9501C6.8478 16.0023 6.97078 16.0262 7.09402 16.0195C7.21726 16.0128 7.33695 15.9758 7.44247 15.9118C7.54799 15.8478 7.63609 15.7588 7.69894 15.6525C7.76179 15.5463 7.79745 15.4262 7.80277 15.3029C7.80809 15.1796 7.78289 15.0569 7.72942 14.9457C7.92594 14.874 8.10141 14.7542 8.23985 14.5974C8.3783 14.4405 8.47533 14.2516 8.52211 14.0477L12.0524 15.7458C12.082 15.76 12.1141 15.7683 12.1469 15.7702C12.1797 15.772 12.2125 15.7674 12.2435 15.7565C12.2745 15.7457 12.303 15.7288 12.3275 15.7069C12.352 15.685 12.3719 15.6585 12.3861 15.6289L15.5288 9.09543C15.5575 9.03568 15.5613 8.96696 15.5394 8.90439C15.5175 8.84182 15.4716 8.79052 15.4118 8.76178ZM10.5813 7.02029C10.6187 7.02029 10.6556 7.02872 10.6893 7.04495L14.9698 9.10397L14.7531 9.55457L10.4725 7.49557C10.4129 7.46679 10.3671 7.41553 10.3451 7.35304C10.3232 7.29054 10.3269 7.2219 10.3555 7.16215L10.3556 7.1619C10.3761 7.11944 10.4081 7.08362 10.4481 7.05857C10.488 7.03352 10.5342 7.02025 10.5813 7.02029ZM4.80347 2.02051C4.80347 1.8879 4.85615 1.76072 4.94991 1.66695C5.04368 1.57319 5.17086 1.52051 5.30347 1.52051C5.43607 1.52051 5.56325 1.57319 5.65702 1.66695C5.75079 1.76072 5.80347 1.8879 5.80347 2.02051V6.02051H4.80347V2.02051ZM3.80347 15.2705C3.80347 15.32 3.7888 15.3683 3.76133 15.4094C3.73386 15.4505 3.69482 15.4826 3.64914 15.5015C3.60346 15.5204 3.55319 15.5254 3.50469 15.5157C3.4562 15.5061 3.41165 15.4822 3.37669 15.4473C3.34173 15.4123 3.31792 15.3678 3.30827 15.3193C3.29862 15.2708 3.30358 15.2205 3.3225 15.1748C3.34142 15.1292 3.37346 15.0901 3.41457 15.0626C3.45569 15.0352 3.50402 15.0205 3.55347 15.0205C3.61975 15.0206 3.68329 15.0469 3.73016 15.0938C3.77703 15.1407 3.80339 15.2042 3.80347 15.2705ZM7.05347 15.5205C7.00402 15.5205 6.95569 15.5058 6.91457 15.4784C6.87346 15.4509 6.84142 15.4119 6.8225 15.3662C6.80358 15.3205 6.79862 15.2702 6.80827 15.2217C6.81792 15.1732 6.84173 15.1287 6.87669 15.0937C6.91165 15.0588 6.9562 15.035 7.00469 15.0253C7.05319 15.0157 7.10346 15.0206 7.14914 15.0395C7.19482 15.0585 7.23386 15.0905 7.26133 15.1316C7.28881 15.1727 7.30347 15.2211 7.30347 15.2705C7.30339 15.3368 7.27703 15.4003 7.23016 15.4472C7.18329 15.4941 7.11975 15.5204 7.05347 15.5205ZM7.30347 14.5205H3.30347C3.10462 14.5203 2.91399 14.4412 2.77339 14.3006C2.63278 14.16 2.55369 13.9694 2.55347 13.7705V7.27051C2.55369 7.07167 2.63278 6.88103 2.77339 6.74043C2.91399 6.59983 3.10462 6.52074 3.30347 6.52051H4.30347V7.77051H4.80347V6.52051H5.80347V7.77051H6.30347V6.52051H7.30347C7.50231 6.52074 7.69294 6.59983 7.83355 6.74043C7.97415 6.88103 8.05324 7.07167 8.05347 7.27051V10.7944L7.19582 12.5775C7.15312 12.6662 7.12833 12.7625 7.12285 12.8608C7.11737 12.9592 7.13132 13.0576 7.16389 13.1506C7.19646 13.2435 7.24702 13.3292 7.31269 13.4026C7.37835 13.476 7.45783 13.5357 7.54659 13.5784L8.05155 13.8213C8.03848 14.0109 7.95401 14.1885 7.81518 14.3182C7.67635 14.448 7.49349 14.5203 7.30347 14.5205ZM12.0439 15.1869L7.76332 13.1279C7.70357 13.0991 7.65769 13.0478 7.63576 12.9852C7.61384 12.9227 7.61767 12.8539 7.64641 12.7942L10.0491 7.79902C10.1091 7.85949 10.179 7.90925 10.2558 7.94614L14.5363 10.0051L12.0439 15.1869Z" fill="black"/>
<path d="M12.0667 9.37214C11.7549 9.22213 11.4055 9.16797 11.0628 9.21652C10.7201 9.26507 10.3995 9.41414 10.1416 9.64489C9.88364 9.87563 9.6999 10.1777 9.61361 10.5128C9.52732 10.848 9.54236 11.2012 9.65681 11.5279C9.77127 11.8545 9.98001 12.1398 10.2566 12.3478C10.5333 12.5558 10.8654 12.6771 11.2109 12.6964C11.5565 12.7156 11.9 12.632 12.198 12.456C12.496 12.28 12.7352 12.0197 12.8852 11.7078C13.0859 11.2894 13.1124 10.8086 12.9589 10.3707C12.8055 9.93285 12.4846 9.57372 12.0667 9.37214ZM12.5203 11.2548L12.0721 11.0393C12.1723 10.7629 12.2214 10.4707 12.2173 10.1769L12.2159 10.0902C12.3603 10.2433 12.4638 10.4301 12.517 10.6336C12.5701 10.8371 12.5713 11.0508 12.5203 11.2548ZM10.9661 11.7462L10.9003 11.7972L10.899 11.7139C10.896 11.4977 10.9295 11.2825 10.9979 11.0773L11.4017 11.2716C11.2842 11.4531 11.1369 11.6135 10.9661 11.7462ZM11.2146 10.6268C11.3322 10.4453 11.4794 10.2849 11.6502 10.1522L11.7161 10.1012L11.7173 10.1845C11.7203 10.4007 11.6869 10.6159 11.6185 10.821L11.2146 10.6268ZM11.3102 9.69925C11.3442 9.69925 11.3783 9.70112 11.4124 9.70394L11.3441 9.75681C11.1119 9.93701 10.9143 10.1578 10.761 10.4086L10.3132 10.1932C10.4302 10.0397 10.581 9.91531 10.7539 9.82963C10.9268 9.74396 11.1172 9.69934 11.3102 9.69925ZM10.0958 10.6435L10.5442 10.8591C10.4441 11.1354 10.3949 11.4276 10.3991 11.7215L10.4004 11.809C10.2558 11.6559 10.152 11.4689 10.0988 11.2652C10.0456 11.0615 10.0446 10.8477 10.0958 10.6435ZM11.2037 12.1946L11.2722 12.1415C11.5044 11.9614 11.702 11.7405 11.8554 11.4898L12.3036 11.7054C12.176 11.8726 12.0084 12.0051 11.8162 12.0905C11.624 12.176 11.4134 12.2118 11.2037 12.1946Z" fill="black"/>
<path d="M8.87463 13.1064L9.09112 12.656L11.3436 13.7385L11.1271 14.1889L8.87463 13.1064Z" fill="black"/>
<path d="M11.3552 4.46852C11.2088 4.32242 11.0103 4.24037 10.8035 4.24037C10.5966 4.24037 10.3982 4.32242 10.2517 4.46852C10.1991 4.52101 10.1278 4.5505 10.0535 4.5505C9.97914 4.5505 9.90786 4.52101 9.85524 4.46852L9.79274 4.40602C9.4638 4.07785 9.01812 3.89355 8.55347 3.89355C8.08882 3.89355 7.64314 4.07785 7.31419 4.40602C7.24728 4.4733 7.16769 4.52664 7.08002 4.56295C6.99235 4.59926 6.89836 4.61783 6.80347 4.61757V5.11757C6.96404 5.11801 7.12311 5.0866 7.27146 5.02515C7.41981 4.96371 7.5545 4.87345 7.66774 4.7596C7.90283 4.52503 8.22137 4.3933 8.55347 4.3933C8.88557 4.3933 9.2041 4.52503 9.43919 4.7596L9.50169 4.8221C9.64816 4.9682 9.84659 5.05025 10.0535 5.05025C10.2603 5.05025 10.4588 4.9682 10.6052 4.8221C10.6578 4.76958 10.7291 4.74009 10.8035 4.74009C10.8778 4.74009 10.9491 4.76958 11.0017 4.8221L11.4625 5.28288C12.3586 6.18396 13.5619 6.71342 14.8316 6.7653C14.9392 7.18207 15.0079 7.60788 15.0371 8.03731L15.5359 8.00331C15.4698 7.01254 15.2057 6.04508 14.7594 5.1581L14.3126 5.38252C14.4542 5.66472 14.5766 5.95623 14.6787 6.25501C13.5968 6.16918 12.5813 5.69892 11.816 4.92931L11.3552 4.46852Z" fill="black"/>
<path d="M9.17311 2.23382L13.3372 4.77853C13.4807 4.86668 13.6497 4.90382 13.8169 4.88392C13.9842 4.86403 14.1398 4.78827 14.2586 4.66891L15.2302 3.69729C15.2771 3.65041 15.3035 3.58681 15.3035 3.52051C15.3035 3.4542 15.2771 3.39061 15.2302 3.34372L14.7302 2.84372C14.6894 2.80286 14.6356 2.77743 14.5781 2.77173C14.5206 2.76604 14.4629 2.78045 14.4148 2.8125L13.8035 3.22003L12.662 2.45907L13.2535 1.6705C13.2896 1.62236 13.3071 1.5628 13.3028 1.50278C13.2986 1.44275 13.2728 1.38627 13.2302 1.34372L12.9802 1.09372C12.9431 1.05662 12.8953 1.03214 12.8435 1.02373C12.7917 1.01533 12.7386 1.02344 12.6917 1.04691L11.3144 1.73553L10.8516 1.45782C10.6126 1.31409 10.3324 1.25451 10.0557 1.28858C9.77893 1.32265 9.52155 1.44841 9.3246 1.64581L9.12669 1.84372C9.09995 1.87046 9.07962 1.90292 9.06724 1.93866C9.05486 1.9744 9.05075 2.01248 9.05522 2.05004C9.05969 2.08759 9.07262 2.12365 9.09304 2.15548C9.11346 2.18732 9.14084 2.2141 9.17311 2.23382ZM10.5943 1.8866L11.1748 2.23489C11.2109 2.25652 11.2518 2.26871 11.2939 2.27032C11.3359 2.27193 11.3776 2.26292 11.4153 2.24411L12.6681 1.6177L12.1035 2.37051C12.0831 2.39771 12.0684 2.42878 12.0604 2.46183C12.0525 2.49488 12.0513 2.52921 12.0571 2.56272C12.0628 2.59623 12.0753 2.62821 12.0938 2.65672C12.1124 2.68523 12.1365 2.70966 12.1648 2.72851L13.6648 3.72851C13.7059 3.75588 13.7541 3.77049 13.8035 3.77049C13.8528 3.77049 13.9011 3.75588 13.9421 3.72851L14.5216 3.34219L14.6999 3.52051L13.905 4.31537C13.8654 4.35515 13.8136 4.3804 13.7578 4.38703C13.7021 4.39366 13.6457 4.38128 13.5979 4.3519L9.7056 1.97327C9.82478 1.86529 9.97557 1.79856 10.1356 1.78295C10.2957 1.76734 10.4565 1.80368 10.5943 1.8866Z" fill="black"/>
</g>
<defs>
<clipPath id="clip0_162_708">
<rect width="16" height="16" fill="white" transform="translate(0.0534668 0.520508)"/>
</clipPath>
</defs>
</svg>
